<mxfile host="65bd71144e">
    <diagram name="Page-1" id="c37626ed-c26b-45fb-9056-f9ebc6bb27b6">
        <mxGraphModel dx="1046" dy="1437" grid="1" gridSize="10" guides="1" tooltips="1" connect="1" arrows="1" fold="1" page="1" pageScale="1" pageWidth="1100" pageHeight="850" background="none" math="0" shadow="0">
            <root>
                <mxCell id="0"/>
                <mxCell id="1" parent="0"/>
                <mxCell id="23" value="" style="rounded=0;whiteSpace=wrap;html=1;fillColor=#0050ef;fontColor=#ffffff;strokeColor=#001DBC;" vertex="1" parent="1">
                    <mxGeometry x="1230" y="300" width="240" height="190" as="geometry"/>
                </mxCell>
                <mxCell id="20" value="" style="sketch=0;aspect=fixed;html=1;points=[];align=center;image;fontSize=12;image=img/lib/mscae/Docker.svg;" vertex="1" parent="1">
                    <mxGeometry x="1245.48" y="310" width="219.52" height="180" as="geometry"/>
                </mxCell>
                <mxCell id="21" value="" style="dashed=0;outlineConnect=0;html=1;align=center;labelPosition=center;verticalLabelPosition=bottom;verticalAlign=top;shape=mxgraph.webicons.oracle;fillColor=#FA3743;gradientColor=#E10E11" vertex="1" parent="1">
                    <mxGeometry x="1260" y="150" width="170" height="150" as="geometry"/>
                </mxCell>
                <mxCell id="22" value="" style="fontColor=#0066CC;verticalAlign=top;verticalLabelPosition=bottom;labelPosition=center;align=center;html=1;fillColor=#CCCCCC;strokeColor=#6881B3;gradientColor=none;gradientDirection=north;strokeWidth=2;shape=mxgraph.networks.pc;rounded=0;shadow=0;comic=0;" vertex="1" parent="1">
                    <mxGeometry x="2370" y="530" width="230" height="200" as="geometry"/>
                </mxCell>
                <mxCell id="24" value="" style="sketch=0;aspect=fixed;html=1;points=[];align=center;image;fontSize=12;image=img/lib/mscae/VM_Linux_Non_Azure.svg;" vertex="1" parent="1">
                    <mxGeometry x="1210" y="495.6" width="320" height="294.4" as="geometry"/>
                </mxCell>
                <mxCell id="25" value="" style="sketch=0;pointerEvents=1;shadow=0;dashed=0;html=1;strokeColor=none;fillColor=#DF8C42;labelPosition=center;verticalLabelPosition=bottom;verticalAlign=top;align=center;outlineConnect=0;shape=mxgraph.veeam2.open_vpn;" vertex="1" parent="1">
                    <mxGeometry x="1980" y="547" width="186" height="166" as="geometry"/>
                </mxCell>
                <mxCell id="27" value="&lt;span style=&quot;font-size: 30px&quot;&gt;Local&lt;/span&gt;" style="text;html=1;strokeColor=none;fillColor=none;align=center;verticalAlign=middle;whiteSpace=wrap;rounded=0;" vertex="1" parent="1">
                    <mxGeometry x="2360" y="90" width="230" height="100" as="geometry"/>
                </mxCell>
                <mxCell id="28" value="&lt;span style=&quot;font-size: 30px&quot;&gt;DB&lt;/span&gt;" style="text;html=1;strokeColor=none;fillColor=none;align=center;verticalAlign=middle;whiteSpace=wrap;rounded=0;" vertex="1" parent="1">
                    <mxGeometry x="1230" y="40" width="230" height="100" as="geometry"/>
                </mxCell>
                <mxCell id="29" value="" style="shape=flexArrow;endArrow=classic;startArrow=classic;html=1;fontSize=30;exitX=1.004;exitY=0.429;exitDx=0;exitDy=0;exitPerimeter=0;entryX=0;entryY=0.5;entryDx=0;entryDy=0;" edge="1" parent="1" source="24" target="32">
                    <mxGeometry width="100" height="100" relative="1" as="geometry">
                        <mxPoint x="1720" y="500" as="sourcePoint"/>
                        <mxPoint x="1660" y="620" as="targetPoint"/>
                    </mxGeometry>
                </mxCell>
                <mxCell id="30" value="" style="shape=flexArrow;endArrow=classic;startArrow=classic;html=1;fontSize=30;entryX=0;entryY=0.5;entryDx=0;entryDy=0;entryPerimeter=0;" edge="1" parent="1" target="22">
                    <mxGeometry width="100" height="100" relative="1" as="geometry">
                        <mxPoint x="2160" y="630" as="sourcePoint"/>
                        <mxPoint x="1788.72" y="760.0031664462496" as="targetPoint"/>
                    </mxGeometry>
                </mxCell>
                <mxCell id="31" value="" style="shape=image;verticalLabelPosition=bottom;labelBackgroundColor=#ffffff;verticalAlign=top;aspect=fixed;imageAspect=0;image=data:image/png,iVBORw0KGgoAAAANSUhEUgAAAgUAAAIICAYAAAD+Ap3TAAAAAXNSR0IArs4c6QAAIABJREFUeF7sfQeYXWXV9Tr1lukzSSaNhN4RkSbdBqLSm9J7ELAg2FB/sFEUBRFpAiogghSpKtJBAQEB6RISCIT0NpOZueXU/1l7v+feO2EmkBg+FeZ+jx+ZmXvPPecte6+99tr7tTbacPMUI69VOgLlcglhECDFyNCu0oEdudjICIyMwH90BFzXQ7HYBMuy/qP3MfLl794IWCOg4N0b3JErj4zAyAiMjMDICIyMwP/SCIyAgv+l2Rq515ERGBmBkREYGYGREXgXR8BqbW0b4bjfxQEeufTICIyMwMgIjIzAyAj8r4yA9bMT1hwBBf8rszVynyMjMNQI2ABis40t/sB/pwDzvqmFNE3M7/TnJAGiUoqoDMSBhTROYTkpvIIFr2jB9gBeRi5lZcqYFJpF5v/nH3mt7Lr8Pr555DUyAiMj8L8+AiOg4H99Bkfuf2QEOAL0yyL+UkAgQEB+tmDRu6cu0ggIyiEq5QAIXCShBQcubMdBihCWm8B2U9g+kCv4sDx+PEJqxQoQEiAl1iAwsBwz7qn57pFpGBmBkRF4L4zACCh4L8ziyDO8v0egBgiIBxi9m5eE9inS2EFYAYJSgqhK524LXkjIEID/tpAiguMCnm8jQQLbBpycBTdnwXKJBHhdsgMNQ21Ah/5mhHB8fy/Ckad/r4zACCh4r8zkyHO8j0eAkbsCgjRJYdGjwxF8kFRjVAZCBNUUVuzCSj0BAqkVSsmssghAksawHcBzHQEE/JnXdHzA9R3YHn8wKQUBAAZ8CCDJUhbv4ykYefSREXiPjMAIKHiPTOTIY7yfRyCL0rPcvoM4TBCUU8T9NuIwRprasC0LtpUiSWKTbSCY0BRDFu1bVgrXp5+3kTAzQLBgW3A8G8ilcD1bUgwNuYQRPcH7eemNPPt7bgRGQMF7bkpHHujdGYHh6HETpS/7pSvNpmcfNA5bUvbinU0uX/+eyf7031XYkuP3gMiWFEFQjhGWE6QRI3+yAaozYKJAyQEKEFUjoJpES99nxXA8/pt/5x+ECtBvdFLYrgXXt2D7ZA707ykSWIkRH2rCQr5HUworKUBc0d44yx3v5czdu7NYRq46MgL/syMwAgr+Z6du5MbfkyNAJ2x8mDjsmn7QeEnb/JKOncI/6gldC1ZsIaqmWlVQAeLQ0r8N41yz1IG4+9r3KWBwXAuOw7+Y6gKL0kL9P9EWEBx4gJ2zBUCI30/JRogKUYCAdLzLLvx/MVHLAxErDdD+L2585DtGRuC/awRGQMF/13yM3M1/6wgM53TeFYfTmA4wTITx7lJVkDn71EbKEsOqiyiIEVQiRCG1AzZYV0AnniIeckSt1ILtmL+bFEIcUWBoCyPgunTsKRJhFwSaqKMXXx8jsRIBD17Og+3zMwFAwCIog29ygFRqJYcXIf4nWuXW5tFUarwr8/ffuohH7mtkBN5+BEZAwduP0cg7RkbgbUZg1dHTjLYHp/mTQakCOvs0dZCGQFSNEQUJ4gqk94B8VsJ2oxPIcgND3L2V0umzziCGTQAAC4nBDwoKjOCQ+gOTXpDrGqeqJY+QNAM/b+cSODlWKpLpSASsWExpDHcPcp0VzRGsooXY+LUjoGAVDerIZd4rIzACCt4rMznyHP99I7BSlDZz8/WmQKIdYORNZx8TCCQIqyniqoU0sk3/oFoDgYZo3jjmYRwvg3rCDdj07BYcW5IDiMLIpBBscfiiKRDHbtfFicobmH4IprmRaA1UpGj7vO7ghklD0xXD5jZW8VxmuoiGy2YtHVbxN41cbmQE/tdHYAQU/K/P4Mj9/9+MwKoOaoclF4xYgDkCEQjS8VM8mCIciBGTGQhNr4Eapa/VAJrC106G2Sl2jW0LGgfK5h9sB4nlohyEyOUc5H0LURQgTSg0TDWVIHoBLV0U6WCDzkH6GxjMIG7XpBTcvAUnlwAuqxwaqxuWmaphxiBLV6zYxC4n5F82TTHCDqzY0I68+301AiOg4H013SMPu1IjsNJU93K8z1B/Ev9pQIFE6BbCIEW1HCEcsGAFXr1SQKoCyPcniFOtMBDHzSqDxETvgg+Gvgeb+Qcnh0poY3FPBc0tNtrbHDjUEcRMUUSGKciQgKkiaABHWl+glQb6V1e+O7FjuAXAa7KlO+KwL2FAhnittEDxbYQfGWgy2Gml1sLIh0ZG4D0+Au8vUJDZjGXt5HJtyaoMKxrLs1bldd/jq3TQ4zVMFh2YZYrz1EPJSxyhCN34A6NVQx+LAI5RtCm1EydszgeQXjyJ+Sxpc23+r5dkpGy+oMZEN/LPWfMglv1l90DGPSsFNN8jt65UfE3JL8I9c4c2Gw4lSAMLyUCKoD9FHPDvWXliQ7fChjFhVJ8mOdhegChUyt+2QySRbzQG6rhr7IEUOIRwbReBFWPam0C+GVi9O0E+8RBJkQEFhqawkIyApBeGX7MyGrU/NwxCLoab9+Dk2BmJ4x7JnDBlYSUso6xfU6aH3RQ5PtmvMw2DtG7mc1BAmc2bKdeUazhI4hiOlFtSbJkCjoc00ooKpTTqx0LokmCaw0UchnBcvinSsk3RQqxM7mdl6KTGm5IHk2fRlxkEpWHqGoxscDKQ8w41ElIdIuzS29iL4ezk+8nMvI+f9f0HCpY1XOpGVnwJDGcflxtVLvuhZSzfit/FyCcajXfN6WYeyhwKxHx4bCEOYojC3rWlCY/lKhAQZ8P8uajlzYtJd8mpN9jnRmuaOXL+me9rXEOqzDM23TizTP8nn8so/szu05Px/lJU+hJE5QRJNYWdOLAtNhEy9zicNWf+PvZgOREgHQuBOAng2DkkaQDLpqvVa6TicNiaMIWbMn2QYNY8B7lWB6M7K3AiAwD4+EY5oGAgQTpIAbnM0msEQw0AgfcuNALv0WWHRAt+zpVyxtipCmhhUyV1wtl/zbXZPan2ytABHXe2Z1WUKW5VnDlbMepYMpUR89ldC7YcFkVHz2fn06jmQaZJAENEIYT0dCAesEAkpu9Vv5yViS7zkMvuvuEx07D7lKJRHdasvpQAT79a0zPZGq7DBAF4md3Kxu1t20wPYWsace2IJRkZATMC7x9QMCSaroV9wyyIVR0trITVGFmqyx8BceSZ08reahr90HQmluTgKdCTqFuo9QRezoGXd7QJjziIGJaghKyMT8vrMj8scXP2Q4MxzX5VU+hnf8vCZgEM5oAiE62nFiNhPZ0wiegELCRBImmCqOxrVkCCaQuTN9ocqZXgjRf/ga12OwJP3HGVOorGlzAjGuk6bCDAj8cxbMvXkkJb0wwUFpLoZ7SNKIHvOoisKuYujJFv8tHV5sAjvnAjAQ9ZUsDhNZIEybLgp+Eedjroq3j0pgtRbBuFzvFr4NWnH9L7jBy5B+miaCfSGZFjzzJGpy2qj2kWMMtwmUHM2h4kwMR1t8WbU/8uA/OBHQ/BMw9erW4xmwA70y94osGQgxxdgoUIdsRjHzmgoSnMYJrFFZBjgcwF58CFBY4XxzAEYm3/LC9TQbHJdgdi+rN3odS3aOg1uRLbW0Fa9vBa/pk9fu0f5hk3/cihcL08pj9zJ3oXzGioMsnALD+dYPNPHIsn77kMH9jhYEx75i6Uli7Q+x3KnA2652UfYCWCpf+Avdpg670x65XH4fp5dE/aBC89fstK38WHPnEMnrrncrR2TsCEdbbCS4/dvNLXWt4HN93pUNkTz/31d+/K9f+di77/QMFyN8GyQ7lMBDjozytjAbJIY6gpW4UbcLhLrcQt/zuLa8U+u3I3l1HOQgVnpwIyUqRALwLiaqxq/YAOwBVqmo6FjtZm5MpDf3we+pM13zNd+gzVqo14mEYw9frSGbB+r+qUGnL4xvhmwWzWjbB2WqFUETiIKgQBgdwj+wrwcCItCWQrYt4rBYYpttz9UGz8kT2wYOY0rLXZ9jj/yB0lKv7YYaegqX00iq3taB09HpeftCfGr70htvjMIWL8J224NS48/iMSgJ58zdOY/o+/IVdsxqLZr+C+X/0ATZ3j8aXfPFpzqj/64qHoe/UxtOYCdZIUIUqFAsGJEPrZUw45raf89jlMfewu5JtbMe+1F/Hg785Fsa0LOx30NXn/pI22xP1X/RhTn7gbOx30FTS1j5KUTMe4ybjp54dJj4Niewd22PNUrPPBT+O5R65F92qb4Prz9xMvud1uX8Ps6U+g0NyJD37kCFx7zp71+5ADnbQ1Mx+YYGagP0LfQISWli74TSUgiWDFCRzY2Hjr/TB+7S3E16+z6a74wbGboK1zFHY96OvylK0dq+Hpey/HjBcfwnZ7fBWjJqyPJXOnY9TEDfDA9d/D4rnT8Kmjzpd1UGjqwPMPX4dXnv7zii337N1WjNU3+igGehdh/syXcNT378P15xyEjbf/HBa+8QpeevQ2fHjPE/D32y/EQd+5AYXmdrmHKKqAjmXdD+2Gl564BU/e9Uu4ro9dj/4ZOkavgdmvPinjce8130LXuHXxxtSHUe5fMuQ9aqOpZf/0dgHTyj3usp869Dt3Ys5r/4SXK6DUOx8P3nQGNvvYUdhx32/LW4NKPy4+ZVP590cOOB3j19wCcRxi9vR/4G+3/Ai7HnEe1tlsV5QHevDKk3eg2Doaf7riiyt9c4d8507Mfe2fKLZ0IY4D/PGyEzF29U2x8XYHyjUnrvdh3HvNqZjz6lPY6YDTZZ82tY2Wzzz25wsGfe8+X/4t/nD+Idj7i1fi5gsOxza7fQVb7PJ5PH7nhZi8wfaIowA3nX/ISt/ru/XB9w8oWA69lp0Y/5ZBHmqvvM1MaKnWMK9h6DpNEa5CUDDss67K71jFS/Kd4K/s9k2KRplT0trCdYvzEvo4tpFSrU+BXoXIgDQ8I0Gl4iWuMvnrGLGcDuj6Ntw8m/AocyDTwT5BjMDZApih+yDBQPb8WTjbmFTXMj/m4eWAIjIDlouUJxbzcKJSjJhAJUrh2h4ci8I+ZQZiq6qgQ3QENnY++lvYZu+j5cvCoIKrvnkQZk19Bideeg9KS9XIL3rzNdxxwdcF1TguGwvZ2O0LP8FtvzgFbgIc8P9+hbFrbYyBpb14+Nar8bebroTdPg6HfftcnH/22aiEFmZNfwXN6MekMRZGN7vI+SxJ1By7liMylz90I6T27kk45rw/w/Vycj/P3X8T7rvqbOSb23DYmTdi0exXZTgf+N1PMfOlx+U9krJJUrm3m35yFCw/lZTCxPU3x457fRvPP3Y9NtpqX/QtmYV7b/wODjrlDvncLZcciZ0/dxZuuECNtLykqRIZkgRRXDL9E5qwcH4Vb7xRQa4lD9eqoqUAdLXnsftRZ6Ozey25hzhOcdYX9kChCHSP8+C6Kdb7wJ4Iq314/cUHccBXb8Qffn4ojj3rcSyc9RKefegavPyP27D/KdfjybsvQ/fkTeQWHr393JXaEF4ujyO++wAu/eo26Bi9Ng4+7Wbc9NPjMX6dD2Hj7fbApV/4OLb/7BdRLfVix8+dgr7Fc/Hg73+IWa8+gY222xud49bBrNeewPR/3iV6lIO+cTv+/OsvYu8vXIWli97E/Tecjk13PAw9C2bgqfuuGPoea4xIw5qWSVqpR1qhD+025RJMWHsLLJn3GqY++Uf884HfCChoahuD6c/cJeuPDpevlo5x2MGAhfuvOw3l/sXYbcrFePHRG/ChTxyLN176mwC4lQUFbaMmYe8vXYW2rtXk+9585TH88fITMWn97bHD3t9E3+LZ8vsHbvge5r/xfO05V1tvGwErjaBgvS33xBY7H4t/3n8lNtnhIPQufAN3X/11TPnRP3DHL4/HNrudhCisjICCFVot7+abjVNRg2IER8N833D7YnixzjC98GtfNkiRZYzjO9uAtuPByxWRxCHCaundHKH/+2tzHoSeXs5L5iob38ZxVlDAVEFaBeJKjKiSIgkZ6mrUTXW+5tXF04uYjBFSInl2FRg6niNtex0/hUVv6ijdrstE87sSVYmajZF9Yk4XtGE7RhzWkDbQWItpAhtJOUHQx0OKeB5BqmyAJLD1HngqIe+NICGh2JDfbNvwfB+uV6idf1AZWCr3c8x5N2PM5HUFTCyeMwOXn/QpJBGpD4A4aP9vXowbzzkRux/9dWzysf3M4UZq58877XR85fvfGzTQi+YvwL4f2RW+P4BJXUWM6/TQ0ZQg54RyroJCqay74VvnKN/UWsvBR2EVUVBBx9jJOPxHf0Cu2IpqaSn+ctnpePFvtze0TLaw5yk/xx9+coLk9jvHTcbuXzoPt1w4BXB5zgJQrSzBtp8+Ba88+xf0LnpTIvnPHPEL/OGSQ/UmTLqfzBDHTUSXRHNs8JTm0NNbwqyZKUZ15TGq04bnVLHTft/BBlvvAy/XhKA6gCt+cDBmvPJPdI7Kw3dibLPLiZj3xrN4418PY/+Tr8MdvzwBR3z3Piyc/TLuvfbb2GT7A7HBVnvLXsz24XXn7I2e+a+v8L5Zc+NPY/u9T8ElJ+2MI8+8BTefewr2PvlccJ6f+vO1ePnRO3HYj36Pct8SFJrbwHG+98rvY/1tP4NZrz2O1195EGt98BMY1b0uHrrlTHxk39OxybYH4qGbz8A6H/wU7r/pe5i49taYvP4OuO2Xx9bvr1ErUdPlLKOdWKWByluHhmzAhh/ed9AfrjtnH+x30rU1gMk/DvTOx22XTsFH9jsNd139dUmh7HrUz3DDTw9A96QPYN+TrsHcGc/gqXsvl+utLCjgd/n5Zlg8LpSr3djZtTfbFZ846Ez5G5mLB67/Lv71xG21+95gq71QbBuDJ+/+pfzOcT3sfMiPcf/13zVrlKxgnwCdI753v9w3WY//WqbgvOPWTuW8dPKYIoDSvOrgvuXGNQ5ilDS0y6hUpVEZYWXvNaGf/JypppcREmVOOVOHm01eG21RAWX5xSzvZky07WCnfb+NtTf7FGiE/vKbr2DOa09j3c13w477fgthtYxbLjwCvYtmCt24+cePkUvdd/3peO2F++UrNt72c9jm01/GzFcexZ1Xf0V+N3m97bHzQT/GojlTcfMlR2DC2ltj58+eCdcv4NlHfofH7/oF/FwT9jnhKrS0T8C//nEzHrr9bLhuEbsd8QuMWW0jvDH1b7jn999GFIXS3W29TT+NnfY9DQ/e9AN0jl8Xm2zzWdx0wcFYNGeaeVRVeutL/3vsmY/VhoGb4s4rT0b7mMnY/dhL8epzd+P2y48brJBuRCnDN7yvq7AbLWrjtnxLeiWjxo1qWbveDHHQjX6w1v6+XgowaNNrz33zrEJbGtq/8fEbKHql7o0wzxQUSFSt6jVQKs8IiQ46DlMklUTAAPP0KmJTp06HS0aB3y0rin7D6ASyBAC7AuqhPxSlM/+trYAtggC/fuAP4lSbCAXqyKlcdz0eL0zxIu9V2gLVGIvqQISgP0YSkrz2TCUDo24FBPLKKv5SJsL5C23+s9Xuh2HX406XtwSVEs7efzPDdiTYdr8pSKIQT9x+NRKEOPGS++EXmmRI6TzmzZyOHx63L3541Z1wCSZT4LG/PYxTT/gyxk7oxjV/+qNZbSnO+PqpuO8v9yC1A/iw0dbkYWwX0N0OtOcdKRyICZQIVtgNkekZEV2oaO+Uq58XCpivR/5wER669lw1BTbw5V89iZ8dubnM9Tpb7oxdj/thjRjLFVrwx4u+gZcevkOe28vl4DYVRPC3/9euwLVnHyDnLGy318kolRZi1mtP4uP7fh/Xnrs7LFA/oJoART0cRE/0IdpyOZJf2+CR0Vn6R3s8kFnY8wuX4cbzD4ft5LDLoWdjjQ23E8zp+Qq8b73kaLR2TZS9++gfSVN/Cvff+H0snjddxm2vz1+Bh2//CRa8+YLeQ5Tl9tXm1UBhLcFEMKi9J5JAdS5rbvJJfPTgb+AXx31MUgNTfn4Hrjr1QHz00FMw7amH0LdoLlbfZEt0r74Bxqy+PuKwirsu+x5mvPgwmru7cPx5f8Ml39oCUTiAzT82BZt/9FjkmzpQGVgizvQvV5+Cietug8nrb4/bLj1G5iwhKK7pMfTfywY/cu+Cu4cB6rUP1M/qGLTRsx8Gffyt1zritPvg5Zvk3UzX3HXVKdhyl+OFLZAtFFbxq9N2NNYqxVa7fgFBeSmeeeAqmafDTrsbhZZOYdEqAz1YMPOFfwsUMH3QNW4d+b5p/7xT0gfZ68Bv3Iprf6RpKwKa9bbcQ/6tDJmNu6/+Gqb98y/yOwIIghe+mGq66fyDcdCpt+O2i4/Fxw88A7liy38MFNRtsJmPrOuoCZatc45YK/XkxDOzuUgVNrY1NdORDYzSiVwwItOtV81IFMXfibXVpitCgTIK08/UxVjclNw3KvDSfKtcteGagvezY1jM12dUrSV5s0NPuxv9S+YIAqP455ZfHI6Dv/0nBJUBmRBSNn+87AQc/K07BOHlim1ynd/88OPY5tNfwXof2k2o3RkvPYhbLjsa23/ma9hspyPhuD7mv/kCbrzwIEz5/mPiQSgK8XLN+PPVX8akdbfDxh8+AEvmz0DHmDXwh0tPRMfo9fHRfb6A+bNewJgJG+Mv135DAENr50Qc8tXbJSq5+3ffQLFlFLbb/Wu48GsfQBSUzXM1lpopmPry+a9I7mzGCw9gzU0+LlHK3//8c+x+zMV49fl7cPuvjjOepI7ua+w2wZrMzRAb1jDjempew9+Ns9Qbati8Wa5eLmgibZkv1sxnfXGzz2SaCQMQs2vVLmcWzFCgpREoNF5OEYBoAGr3RqcUWeL8w1IsgAAxI3IuN5OPl+9cUf4zu1EadK5brSqU78+ZZj7EMfzugGlqA3J5b3YiokWmIAgm+M3VPrYgJmuhAKG+ZxoBbs3mDPkPgoKtdj8cfYvmIU1iXPn/DkfX+NXR3tktz0tXl6QhemZPQ7lvEcqhg9m9Fv71ZoWWSdZYlechWC4+uOWWOPbLX8AXD2YOvz7H3z77LDzxyCO467bbde7NdV07RGdzijUn5NHdCviI4HmuCA7jxIIjcxYiiQN89XfTREsQxxEWvTkNf7nsNKy+8TaDdAhxGGDW1KeX/8DyV+63FIedcSN+e9pnJbUwYf0P4JNHnoEwrGDOa0/ioVvOkZx5UA2ROA7yUknCNRkCFEpGsZZj2h2w0qUCHDn+nldE9xobi6AwjakrcVDpX4JFs6dLQMSzIsReDVGSuM/xV+GBP3wftu3gE587S0RijMDzLR24+aIj5TuVusj2gVZCSIwlJ0paQMRDqxKE/dS7AF6+BSdecg/OPWxrOJ6PI86+Tkok/XwRt13wTcyd/oIAU8excegZ1wlbcM/l30cYVWH5Fpy8DS9PFiwQHQFnSQO8GKMnro+ehTOww57fRs+CNzV9wH1vqmos2f/cX8PyoW8/V7KUTbpL9u3g4K1mTmqK3Lqdz76VaaTmtrH46P6n4/Zffr6h2sPCgV+/Fdf+eC+0j1kdzW3dDfeTYvGcaYNEn/mmdtEULJ7zytvf9zDvIChgWoKvvsWzcPdvv4nxa25eD2Sk62cVc2doSuOdvDJNQeN7Dzjl+v8MKDCxuinZMcU1popHJsSCddZnV09dn1EOu5DRANJZcFFltbIZWszo2hpfZ/KlhvalqlvKeGiZ1Qhp+KPRFEGC9EXnz1JqlPVGV3T94c98CVvscpw4ZObCHvrDGdjt2Ivx0E0/wPpb7SMR+BN3Xigbi+ray7+1rQhAiC4PPvUONLd3487fnIw9T7gCD974A5DSGTNpE1z9g53h+kXMe/M5fO5rN2PspE1x5Rk7Y8e9ToXj5TFp3W3x2r8UFOx8wJny/etttjsWzH4J1567l+Qely6ZjQ/v8gVs8bHjcO8N38GHP/kl5IvtuPg7W+KEM57E84/dhvYxa2LM+DXw6zM/huO+9xhmvfYP3HTRIdjlwB9jvc0+A8fN4e7rvon5M5/DuDU+JEKqvab8GpPW206ef+bUR3HzJUfVmJYvnzsVYXUAf7zyC9jtyIsxb+bzeOr+K7D70Rfj1Rfuw+2/+jz2O+G3kssiYHn5qdtxz3Xfwu5HX4TJ6+0o40QnMvPlh3HrpUerncoC9Gw3NtgCVWI3IkezhBtsnM6rvkdz5fUNrmGFWXEUqmX9AzKgV7MO9a1RE+E1frdQ50ynm2vVjJaJBBMHacCTAGPp/Z+wLl/leXr/mTEfZJzeydbVPLdcy4gHM1V4zXiZQgdJI8haZ+RPtizWuJBDIIcMMXDV0wolfSElcipHzA4o0jMKVuRleieIjCKElURIbReJ40t9fjW2MXdxBfN6Y/RWLJR4SqLcUgzbptLenEOQMlrVlkP1gvVsT6v0XUaeFRkc6yRBsRBhzCgPa7b4aCqk8Atshcy/K2MjfB6rKbjm+JwGv8kzDtM8SdZQlo5pGAZN09QjVK4jjlnCygUyMqxaKCZKaLopBsoeZs+rYPQoG63NzSj39yMKbbS2ks3gUY6BlF3SkfPm+NzlSpVkD/J+XhiGarUi67lYaILr8ulZ2jmcozRMGf+eMWZm3ZOtkW3A1AVBKpkrrk/ee47jQoEpUBkIkVS5eghCEqy79cfRt2g+5kx7rj4StWpIXVfSjVrAQUNxBvUxHuC3eLCLNLGcE4JPs4aZlkoSrLfZnpjxz7+htHQhnLwl2g2OaZaiqgOgurpqaPFhdnvc3/rvbL4yJ6P9NxrXdfZDdu0hApXshG5dFMuUgTZg+4y+MGZnRXbPyHuXnZMMvJlAW+I4jYCss/ZbgyGQ0HWeLBgaNjr2RpWdpgkyOkxtZl2lrdNOA0CmINtQipKFCZBFSubAAAYJvXgDhlkAcOT3HhCq7qn7f4VFs6di5suP4qjvP4hZ0x7H6NU2ktwdwQJXTEvHeFzxbXWm2+35dWyxyxS8+OhNkhb4zDEX4i9XfxUf2P4gcb43/eJgEYxssOVe2OUQUn0v4vfn7y+01BobfRR7HHuZYQqOqY3aSee+gvkzn8fvzt1b1veYiRth3xOvFrbhmnOoejq1AAAgAElEQVT2wJQfPIY4CXHJtz6E4898Gm9O/wfaOlcT6vbXZ3wKx//wYfQseh1/ve1M7H7UpXjmb1djsx2PxN3XfQMvPH5j7Xu+dM7LqJR68fzfr8NrLz2IuTOeVuV3muKkc6cPWsf3XP9tlPoXYY+jLsGrL9yLOTOexnaf+Soev/tCtI9eA+ts+in88TcnYrcjL8LsV/+B+W++iA/ueJgIs17/11+zHdxwzYbNKfbPOCn5d9bopXEDG0qcgjNJqYdCIdd57/pOleVWAwWGhxxqV2ZrSrwQHa02/6kVFBpVudoZVhPYotqPyQ6wuoxAU0L5urHK6PjhNR/DmwdlwQzIyFoFZ0FfTX9PHUEGao0m3xgyihIpXBOtAcvyJTdpVPtkm4Q1M+hsuc1xhrpHUyKYxrBZeujYKCc2FpUSzF2SYElfjN4yIbcPx0rgkTqPY6QEDXJGkRoB3dYNHJxJ4WSYUdM1pN0DKWkk0HccR0SRbU0pJo720N0WodmNkPd9WLaPKInhIpAOiAIMZHyUcZRVMchJNMzWUKBAwCzPYrARJ5E4Q7lzI9jk9W0/hp2rILZ9WH4z5i+qoBKGGD3ex9wZJbQ0+xg7rgmWXYbtlIC4RdgUKUu0cliyOMb8eQH8nCNnPvBG29o8tLVrWSfTEpYERkO9GnoX1P2dSb0acWoIhCX2m6CYUsWriRUhDm0kTDEktmY3zF4fdkWa7JqCp1RAgevYiO1IxKm8Nm2qnQfcFgcO2WoyIPx97Mj5GAGP0w5T2NSxONpp0m+2kXpMp2nFBtNBWQVNDagJuBlm4hr4nxookKBwOU2ts7M2BvOQ+uiN+CtbNBkpnC2A2iDpflquoHv4LT7yFxlvk/aTzamDn+1ZsbU/2n9tsRdSyOMmeqCJZ7qA0TCy81gtAMsMmukax6iIiyEmriB0Z6mXmU0uNFFu8yv1wBY9elXrf7NmI2QlOM2jJ26ETx5+HjrHrS30zW9O/5jkYJrbxsB2XLz63L2YsPZWErlQBHTbJVOkHOeTR/wUs6c9gdsuPgYT1t0aex5/Be674TRRLndP3hTXnLM7mlrHYM8plwmouObHuyEMVKTHUqA9CQpefBC3Mko3ry//fLqAgmt/vKcwEAd/84/yl1suPgrzXn8Wx57xdxFPXfL/NsPxP3wGzz56J0aNWx2dYybi/G98HN+44HHMef1pyTUVW0bjjamPyP288PgNePDWMxBU+uR6m+1wpOQASYvNfu1JXH/B/mpMkxRf+dl0ASFXnb0LDvn6n5AkEe65/lvY46hf4tUX7pEUyfqb74lbLj1SSo522ONU/PXWs7D+Fnth1Pj1ZJx6F7+Ja8/bW65TN86Gwpc5qDt9DayX0ZKYv4sToUGVlJArBspiLbd0pKsbjlpwNYQtGbyJa7G38RrZoiQZzu/Qdr0asVIfYItTIiBIAs3dspqAYj1pjmNi8IYzhQ1YGc6oLd821EoOBxlFo0fQUDALjGQdk+pmSaFGyPVji6000PdJ9Kt9DupdBYeLRIe7N03DifBRiLccFvYnmD6nhIUDNoIg1R4FHBNpNGQiQTkNsWH0a8chN45NwxwK46H0kJ0WkPOqKBZjhCUXi6spcl6KjqKN7lYPY9ocdLTE8L0ISeIbJ0faXp2NpA+XV/UzDCjIOidG0qHQkfElMBFbw2g4pl2i+DGFRVvlAVNfD7C4P8Tqk3OYNInahgiWE4pz5IxIGtOhUya9UUS5BCxa2Itis4f2dh8Oq05k3VWRIoBDbcdQ+XQGPvJUkqtSwJOBrshHVImk6iUlQxDbwgYQ2UTUvLAnRcySUwMIhJFQ3dTYNTfC3FdfQHPHaNFmLJ6rosXa+RKceZPO4vPSYTvSkClFZEWwfMDN6dqIQ36XxSpM/T7bQfuosfALeSyc9zLcog2/2YPl6VqpweqGJSGWfli2BMgX2tHSOR5RtYIl817VtISxF4PJofo6z+KNjGCsLY2spHTZ8VbKqGYjMnRJUK5uZuX29wgyyPZlNjd1fZD0azl7/7VkeGn4xVFneipT5kXKTmgrzwakXEt4Bskn11qCssUold+8oBhxIKwmiChTsC3pHscNXa2GcD0X+YIL2+GpLoH0S+fkHvqde/DKU3/CpA12lLTA7364J9bbajds8ckpMoc3nHcA9j/p9/KdD/3hTMx//Tnsd/LvhSJfNPtf8p6nH7gSOx/yI1E6UxhYLS/FrZccg8+ecoM4m4Xmfcztz5/1kjAFex13BWa8+ABuvbgBFFzwqoCCGy84GFPO+LuovxfPmyaK6pef+iO6xq6NDbfaB/PefF5qqS/5/lcxauwk7Dfli3j5mUew3qbb4eE//QST1t4GHWPWguPlpJ6ZrMBvz/k0+nvniSU59Ot/xrOPXIuP7kMlahW/+NomEkWwtv7kS16RnNPLT9yO9bfeE/098/Dgzd/H7kdfKqCA7MNeU36DmVP/hqbWbnR0r4nfnv0pHPjVWwVg3HPtqbJJWb8bC4+9LCI3W6OGzM0Wy0LGmt/mvNLbsdFMDmmaF3GX7VSNvf83N2YmNuRXJLboBKKQjpaUL0vsbBH0ZU1+aGZJWNerBsTk18CBRqUaqQ5p1N+BRRiURqg9XsYiKKgVICD0rDrQWhmhaUms5AdBsnhIA7iYSjBTsRxafchblJJFOhiyEVVx/qFlo7+aojqQYEl/iMVlYGklRTWWL5URkJGQlIDer0yvYxgOaeRkxG8ZtKKzYcQveski2pqrWG9tBwgiLFxsYfFAiJ4BPYGxs8XGpDHA6Dag4BfgUWjJCFvy91nfvRUFP7xzHeuUZaSWg0q1gpzvIo5CYSZsNiqiltAOpRETGZp5vRwDC2uv7aLQRBBhA26AxCnARsU4bp0Gm8DCZnMn3qprykH5ldSncGj5maGZAgV4usYEHNPuMVUQAdVeik8jYbBcR3tiSNMmmVAD5hKWQapmJWPAvnT5Q2gbMwHUXNx56XfR0tWNh2/8JY792W3wC0Xc9OOTsP83L8C5h38Yx1/4F6nSmDfjJdx9xffQOW51PP/QrSi0dqG/ZxEcpwDPL6Dc32POxojh53zsdPDX0DVhLdxy3hcRxmXse8pFWHPTj0hZ3BP3XCQBxrXn7SXjTt3TQN8CbLjF3iKqfvnpO7Dz586WlOVh37wLLR0TREzNQHDJvOlS9VBz8MsBEo1Nqd5ijwQBZTapQacQc35MOpKi30ymYYKBd7CdR97ylhFoBAXcBBQ3U3/DlRrDOmv/NcWLawTDNxi1tilBksXraO6KaDp1EmlVyn+L4XZ8UGTfu2QASxawHpwAAaiUYwQB4LquvJcd1kgLuq6NfFOM9i4L7V0+HI9wFtj3S9dgwjpbS0LykVsvxoO//zHGrb0xjvzhn9C3ZDZ+9Z3tpFY4V2zHhSdvhM0+egR22Ptbgx73pp8dhJbOidj5kLMQVEvSOKJr/LrY5bBzBr3vhvMPwOzXnsIaG34Ee0xhk5IHcetl9XKdL583VYSGt19xPI4+/aFBn33mr1fj0Tt/hs9++QZ0jFkTzzx6J84+6TgpZ/vuJTdg7Y0/hNkznsVNFx+IJKwgTT1R/u593BW4+/en4sXHbqqt/KNPewjN7eO0XvUXh4oIi133KEQ69dpXa9/b3zMfN5x7GDrHT8aenycouFeqD7be+QvYcpcTlUW49huY9syd2Ovzv8Zq62pqha+XHrsJd1311fozDEkJ0lI2bMjs3bLBtWyOkVG1QvaBYC5F1+i8NP2pK01rH9J1lGkPljESgzgC8x7S3OzoF/WbaC1huWBGaZJJ0sw1XZs4YzJSDo2qUrG1ckFGtxKhNiYp37lNGJTjNtFyhpG06506AK5vagU0YmmI/rMouzYUGs3qkGulv6RIamTtO7+3jA1JUgtMe3tm6EO6L4lYbUSJiyX9MV6d1Y+esqN6A4aLcQLX0TGNyGhYgCv7l8BegbuyLkp3E/vH7gDstAl5J8IH1m9Cq8d7r6AaO5jfZ2PmvAgLegJx2l1tLjYcV0FHG5kFzpSyBVkz3hV5SnGfFh0nmy46CMIU/aV+dLQXxZmLDYpTeJ6FiGdEMK9OFgF5WE4vb1xSD6nDfg0O8u0hEteH6zLCN8c5ZyJoWWcEChJS10rR9OaHPmdikIiQNH3ZQrk/QnUghsP+GNwxcjgVEKcMgqgF0Aoa0S/G7DbJKeE9017GOOBbF+HJO6/Fp4//Af76+wvQNno85r72Ejbc7tOY8dzjmLj+B7H2h3bEuYdvg1GrrYnDz7wWd156GvY46af40yWn4sWH7sCxP7sTraPGCUPzyhP348YffamW0jjxortw75U/RN/i+djr5F/giq98BmFSwVE/uhnPPHQVPn7wDyTaJ6u4+UePwbjJm+GOX5+AnQ/8EcZO/iBuuOBzOOa7D+PGCw+WNbTVLifiyQevwId2PApL5k/HQ7eeVU+71Vi7xiDEgFHR4RgALVNhzuQwQFrshrAN2gGUQKuyxEJsKuNE9+Zp+tLN8d//ZkCyogvzPfJ+aVduMghpmCCs8Dh2EgKWBGHWWfsRFCg1qgBYm60kNY5HUwRKlXEStVc5Tz+znATlAFi8COhZxH1kqFyTG86UtzqWmQPR2m5GFU1NBXR1h2hucpFGkRwPa6eepiDMPdGoOr4Nr2DD8njjUf3vtb7fJirkV2iyrp7IbFTPc6Obk+T08BtdVEKJUyxmFp86JP7Bke8kNczo1bZpXOhAKUzKIbGqmD/PwdQXA9howaS1IrS2Oig2V+X55PnZPtWKEZRS9AyE6BzFvnpstKJVFylPvqNDJLMSKJ3I6KeWj5XSL3UqBGeWG4uhcUgVuqZXuyC8FF3j18YhX/szfs80RArsNeUKvDH1UdxxxYma722gawc1bJI1QgqcJXhE5nQWVGHzQBkL/YtTLJhD1sFCyKN10wiFYh4dY110jYvg+qaCJMlpQYJbVodgAIjmLHUNhBbHinlMF2COtaKiQfoufdDlbHTjwAhGayLHFdyo2RqvJbplWdbzoVn0lq1XmQcyAyx9NMxAfRxNeeNyKPIVvL3h325z36hjp8hQ6O3UQ2yHMh+plYdtDSB1XTw1jQ6b+fIEIaPSNBVQIHFATIdtoWi5qFgxjwCSEkTGtVXw5wRFunXHhYMKXBdYf80mtDU7EMSKohyYtGhxgKVLyygWqaNL0Va0xHF7LFtM2dvAzGPNt5qgw/xaLQlfegaBple4bfmzAp2l/TyrwkMxF6CpyAOPfDh2jJDOIlQnziOfWQFhiE2tVjKcvlyTrIDDElPtQSGyJ+5hGj+xDeawK0nNEDBpBK+CfO4KBcUaOHEODGMUuAiXshkV6Xq9jpuGSFIfvX0JStVUWNEkqaCj3UculyhYILCNTPdKbaOBD33yc9h6jyNQHejHk3deg47u1WTOttv/BDiOiznTnkfrqLE474htcPS5t+CxW36NzXbeDw9e91N0jFsNLz58O475yZ0IKmXRNS14/RXccMYXZSdt+JFPYdt9jjUpId1eL/z1NkxYdzPMnvpPjF/3g5jz2lPSCOma7+6DY376AG6/6ERM/sC2KFcW4/WXHoTtehLsUSe12Y5H4IM7HI6nHvgV1tjwo8oU3HZ2AwIwTAoFw9ynMjTLiNRl3jMby71nmn05XH2AHbtISjaqfSGiIFsp9eO4xMz77IDpwi4w2CS94yrmEz/VmAbNUhDqF5Rg4NoxW01slNG3ZSX1RjPEdVhvo63VcpkrE5b8nYiFa1GFMW1Ka5rARbV2Yt1l2WlHTqOiqdnMuqgzMw91OleSP1lQT18Rsq0707v6jJqyb6BgzM9spBZWUqmAoT5LKwVVY1AHBbUT3czg1U4l4ybL6rIM/ndiRGmC/r4US5bEqFSzUsJMXLRMzliupdCExkLU2qzvdhy4Top8zkHOt1DIufB9C7YXikGzaPgErDAfqPXjVB9Lv/ras5q4Sx4o+73+UWgn4131zvW+BqvLOdfMuzUsACN2k5lyedpcE3p6WI4FNLWQJdEKimpoY94coK8vQl+vhY5OD54Vo3tChGITQwTm4bkGmH9vweL5MTo7Y1iRI+WGpBEROkgjbiBD+RrNRQ2ocfZMoxvSpBLZ0TFQDGpHcrgP9WyMRoptHfjcN29C++jVhMWZ8+qT0i9h0dxpgrDFmerMDyqxUREpwQvHjIfDEBDwxh3EgY2e+VUsmBsgClx4PseJoMFG+5gUrV0+8k0ELqFG6RzLGn2fzYmCPOnDT0AUsUabpXp68I/FHLEY36F9ot5XdnCRNg6qv1YiWqgRHMtS2xlI1BSYpAZkx2b55qFaHNerFlYZABjiQipl4H7geirpnuQJf6jAo3jNahaanM78H9MCzO+14NoppH9TkppIOTsTwRYgICDAMqAgtVBlR0CLJyUyKLAxqg3wfR+TxnnwfYHniBKyMRbCSogkCDC63YPLtSg3xvnNdCrZOtMUhYG1Zu0Zs8eUiFQ7Me1gnK/FgyqA1CUfxKOYc3AtgoxQomumHFPLR6mcolSiEyY2ttHaZCMnxz68dT0IA2LSonT6IoJ1NKKX0xr5HwEO3Ff6P+4tvi/rNmCOsJBDk6JSiqCvioR2T9gG3Tdp6iOMbCzurWKgzAoNamFCFPLaIbKl1UZzszmsqUp9gYPRa6yPbfY6Bmtsui1ee/YRudaSuTPw8PUXYNfPnymswdQn7sP2+x0voIDR3MHfuxIvP343Jm+4FZ594EbMeOZhmeOdDjxZtAhP/eVGVHmoVppIqtb1Ymz28f0watJ6uOfKMwzDBuz0uZORa2pD/5L5GLvmerj53K/gpF89hp9N2RYpBrDh9p9BvqkZuaYmrL7hDrjt8mOxz4m/xazpj0valGuQPRv+KqAge2Woz/SOqPmxxnmp7zupeuKWjjmXtB05hAMJKj2hCIvrskKznmQeOX8p8s2sRGF6hjoRTc9I+lpS0tnerd9Zo382GaD6eqxXuxshruG5arYi2+e836wM6e12vLkHeXSzBySV18CkMnwSF9ZQtZGVXxuwnDl1HcEaqjZMkJaD8nyXUCqyEhPANGqYjC6wFmlq+k9UAFLCXQ/Z5RuEKVgmnaMbnGe0EzkzElEnYNsaxZerEZb2AP39FkJzVKsgcqk2qA/AshuUzieLWLU/AV+sLdYyKde24Hkx2jpctLZ7sGI6mqzyQQeDVCEZCk6+wxPQ8ozmibgJNGI9WNWUuOmDZY+c5akIMAxEoBGjAWDuLzbHsgrINOEhUb1TQu9CH7NnAm0dHkZ1x8jlWMjtIYw8PPdMCeUSo7AUza0x2poTTF4jpw5SWuj6iOMKyv0+5s+KMG40YIVurYOdRNFiVARCGqOqhlXBCyN3OupM1MSN0gi+TL6NdowGjs/mUnxlwc0RRZkyOPGl5iS5xrVqaF4qzqWMlOmfkGBDFefzZ5bQM4/14CocI4WrSNxBrqmKQouF7kk+vJwnBitNy7Clh0FjmZuuCalMrXqIyhGqlcBQ1aopkYYqw/l3ma7BN61CxIa5fbv9Wfv7EECgAUgrGEiE4tWvrMuZsjTFO/6qVfhGeVIxer4cYlSqOgjJFKAEByFSqwArIVj38OIsiu5i+HRqolBXoR7nQMeZbJXFTwlT4Fl6IHGYJoitFPnUEeX/mFYCdxdrTCrCp3Ph4VLpAIA8wihGqb8fLcUc2tpsWHEgwjcGbbq1tTKEdiETZmY2LQvktAxWy5fDIEUYhsgXPHiiE6ggcQiWyViwIVHEwkQJFlhemcJDEEaoVEN4vosCwbGJ8NQA1xeTlKtmVQy1EyeN1ZP9bvL7TKM4/J/NR5Q0KZtRKVFAIBQh7EsRDqRwUqZZNC3KDpcURfb2OghjiH2MTXgnazsm8xcjX6hi1CgfrS2sbtAILaLwSlgStSFj11wfxY42vPHcI5jy83vx7H1/UECVpvj7rb+WHgYHnv5L6QnRvcaG+Pstv5Q+/WPX2kg1EikQJjYe/dMteP3l59HVXoDvRNhs530xds0NcO9vzjT71MbWe0zBqNXWQbmvB4WmVrz0yJ+Ra27Hs/fdIk7X8iI4PtAyqgu7HnWWpBQyAevkdbfFZjsdY9IHZ9QEk4P28Fu2mpkT+Y85tVPeY8pmAwdBT4hggINj2pKz9NZMJ+0bp0ara7XM0y9aYut0urXSTYjtWpmzTnzNLzWchiofkflnirJuS/T7skoh/lBnNbJotG5/ht7k2dpWQ55hAhMc13+hWyLrGSIm0/ieQSy4OcgrK7vO2DdZQ5YAgaBiIn5x8rXQz9xc3cDx2bK+pPr8WcNB4Wj0fs7eb823SEMU2HBj6tnn3CQ0LtQIDJRC9PUnqAw4iKiulXawumn0tSxLkA2aRnuNi0Y3qjY7skgDMEKJqmhp8zB6dFFKijyKS1h2I2+ulzFKW1g7gZt34BYdqb0Vel1SD8YJZVELF0g2yKZEUihj0yshYxQypkWNhDY7SdIq3nwjh9lv2Ghpi7HmejnkcyqypIGdO9fGG6+XkUQe2tpcNLemmDDBhcccZlSVvBhTDwvmWli4KMJakz24NBLSPo9OlouYUYkaLnpO3QPa7IbG0nZo1PlYKrCiCZe6a5O/UxBjDJtlIZJni+HnHTnwh/+Dr8flSoVIo8nMKqxYJsU8fUoQaCOo5DF/Zoz5s8tI2YlPeFfzPXKbOhfN7SkmrW8j1+QIYIuTPmUDOH6ku+mUqD2rJIjCGGmVz54BNLMRs00zjPhOmQyNCOmwRWHPxjODyhFXxAPrCGTIW+lrdZiicDdGROjnGkWYNe2qO5talcKKfPW/9d4IdlpEKQnwxrwEPfTPdoIg4pyzV2Ikkf38SoxqFCFHUBCpKFOYMBHJmXUnHQx0raleQyuQ4pTljJzvFOPbdSBWX60oaymxckhQQhr5SNkbYWAAdmxLKZ8IktMUOaafkgRBGIizlP2bBUaGycvWLedA2SMH1WqMSjlAS2tRkmtC4/McB85z6uu9s89JbBgvAcENvVIzEDqEDaLCvqaZMqr1QdGaaXUtBjHzDWS0iW2pN5CaD0/yriJ4lRMsKXjllXkPLpb0VNDTo8dmyWplg6cohed4iA3jRIEkU6VNBQe+l8BnftxiCaGhyKXEVnMXvJKUSwprbQB1BlKp62IpoehnjGjRlOlVAxc9/QkW9QQiehzd0YTmPIFNiKaWHByH65wBgI2QnT+ZMpRgjukOByHFnEbNR1aWgkw4sThgt2DDyTEo02qOQeVspopC79ikcI3TFVurTsXcL8dTQaMEQ/Q1FMz2Boj6VNeiOgxl7DONEEEB51xtoU6WTdDGdcExcV1he1KHz2dsqfgcjjOBmYn+mUqLCTYMI6qK0zojLjQ+F5eyLdoyxez7Wgg9GHguu631mHHpH2n+ZNLJQjJojwvxP5Kn0tRVhh7UMvH7tTy33hBQ0wxZyTPXYlzmOtMeGFKmKtVFWXfiIYyN3L+EzvWkZ+3R1HcLKJDpUl66no8xR5GyTjmOPQz0p+jtqaBU5kbhgtSSJ2mWwQtR2GNEijpfZnkYB623V6cxGhXeOjm8Jr8rQC6Xork5JwupvTWHvE/iUg2E9qLPDDMjm1gbeBTpAMkJkipU5CiNTwgeTGtWuQMTMSsqcqVEyaED58KiQ5S8kVKzVuIhTit4bXqEGVJ1E2GDjX10j0vgUZAdFFEJUyxZXEHvYg9jJ8ZoacnBwgDifgdOZCMNKACzMWtmgJ5Kig3W8VBkH36K62qlSQyvuHx475xYD2EIVMjI9AYirmpqclEsupQRSCiWOUez+s3o6uJlVE+FuqRihDVgV1dPjwp2ybJwZxmUzHElJZxqa1du9KAcY+GcEIvmuogDOnuKC011igwtzSGjJbqhKsasZmPMai5yzTSaEWy7SfJ8LB9MiGBZqMAOgOSyZSNkKSlF/PLbuq99y0rOUKvUy/NIYFHgM4pVo7iirwwOiB+RoxAUDGjKcDADUUfMZsPU1vWyYdCK3sUKvl/SWyGcpIiqG2LqmyGWliBrgkf+VuIQVpVd+lg6mKBajWSKo2W0JI3fOmgPqhFQkMAIOAoxebQr7N3qEzzkc4xA6RAoAnTQ3xcgDJku0py+jUCcXWezD9cxoMB24MphUiblVdu6dHlZNYdqCOR8iFQFhGQoE/ioBlV4bix19GKH5GhoPm9s2hZz0VBbweZMejz04JfOUUKbIM+XLTIjYjVBmW4eM59mwqn7EddsDKzjMLpnWoUVJQTnmgalBqcaepg1a8CwpvWolOyB7+UQkRqnk089BfNSvRMgn7fR2UktCIGYVmgJu+J48r1MrWasighsDTjgPmCgkP0ffxZxdyVGT0+C/jIwwHxxkqCl4CHHdKcVomtUs7AUSFmNoRoiMqQaWus1JBdtxoogn8wJgQH7LHDuHd8Fm90JC2mcsYy9iVDrY9m4oU0CyeTLZUVQaMnvZ4OnwEaVB4UNRHAtFYpKoCSeUyCicR/SUkfZHJvsomoH5PuZXqZ9SBmgULNmbLqsC72EBF60XVFgbBADFI67tifnulJWnMw1jaacva0HpGV6gtq9NK6nt+5lDThNd19xRqZEn2xcFCOKVNhH4b0wU/wOeRmNAfXBQYyADdoirr1GgKiVRCqBIIBXJCtlsgKCGDBnx8APvjcKnaUqygyKHqVu5AGm4Zt11r5rpOIkDCiQxcJ8eeQIkiyVE5RKkdRBJ6KY1Q0lZ7RLIKF5H6ljF1o7iwyGAgX1h86oTEGpctY5857anY1tU1mOVI0sdI/Jo6M5RYFtZk0nNkkTSDTDyFSFi0wp2C4Ps/GEXpIxYXAr4iLVM9Dp2cytSwtUioBc9PcNoLnFlDkJjeUhjvIo9TESjREnNp57bgBRlBfmoqszxbobdMCx+7G0txkvPr8Y4ye1Ct3JvuZhr4W25kiinZyjDECU5jHt1RiL+4H114owmjXC5jBeaTnKDnU0fBZztg6qAbB0aYDe3nUdHBcAACAASURBVDKimKmIBPkc85EOimw+kkvgMXXSgF51+hTU9bENQxyhpYmdqGJUwwBxmiKfd+VaRNMUb1o5bgYFCD3zU8yf04+w4mp+KqCuQzdNXYRa3xtM3Yg4U/QeNjrGWBg1zkWONDP3PHvGBDy4yXS+k8XLiVFjRWcuR/Iaxy73P4yoQIRnEdE/nVWEXD4v4EAiqZUo7ZMIlU2GGlgBRZHZBqobId07Gk//J1889JcIy4nyCPwKXpmdoK9iSxTIQ3xEbhDZGCjZmFdKUa5whTuIJK331mYvou3KmM1l+vEQTHO9TOwiLW9hnfEO8l4IKhjixJUW/7MXVNFbcsC2EaTMRxVsdLW66Gi24Ls652GU5U/Vuen6NHQph1OcIA2ucsKaKgwR2SFKpSL6llbR3Z2Db4WoVNm9sIpqAjQVXBQo2TGsIJ+0Rn02+CJlALNAIJtczTZrKtMENJJyVM9RY38Es2RMljof3bOk6hjnCuQSRqCvz8HcuSFCUggGaGbeXAy++T6FxPLgteiXAspiwUZ7C5lSnpCZSIt2sgt8PkkJmpSmAgPGBNrIiGdtSIfGcoq+vhhlpuWiBLGkNvXbyNSwvJIMRqHooLPdRTNtiKuiuyBgWSfTIB76SxU0NRG4KDNLkCI6LkYiBGriGNXGsLWyU7ClcRL1H4NlgA1haAMPreCfYECZw7DEM0T0eHPVg+tx3bpWsl4gDSWzog0ha6ppTN6OwzJpAWoJosRC/0CIpiY+qw83R8EJ7ZMJPgybLdd2cgjKFnoXhhjoi9He6aHY7CBH4SKFq8Kq8WwNzp6K9nQuJRFvGigtzyZk8n7NalAfERMEBUxNal8Tvliu7xoBrMpylIli9E/hPVlm7Z6a8ZrZkQB1DKFgQFkY4f3MqatZMiKzW8qOmZRBPadimgySuTGBzzd3WSMtFCgg04GLIgsl1j33xFK+pLnVRgWnwGpB52pFFYmJYr4BqWdNNxrTCY2RSc3AmhpULgFHKBtVrQcsrxoI0N4C6aRWpBgx58BnS2bmyeMEPhXF0lNcyxoFOYrRUZaA6FFoTQqImCOUBUKURUrfw9KliaRDuroc5Atat2yhgKWLYsx8raSsgeugt88VR8vxbG2JMXoUMK67gDAN8fqMspRiRpEP104wbnSIieOaJUr23Uic7qJ+G8+/XEY1yWHyuAomdjko+Jw/tjllvpToEQK+lvaFKAvK54Y3gpaM7GZkYico5D20tDhobbHhyVhwIRNda7S1YKmeBTC6g1FIgEqZGwZoaSaxL24cKReAK+XnCAILs2cFCKgPqbVJVetWAwSGaFYZoVJeNIxckIwcRQDqVtHa5mJUJ/PPWoKqVJW2u5Vow6Rx6tUPddpMG/8QuXMTKs1NzUnEyLS/jEolEBW9n8uhWg0EZRcKKXI50stmQQvlaBS8klc04akERKqIluhA2IGG7ZKhbWPE6t3mlHlaCUJiFWMI5rDZ099j0Qamzg4xfykpbhc5i+ctqJCzHKQYqFZRlnYBjNojOaJYRJMSZeuRxYk4RO451XNwv/A30naB/GySoOBF8N0UE7p8tOUttDVRvMjzA4DepYG0Uq4CKFVitORdFF2eleCgmFPak0wCDSAdmNCwxsFJoyDpF8A5aDRkBCOR9MTq67MEFHSNyqFAbAtXRI7zF4bI5Wy0tfjw6Bi4cUwiTUoRDYCTXH6tBFGLWsVIKq2pHTmzNFijQNsUUnLOmUrJjHGW+lSin86Cu0gasWBJT4IFCzimJijNGAlhXkxqQGy6JhtU86RNuvi8zUVg3Jg8HKsiAmSez0AHwiVJ+ybMiLBjrow1GVmWk5KJqAYxKnSwAR0HAX4q+4W/58OSLRR2UXrJhJK2IAgp5B3kWC7Oj0gKysWcuSV0dTWj2BTUAldJiNiQdKjqpBQ4ERxJaXqeugut+mIQkQVgWcM6BWsZ+nQFAPDo8IinhXIhM1ioJULVWzRCWN2HHActKeVzi0BdgnhlmGW/244cAV4ux/J8nkfbb1hjApscT0F1pYyVdrY8kGJpT4z+pYzEed8BWts8NLd64ie4bhkUZydv0nGTvS42OXBYbSVaO02VKYjJqggytl1Bb8KeKwRB1ONEmhrR8Cdjqww7IU6UDLICagECYs9NvxPjg7MD3ijK1BWlzf+0rNj4AOnhkaVPMpBlwIDYQRUs14HcMmzCEZuuljY32yg2U5kcoFpl9EzENhwta9CzmT6JQkyEOjjHOihrsRwDqYaIN+kKvUQHZqMU0hHHaC6kaM67sBgZOhY8phLo0Bj5FlzJZ3osVZSB8E1v+ayM0qQx6JBIL9lEZTwWN0UldvHK9AH09dlYYw0Xo8bQ4FVgJQUsmgvMep3lVw7KQYz+wBLqlIe9UOHcUvTQwlarPqGqh2rVR6VclXLE1mbW17LrWoSxo4sS4U6fFeLVuVrh0N2eYp1JBTTnE1QrIfpLrMcGwjBGiQelBJrP0jVGBE0DljlILi4V07DOvLPdR3sbWQNS9j4GyjYW9VTRU47hJjwqlg6zAituQjUMpYd9wfNhua40liqVY/T0BigNcJNn1Rf1cpmGBudDzp+W7KgDliYyPDTKAzraXXR2cJEqItZul5xjo1IfghGQtcOFba7DsstqkGCgHyiHbHyVolKmwWTnPAgo4OE8+VyCluYCfHZ0Y6lmVmImAjYt7VSKNCsp1HM4ln1l67gmSMpSambD1VmEVezr3+HlRHFNvQh1GXYBby6q4I1FVfRWHASxBZ8aDhcoRw4cYdL4yHmjx1GszehfUmnaElGNj9FlaLqfDAqdLFM8rDmuioixrZXMFstTU0nltTYz0oyRJ0C3HfT1DcDPFdDsJOhsdeF5kTaFplJfL2cCCGUMpLEQ01xS6kmKnVR9gkqlinzRk86MzIcLG+TYAv5UyEwDqyWzQg8LsFPHTfaJmhNGt9IFke8VVbqyFXasaQ5l7ti+uSx7iAhEgJAhBtTtsZW0pg+EvTC2TgTBGvYroLIdKT1csCBAvxEbG1hQ18UuJy2miirqLgJMGNeE5oIlJ6tGsSsOSXq65LiPEinD7BtIsbi3ooxtapogiWnQ8RSLa6WIIgfVUPvIcD+SuRGTKZ5Ac9TsJUFNQ1OeNstGNbHx2owKWlpzGDc2gid0twn0eKw42cVMSyBjYILCGothNE1eCttLJMjk2sgCG1l5IduUxwir1Iaw4kR9hIzpMs1U5VfG1XD/cq8TRHJ8pJejy2uTPdSUa5y6WNoXoWdpiPY2D01FCmhVqMqUQuKQyYkwMJCgr4e0PIGd5uAlZ5+lDqUaRQNTYWUMMU87l8tbKDYBTe02mlpcFFlKz+CFKSZhiTgHrqTCWF0VsyV7RAE9tQ4OQjmzJIv6M+GSMY2cEQYtrEgzpBYdv6SUaRWNRkEDHjM4MveNrj0T2fNx6L9U+yLuXz6mgCU7f2U402Md9oHJqecqJU0BCqNGUknD07LL5IpqdE/9GOXsMRv42GFNH80zyXwRuthqyOkE2JmtEgDFXIrWoidHh0jOH+yHrm1umTvp6PDlf45lcmGkPgXF19GbWXOSxyHtHVsRyrGN2fMt9PRYGNVpoWtMjFETHZQXxnhzWoLSgFJmpWqEgdBGYNA5U2nNpC8doH/ARmzZcAsRopjJcxe+iAdDaeTS1pzDkp4BvLkwQiVtFvq3JRdjtTFFFFxggNEvc+2CCg0ykk2rkbg6KtNgpXZOgBl/Kd9J0dwEtLc7Uiq4ZCkwb16ISpIgZ/voHgN0ttPwUtdQkYitWraldp2lU5UyELBGVVKqhhVQq2csuaFfhzFsERe8HCAjy0+jH4QSXXaPKUr5ZpIMSKpH27s69bTuW1ZEZnApdOIm97FkcRU9vRUpf3Xl4J+MfqZqm+kDrVwgjUtQkMuzkxyBkKs6ETHeiWwo7eVttAzLPE+dwcpqmTNAnKXAGo57fodOfFW/TQ2nLbwiu+URCHCPLC1FWDLgYHZPCWFCHoi2iamdBK506CNDQ4NqSXWCAAt23DMtesVgGovMfCOjbwKACigq7Ed3k4f1JgFNbopFFRd9AxHKVUZRmiPlHPi+jbwfoC2foptluYykhAOlyJRpSD1dMU7IdOmMEaT0BXq2QXOxKCfPlcpltLQ2S/pJK5IUvAkQNhGrpv3IOqgOJNNZM3rOyp2l+ZFJh5Lt5Jj4FoFNILamXGaYGaFQ4JA6qFQiVCohcvmcPItE5ia/L87HBEhC48ve5H3TTvpYuDBGz1KmCU0gVds/72QF8M0EOWV0deTR2pJDNQgxMBBKpM874VomaAqjCP1M4zItYL5DxcgcTROlmrMthCkItfxUbDt1GrXbMRQyo2wW7zkE8TlUImD+QlLzIVabALTmcrWKIGHYyGl6ZGaNjsek7bIrM7ImQIsJJOQAKkawml4WopD3KZoI7kVdOwpEM5FdpsWoj1sGCjj8XDfCDljKqnJtyDq3HGE7Fy7uR2L5qATaG6GjnWlc7gMPvb0RevsCYZr0PvndtB16PRUDch6yU2CzI9Y1Ha7HbxshOAGjm0qatL0rRb7IDr2WMLbcP3EQaTffgGlqLQH3PLIPFkJhgbRyTCqxdLPW2ShxhgQy9TNglBAg2NXgi+uO96tVOzwfRKtW9Gc9TkCZGYJa2Wmmr49ZJ5Lezyr/hl6j1mEfXD0lYiZqZBkSN4hUAmQXH8J4139lKFu58ZUEBeYoT1FIC63toK+cYClRFukvO0YrnTDpaUO/aQRII8BFHWLM6AJamhmVlASdZvnLbPClrp/qbI+kV4RKYOOV1ysohT4GKjFyVoKJkzyMGuVg4ZwK+pfQiLLki01IEgyETGewk1okAsOmvI32InOcNnoHQpNAcWClbK5CcFMWap+LpBJ46GXrWemCHiFvp2jJ28hLWT71FFmv/EyXoWpibf6jDloRt+qB+HDS34ANYthyJvXg8nCaJhpaH/PmlWC7PP2NIs1EInbqA5qafeQLOSxYUEXPYkYjehIeS87YFMayKianW9eE1HoDDKMCVFCQif2ofmWpJUPDSISRza1EuAHyOVcOz+H4GbQ2xGo0oiGbLXw9LO11MX9+WWuXhe1im1sFS6TyNF8sIyjr1vfonHLyrLoWSQFWxfB3tjdBeklRnGg7Up2hYLvu9PUX9bJI7elg9BQNedF3YurfjfdIPCyH11B4pw1/II2mWAtv4Yk5Kd5YkKDJ5tySgvdFOa8SXRt2HCMnVTyM/ZmmqwrHGHEMpSUv17c67YhqBHHKVeQ9H+tOcjCuOYTHCN+AR5a9LSmlmL0oENq2NWdjVEuCrnZPnZBoZYBKiZ1N6YDzJvTT6FsEoz73CiNlljKyURHTexq9SfWBCSE1ulEAQMCfAQudw8zIqgnMoqCURjF2sHhJP4I4RUuhCN/X5jh9fZqqbGmVUAO9vRX09VWlmRp7CjDK9SmuFTtqqjekv46K26QQx0rRtzTFwoWpgCzIOQvaAvudv3jPBDl0FnS6rPCKRIsh5d8UhBnmQ6hlo98hYKl9kSkDV2CrNDKZVm4DAiKCAvZIUC1//eZ05WuPALIJJVZ/BHl4ToTx3Snai0ZvYfaIJh3Z8c5UIdUOvtOn1SDMwtKl3Hu2aMCk8juz2lJlYvyE2DY5YlP7R9SqfQaPnH61+ZRoCbRJFAEgS+H7+gNJXQaxg0UsxXF98R9xNUH36AKKuQiVUgVlahcST5lDKcnN1peCANlKFo8INmnHbKyy2Ih6ipjPo6lQeZeU+dJ+h/BzMVpbfbQUfTgERmysRWGq4UFoZ/VstASOZ5gtk1bgPKumg6JVLauQqWTH1NrjGyG6iP5thGSipceHAno5LItsjmhQDBtnTuDkwWYMuwnmCIS0bcDyF6l16KYT0xzVpC4V78xRMVIzAqEhVrfW0+umyF6ZE641e6ktk3ewQxi9mG5rHBBusN5yin4qihwbThSipWCjmaIWszDVPOiQ83ctLS66Oj1xAFInXTuNURelLCw21XEoiooRRE148ZUe9Aw4sFwfY9oStLVbqPSHCCscZAIj0voeSkEi90LDwm/MsxMj83EIwLQdDSjBC+l55jRzXg6IKyLm4fdWYg9LSzEqMSlVFyyQyDkJCj4FWbpQsmfRiETpImnmIzoBpgZILXGTU1TJCIDOPIFn58A2NMxv2W6IlCmEARUDSu91u4pCjmkRC/k8kWOE0kAkKFZFPWyMxK/kzlSeV1NXet5FdmLjMESBlKRSBa3Ll6BIdzjpTlEPs5bYttBU9DB2DLvdse2ziXjfsrZ0PrXEzsbCRQl6e9inQvtl6GE1qviWMlkq213qDZhjjQWc+J4vte50LmS7mJ/1vVjoxJYmCiBVRUwRa+PGyMBB3WhmgrPhnvydm/1V9k6TA9ROasoGyHhIR8IALy/O4fUFkTQdLBMX2UDRNz0guJ4FTFoYqIawfQcFgle2H5fonQaD4IJzprV+YTUwBtAWlXwuH6PNt1HwqRlwUPBSFClydFPpFxAmLWhvStg9wDR9Yr6VeW+lYbMxDkNW07ioVqtInJywg3SIbGDGSEe7WxuwJhayzkQpc6ZCxaykV/Qhsme4frU6iVQyWbAKmZQlJYQp7zmHXC6S81vY+IjLm+uSY9I/ECAIWCJI9jGRPHxrM5mNFKEIUrW9ssjMpFyOzjRCf3+CgQHmQ8gtlGAndCwrsmZEwKGllazHl8XCPcS9y/VuavRNK20R1FGbUbPBWV+YumPm/qNYmZE/7QTnWMSG0l9ED1VaFrkQ6FQiPqsH37EwpiuVxlUiY2QPCzorXjfW6N/12OFQU4LSiE40QPrks+Zxz7oYRfYWpCtUT6BgzrRMl0Zm5sRcMRnZ3n4rKMg0TI60UFHVPZms/v4U8+ZTAE7Q6wm7XAp4nLiW3jKYZEqtKcdzdgiUOJbqNxQ4ZkyU+gdT6WzGJ4vHMh5D7ZgSWBqMSKDGczPAplpVFIoWxnQ2S8DHyh2dRwM+5Nhvg4l5novF9G2KKFC2U507WTymx1RTICcMa/wPhwerWT56+2PMX1yRIgCLgnjjk1S0raAynyMod9GUr4A4nFoQBZeqUxCAXat0GNo6WYdvNjHNsZadtH2ForFl1I3LfG5oUKCfyUq66kv0HYCCTB6sXJPUXLN0byBkzo4DkqKt4IgYR3gjczKYMKkUnQgzkKCpCIzqKiBHYSGRHRtSyELVxkSprTkWHupDUc3M+VXMXciNmENrIZamIJ5VkGNnedgPaa4yhSthgkrERi+6KFjuXyAwyCUYKANVibhNt77UVedkxyh6pOxToUhL7NEuXeJYohWh6ENTInLMKe9Tz6HXnJQidKWMdFGJ2yUYMFQWx5kb3ZfNSrVxIOiRIIaUplB3EtTR8JNR0QUZhTxyV09p40bXJ+KG5il3HH7TRImH4hBZmjzucFUBTEGIEIro1OStRD1NBG16T8h1kyq6R/vo6qzFFEOsRrZQZh+MWCpeSJVq4x2lDYk7mEuVjmWcWwGu1DHoUb98j+ezzjoQh8FqEdlYaagn+7XnpVUuaeNshBtvIkvV0AHw88yhSr5zUFpllbn4lbuQAeLaHdSsEubIrQBO1Iz+qIpnXk+wpJyiJVfFuKYmTBhFfckAIqsZbyyi6JXjkaCrxUUb2SOXKqiq9v1nY6TYxoIlVby+uAzbLyCfxuhuttFUsDCTte9wUaoGIlQb3WxjfLsHJ43QVwHGMI3F0zNFyOSJo9OD0syBVea/pFODMMG8JUz5WGguEngQi/DI5gg2a645S0Y1buJQAxA0tSMlWQQyYt+pO1BDXqqwWipBH+niiHbNRch9JfKCAIkI0rg5AgE4Qmcz6nO1oycNOtcHjSkjbQYDBOPcR1wSIiyTsg3VKEn6RdIyXOiZo6xNTy0NN/SEK9hVUbY6T7JB2WFbNPQ1wXb2d0kN1a/WKN7OCD2C6qoRiUsJnwgstZyPz0C2U86+EI2GSLwlPVrhSZsW0NECjO9mylZFnLQFUklJ8XBWEVGz29pPRYLbJMHUN0IBZeNHeWjyY9G36Mxo5UTWOTZjIY1RrgUkjeOkaXSzzllZ5jItRP2Vhd7eVPRQTL2GMUENUGa7eK3UA5vesnKGTlqqyER/YKrssmhcWFpTeGdYWGEijEPWoEwBAxlgj0yFlOErDI3jMnw/j0gcX4Sudh8drVy71IK5qmlhZSQrxcTu6jGXTGNL+kB6NGj7bD0fSI9d1y6D2tJcVHaxi56lVdGLDQScTTYR1M/K4V4Zq2+O2OYYMvgs5DwUco6AeoovKTIV/cPbAFfr/xP3HmCTVVXW8Kpcb+hMQ5ODCiiIBEUJSpB/HFCUJIJiHB0jhjFiHBVQEcNgQMwwigEdRDGPYBwRaBAQRJHcNKHzmyv/z1prn1v1dlc13Q0zX83jaHdXuPfcc3ZYe+21X/qkHTtDw4ay2XXAGZxJvKffRh4cFJjF3I1CI/N7GPMnkohqg45iWQtTUMDaEDcw5XRHCpgzxA1MFTzyHbhYdev0h+MolZk5NzBnOI/584dEKCQxUAI30eecLzSVDa0d6+DB1RyQWsL49CQqhRLq0ww8yNZlUz3bg8rabJMkANZaaKgW4cVm4CEn2yEB0XdM+JPlgjJFPjpAuVOQsNKa2ozKFYXOENqc6kYnVWxhwXAVFd4wSwHqluhlyptwyc1CEqLLBqyz52RMmQGQPMQyBj9eo9ogytqE7Vw9y9hZBuJGE7GIgYcgMMKV3OQNVIYC0muT3MWIn2iEtcrdC9y/nS090gZJbbKDbuHxoYvvFKTqTLbTboicts3WQ2qlzFhYPXuDv712XUM12jZIN2cwxL50lkfMBrZgkoMQRddi/nqiIrNP9pLXa3QsPHz8jMc9F3OshVKJsqN2Nq5bIsfKwbCtVeUCErwYGDdRrZZ1mG3wUzCzZb780foUt4Hum+TNhBy0WmgWgOHmKCYLY1h6hxrlsPWiPB54oINF8/N43GLuozL+ctckKkPDEiV6YO0M5o2WsGReUQEuH+S66RbuuL+GB9YVsf1WJcyfm8e990yLYU6ZbA5FGqmUsW7tOixZPKLzUsoRbSpg+aoctl5A9IsZGc80F41iSyQvegXcgeDMjEHpNMsFbXIk6Ly9xsViJbJIlwJExYu6Ofe9yhLynkacZqYZeHTUo5/PVzAx3cK6MWdq5DHwW5pt2w0G3zU5D2bnTYxWzL2QrHciySu7caBpUiLVCttC2xQnimsQPf1ykCaTFXJVQckOJDc9KFDSokDDgZ47b8IWKAmwwI6DA5aPrJSaVHFF08tmmtiBNdo51dl5DuxYiY4RPqcAcEvoDtFhfo6lNy7mZF2nTd9P2H2HbYoYZmdB1KUZFLB9Ttkvz1uuKFvEVlFyGFiumJqu4941RUzXG5g/1MB2C0uYP6csrYqk6a/v4zUptnNWnzLq9VFtcw4CNRL0TmQrL72cdWN8rkXUm03UWxbwypWG1E1Wp4hWvoO51QJGq5w14U4B+gu2USeWf7dcGETDeAZM5mgHNTwsWu6LRaNiaotXoEI+jblZJIbyWkeqLSxakMdcJR8mTrfFb7FNJJJMm7l69bhl4ueNSIip3a6Ly6JkSqxX6xpw383UG3hwdQHjlNZmeUqkbXZx1aIll/7aZ8dYtpdX/WhEWfnbHRL2gblz+UzN0xtQEfbnX7H/zh0rFrIn0loDCkI2qTjm6DYTTwhlOD3KTC44Hqx4Jm4HdJbXU9cN6VHe8MRMC2PTrNP5QLPHdoTZxFARZSW2PBA9uWuQUFTfCXb1vLlFLN66KmIRCU/MOiSRWnCtbeXaDpataGKMrPsWD3tLdbfRSh4VWSdyCBpYNwXU2F/KDr8gAhK9oHEg/M81m5oh+TFIL2KtdqQkRx4Eo+p10w3UWsyc+GeyTwltsYMBGGavtcQTLZXaiEFIaTq14oWI8HmGiOTkCmXpDhDC5SZqNNqCaJNVs6Za0IoiLkulsRSmWUuCXQve6J4850PKA2F4jKugObJd9EKPLKLlnFsZiYyo1pcsP2u83LYBXcrWthwscXb94q1KmJmqi7leKjdco82VMFNv4f4HW6ixly5BaoQrub9YXgplMUtU0zkwIGQ5iAQfZ3L8YQaY4hTqhqLFVcQb1+HY0lgpd6xHX3EZYXqKdXHDmypFFHKYM1rVoecUO8Jx4kowgxCK0FXicwcGN350VqjGHTB4pvL5aIUFs7/Hz5M91y0U63MwjSn86S4KwOSw/05DuG3FJHLtNqbac1DpzKDDUUf5cTx+O0Ljo7iP5Cw0se2CKibGgdtXNNAZymHPbYtYMtzCVLOD6+5oSqWQZajHLcnh1vvzmGjUsMu8gloVk4DNQ6s6GBnhuWBQzAdQRTNHpTPPw7CxC5MVZ8noWNIwCLsg7Qpn4n5bguNd0iEXgGS2GXJ9phomllE6qUYH5/IjSwH8uSqn6hVoWAmhu11xmrBti0GIy3fqQAjHmyZFqvuHpGbpoPD8uw6tzD2gfJdPI2XXHmC5z1lxLz7avfreQCHavDMTvvn7w9mhz31yYCbQG5nZAKNNJRcmLOKQsVXR/CWuB9uRiXpw75YKbcwZKWDuiGvw0w3KZ9NEFcQBUYJRKKDO7qkJl1Gpo1FvtjFFk4sOhtj6WCyiWsxh7kgR8+dR84LlByc8tC+Sgpa6oMdZs+zH2Qcik/PaNPSLAQ07bmgHOPOijdVrplDTNGzm5OwAaWGSUAEh9Siz0v7OpXIk0acmyy4s+ZiUZwfqRUrbi1aOto+7iW6Qe8nWzqeMVo10CqIsCXll8YD3zOSRwS7t6XA1j9HhAkZIYqXHL+QwPVPD9AyHeg1j2QOe2cGrKAkCNUGQWhDS0Mu3Ua4QZaNdooy3u/HCW8ZGWT/5Tvsn7Tb/uWvvu5oX3OO0vdUqu7ZImieyza0bLdq0+y/bb6eOsy5DF3boqQ3n4TZrQF5p1sCAoCC7vNQ2o+eRiCdedmaZITDGQwAAIABJREFUYlRPt0Tso3Sos047r6FSTv9hsGqH1Z1uaogsslJqoVVo1Jn9mnlONgIZ7DzIPEATtQJWUaFxoiFfVi07U67wP+oeYDhBLoHbvaTXEFKlihHJmK5acKXe4MwFbiTC+CR0uDOBWQgzozFKzrKuqno70QTCkB2MVvgdrI6pO1xZCaN1ch6IRAiqTIwI1X6ByWmenrIkZKn85i1u1r8JV0mWc8OWu+6TTMOpAhIrkuzl9eOqysmyjighmTRTPv1rfItDeEzPcDOTKKaqXBw46ytoLVxudWZLzYiS+R8tEtPmDksuWkFNg3rxDaxZl7QNXLMT0uMUUofHZBm3YqmmRyiR3EXWgbVghii5a/j71jxwJqJSiAIQiigZdiMxx3MOxMN2ptZhiQWo8KZI0ePAoDLrfsDw0JCCBDoaM4CJukTdUBYmaPWRDD0cTPdwp2tT/50qe6XWMCbbk7jqzg7mV0vYbzvgzvEcqsUi1k2MY9XqAuqlHOYPF7H3diUU85Not4Zxx8oZ3DfOOSNt7LhVHTttU0I1X8RUO4d7VsxgxYNl7LoNMI0GhosFLF9ZR6FSxsIhYOetqbBJrYIpTEwwcCpg3twWSkTzYo6CpMslyNLt2adjTfEB7/Ho//gTnrybakvrvZbhOyccjtsjEHU46Mx03boWxnh+WWqgkh0hWT6xXE6trAwYqxre1UStzj1qw1pjUMB9wE4LGnmKcLlAZxQm5oPwahvkFEhC2sFLQjS4MyRCF63R5i0JRsjIlGnPZrnubHvdw2lZ7x824aE74TKCSESGNo32Iax3329IoUrCI4nwsVOH90H7VSNSEEIL+Rz1KYASSYtNlkiZ7dovWGKCHS0+X1KxZfDEcVz1hgIE8VzytNkcEEdH2tS8mHIpL0E1crJKlE6O+QLug3DNv9UgR6uOItvMaR3F6syjRsR22m3bvNYE7fN3yftiYKAOEMHyTRHTR8jbCjVL3jdDDsWmKbmRH4rwqQWhwbTDKSCwTXUQkYJCEfpiBoPtrd9vm+mAih08DEjZ+s0FzhdK6pbivJA1nO6t/CESZyFPrv3TGZETpbKZEGiWftlR1BsEbMIG8RWH1VwvPNQfGcIZbV4wr4RFC6lnwrKrW8tVPvBhcK1ky4OCVJNO39GNhrNoy1hWd6ET0EGkpVDCZK2NdWy7kWyp6OJRZ+cGJTkPGKrm3ZOtW7bzS0FCd7yzF9ytiz6ndUmyuj7I0sR4ncERIRvOKXBGwaBgSFrtOdTaHUxQfrPhz6SBeeLC5Toxkc3z6X0gk3qar284hnRM1TvqXDBCEtF9qylBlnlDJVQjU2nlSUhsC74mKqJar4IITw9kYDExxdpYEQ1ls3a4FJPhfTpbTXMTBhma1HEdq0enTVZvjiURZxhUQqPzFXrAiS1ZtBydknqGhMVI5DL6QgNCB5uOmIMCfi8zeDNqZUDzHGrDaV4kH1ZQLNbRpP665myYlCYBDmVmrBdbqMSZhZnPzOTdksagwUQwOW61F6Tgzcad6QUPINGF3Q48HDvu/gTs+cR9sd3Ou2AOozJ0MHH/fXjo3tvxj7/egGW33ozbb7xVin2OOk2GYnS91c5HYP+DdpQWAu9XGU8QKx+6+VtYtiwOYbTSZSN2yyPY/8hj+xvq1gRuuuJyGfX0Gt39mdh9t8UbvH/6vhvx15tu6W8RmEGjhLWtKfzptg52WTCExy+ewap2EStW5TDRaGPb+Tncs6qJVZNF7L5NCdvNn8HyVUWMT1dQHq6pTWm4UMDWczX7GvevbmG62MDa1UXsviSHnZ9+MkbZj9tuoFqpaM3nj9KxFlUWY6ZJct/oCKdeNlEbW4l1K5dh+V13W/I6JHplXxLhS0vWwdH/cfXAoODbz3s6blelwOI5DL7XjTcwPs5So4M+9c/HMBxe/TRJyh22SZo7MF2jE3KkRqel0gadvNAyc2z0H3ZFqCRljg9bORmIUyWQ5Dq5FWokxJ7nEbdID7+b5T2PpXb2mQy598X6cG2X6Lr5QYHOmfgPvB+z8bUjZ5UtZm8Vc2O6yYOCbPks/77QlWgH0KwZBcR0HSm3t5tRAJUFTu5/V5mFZcwmFS9t9xmjV0sMPvkbLONyYiedNG1jGwvmlLBwLmd1WjuiEUEBRYVInOaUWdblmTTM1FqYmOAeo11xAKbkoM0snZo2bZWFdK0s8VIlkA6aPIAYFKewTyT0SB5TrSICBP89n3sMZwsuhcnfvXiPZeJZCmA7do1DuWbqyvqJPmrLaZCfmAWoc01UBjLKaEQpyjKiBbh0pFJX6NWk8pRQhEyWfwPs52GjA4e7/T8ncmerhTnDBSxZUsXQMEfaC/IxUqAoKs14TgswcK/2LlAvUjA4KNBWitTeftHZZJRdLFWMgkoHE5wwJna4M0CJQQhGb4sgxRHLw3JClvjkGyXlH1GniXQmaai1r9MUAY0qgYSR6EimGhAaIfhKt+AsYLjUUXRJR0QYjJk7YWWhBCo6BpSk6FdHPboBoi86TAGNzQhJTMiLqEhIy0pgqa2MkWQecxgxU4KUDjFXxtiUA4x5lD4ta0tJ+5uGbobXPMPsxQ6P10soj7VOr4Qhzo2p76UNkqAoGzCHbIyo+eLvp0iYa96PQCqSjfgNzjS4n9UOE12UKXpmHZ/XyDXWcykSigRq087Ei0XyN0h4LCqTF0Nd3RWh4EY4URFfaJ5L79y4Hp8xgzXWTx2kOVMT90AkDWYzVWy33xF47Tmfwk4Lqw97iPiGxsSD+MN/fhJX/uxXuG/5agfLnQ72f95FOP39z+j7Hdd8Zldc/lMPqKLxKyqwiZ72+Tvg/d/4Td/Ptet34xOnHolpygLGa4cTLsQrXnHoBu9f9ouP4Kvnfbnv90hytwOsbEzj2r8DT1hSxm6L21jd6uDOuwqYu7CMHRbN4K5lHdy7lvIB1jielytil23zWDSvrjau1VMVPDDORpQ6tl/QQXV+BTff3sauS9o48dPX47C952/SGva+qV1fiesu/hiuuvKnWLOWKqGGuLNaspCCa/CUAUjBt449FLcnpbYOMDFNglkNjQaFxFkGaSigV/mImW2LU1zdDUP1U5IoySHQ9mD2z2yUe0Yt0ES6jIqJXR6tkjzuzKJZlx+n2E6bZbKipIFV7ujklBTwzMjKKGvnmfAZ4HfJHCdyQYYcdVfmkQQFKpPSkTYNX3MdbAWSvka/xxSnPlo4RV9W9cH99RbqcXeAeBYBmWeYbuK2JlKbmPdOcgy5s0Mr2UqWZoqolozKibxNgh1r4iRWo445w0UsnF/VzAxzmRooFCuYnmJwxomSRA06mv9CJI+1+zTUiJwKoyUkGOaEFDSVWHhYkIiRUuu0XVd5e5bb8lpEihZlGKNXDh6sbqtgMwbnZc61J7qTmmyHCad1K3i/Tq5op0lodZBES67SSKGgVvRUukj4vp6Byjt8DrxedoqlLjoHmo/aK0pLmpeh+6TCJQd0AQvnsrMuh9zL999Z16igIFYq9QT3v5beCwwVqxQKZz2QszkFclmhApZUrgjjERJSqwunPXWYBRjeF0og/0svapjYTs+QU0EENLfV0WfQwQ5XDLlbBpMkIw9XIiw1NFyRFnxL8xtyGJ8GJhgUiKRIl1vT9yVIn79GWWPWHwnn08l5opevyS1EZFmTkBe9n5ENsAe+yDnmNEhsSWzG8ArVsHhfdrSs045Q9KVA/JuBCksnZtfOqRQwoj5fhr9kT7MWyi4IMld9kF3jYs0sB+kHRXaipGVgUJkOcUDdMs4pbmVfttfamZPFpLiOipYjsjYKYMiSREtuKr5PQxjjhwnpEnJltC6ggARHlkRKFNxpa2AT4bVyiW2c1B+woIYHHqXOAj4fdzWYm5aGwyQkiroUzBSMQrAVh+aJLYoyHrkinvKGL+G1Lzlsi87T/Ze+GO8963c6rDQ0T3ruRXjTB/p/1zWf3QM/vJy/3pCIkuIrDvghYWQzg4Lt9vk0Xnn2hsjC3y59O77zFY/RXf8lVcJWHg9M1XDTXR08aceClAXvXc2STEMqmtsumIe/Lm/g3tXjmDfMDpUc1o23scPiAvZYwuFfBSxfXceD5HtUy1jIIVzz8vjH3R3stG0Hz/2P6/DMJ25+UJBda3MlLn3vc/GXWx7sSkbH7IKjz7t2I0HBYbi1FV0FM01MT4eUK+vJZMOTM1Rso6xzaI4JA+h2izaAG6eubiOroNJ5yF2o9EYkSJP3QiGUdoN7ikF3tcBhayWMTTe1x4aqFeQ7TSF5JPBWCuTjeIIe/XIiBGv8eyqnhf2yeZx9KB9RUKAkjqRJ20vzfpywDHz1OsVA+7rDxJI4V4LLfe7smXq+N9kW/lUEWdZFaMsBMkjRLBeJ/eRUBi1TblhfEePpVaqmHecsFp7tFvIqMTU182FmhnB7SwlgkxNiRer2s+WrLQE7z2ZgMjHB5I18klQaiMCEmbwknAXrG002OXe9V5AZ1c0SRVAOLOK+SDwU5569yr3RYslOGe67mMJJ/0N7zG+qtwsaoU07SHvUFOeKSSdbt3sCkrDbbkxgucYoqRNI8w1MsH7kry5pM5C1KOFbTKqI0UpdHRQKCnjD7hzw5jKru98KdvuN/ZAcmXqPWRqyW4PpLR+EM9V3sk7PB9nCVD3gJtWAGWGneQpRmyNBSd8dUbd8mTepSCN8UG1KD5tpyvYLskTpiOTMOI1MfaGMJuuS+iThb2waWDdDvQJm5sxmqYhYwEiZkspei7UTZPHS8dFIWGTINQQK9nh6mAyEYO7QF0jkmTb5CfwMBZASdChBU7Q6rIOSMZFX2+L8EZPfVk/UMc44g1lIgQJHJREQSWTjoBXX9dhNYI0CbqySiD8mPkaSLVRBIEY/5xF/57MemUMEBmLIps2oR+9JkMzADSB6fzAoILGGa8c7IuTEVh2Sl6xTzmyBcKJVvtRtIGlydzSMh047s6xyqYYiJ8KJz2hYTlLSlbJqcB4awrKB5ZQ1kIQZGcmmyvgQbVQkDjJzJBuYz7yAA178Gbzuzcdu2Rij+lqcfcg+uJ096TFlcK9jv463fODwvut69Wf2xHf/i9lbHXNHC8jz/DBzYZvaZgYFWz/hHXjNOa/e4HduuOg0XPbdP/b9/TZLQO0q7l09g9se6GDfXTuYaRYkrrNwYRsPrAWKDeCetXWMLhzBftt0MFJq4Z7xYdy2rIbhSh2cx1MpFrD99hXk2nWsXpnHeKOFhyamsdPiOTjuc9fgOfs+gqCAT2f6bnz/Lc/ErcvTRjTP4Oj/GBwUXPycw3DjDLB20jVlTYUrEqqnQ3RZgigBr50SzbQtHKRGkRdmieQUUNyGyYSQJEHklILu4mYsbxjx4vl0tkvUkC1uJAm3eS6oJEnZpzwHBhEmpuPyVEMGDXTQfKlVOIy50SqPqX1UgwLaBKIEGk5oroQgfVvjwYc/EMuUCHSTQJdZk4qqvyIyjVktkCn78IwKQd/BdxJ8Lzagg2gmAlyfYXZjSbnHc1I8t8FOmkEVic7GVWhni5rCy6CALHl2QrDjgfoIbKeWMF0UKX2JBUzUOrLl5LPI9/A/ard2YKLnGsJHjmN6IfXeHDxKMhwSRc0ZJlw0gEpMAkxIKxtOnfehEkYQnWmLE+eCz8f+I7pKAo2uKrnpcfKBwFiN02iB0FkFrRGMRIlns8KCFB9m26F7r0atXRaxdgTjZZeLpXTK8oGDgq7DTzWrLDzr3Wtq0dDq2jknwkSivCZ4JZGJsgU1BM+6MUkhhHy4kahAZYJXdDEIriXEFOHorE4IBy1mzydVu5bqVHOH8pgzRIU/Zp8cGUtDQIa/a0V8EDM1spU7ysinW4T7QgqUxbVODtVCCyNVL9bYFJ0xSUYxy1xxTdJud51b4hExhCULxOWdWXv0/aajqopXSIDy1rhthwodIQIMXMilmIkhSPzUKMltsb6E5Uh6ooGRspbGPJMaZ+JlSMnrqbTX62NefyOlQ9X9e6+0ifJJRdFOmnuRkKlKM5pQZohRRpBcgBiLy2tgRiCGvw4VOQd5sfxVltAGdeY/WWMWVzB5tNxULU5Khan0wbbOMsU9aHRshKwGxlKFD1OjTiPga6HhJvmP9TweqHq9jlzhQHzkt9/DjnNj5sJmnSZg7K8/wJte9OYgkvlcPPG5F+JN7++PFPz2Y7vi699hV0Io+pGfUrKD6czbAR/YaPngCEzVvHt4dwsedyje8KkLN7jiP523F37+y5qfVVjzLBbn3mpXcfsK6gsAe+2Qw8q1NcytVlEeaeHmexltlmWkFw0BeyzhDHryRwpYtga4ZzX3MrDdogK2n9/AAkLnuSpWTbdw630NLF5UwQmfvQYn7v/IggLe1PJfn4Mvf/KLchDsN+c9HPu5a3Dgbov6PKVluOjoI3DNeBNTNe4rZpgun8nF83xSVTNHBT1noOTesE+fGTSzUQbQAiRTHGLN3Ww/8wxzrzHgpPKmUNNmR5LZLP2RE8Tgk6Q7oWHxPcp0SdItOgjhvhY7naiZymm2kVmbWHwwQe6JciBrE9fT22mRaRdkSYW/i4+eUDoREeUiaXZFNqtmQFCQrW4XTehhCYQ9T+UHW4lUYsjMffYdLtEm+89r4YwYseTj55mAcR1YZtEYLq6rJutalI02jlV3loPlMpRQcVy8djiqZa85Ow9UDFDt3YOFyEHSBEe2tbaAdVMNJSoKjpSbWlJZCJCCj5Q4OXE1VOU6P/cS7QqTGyVx1KZoNJT4seuIjjGLkVIUFc9Mcz0YFKrjiX6CCRK7Onx9/C76N967yiN5IsQu+XbJ/ElS2UPELAfghbbgV1jsBJVkF5OBty4DzTo9Lmn5O3otffq6SPBSX2smq++AOYKCpIxlR+//WJAiFV58afFD8Z6MvBK9x2bo++GothuQjK/OmSXr0DTkWjC18m2mxbab8NWotuaWotEqsGiUghvUfAdW1ooSClpYraNIladiERPTDY2bXTvRUleBJSINMXGTs7d1pOq+0vEZwnPBqU8BT/jNjRI4ZrW7pPCpm5WnNixm18NltkCS4QxMkdAoaUu2Q5FU6foUUQXW6xhxqm4ZmzRBY8zEeb/mcHbXf/NXtf8nLNrR5Qyklh2KNhkmdDdFkcRIHfqyepf5iNi2WSTJSMStgshMJIcxy+P3zlHLEMtIFJFyXTdtOTnJGPZhu+c+C/6fWoei/YxTAYsFM5sZ2ZBnsNOLzsbZ73pRf5Sg08LKO27C7X/7G0YX74ytdt4TWy+e33N4GvjDh/4/fPmyO3WIeUaZ3ez93Avx1g/25xT89wd3xfnfpnEBFozQQTWllsepngoK/vPKvotLTsG5L3gGpjkvXUekgzm7HoA3f+a7672/jt986PH47TXWV1B7bASovEBmaPy/2x6s44GJPBaVNSpGAedDYy2Mlt37z1x3dGgaeyypYLzZxsoHKGjVwYJFVXSKM1i5poZabRhbzWtj6zkF5Eod3Hh3C6VqCy84/0Y8/8l9goJ2Dfffcp2mJfIa5u2wF+bNHx24/erLf48zXnSa+uTXTrSRb+dwykXX4NDH9Q8KvvjMI/A/a62uSAIXy0LcA3Lm0kDg82ffvXlRFCZiPzdtj+rZGvkb7VZB8kpsbu43qbgSsi1w/gsB6bxGUFPTgvtshiWqJjPaUtatojcLHm+LEEyFuTVTLGNGS1mRNXU7H5dNswMa1jtQVWrxi4vDM59au42euE3cIiVEqxK8TRvLe0xT8h6tc77539P1BnSKJGPSfsl76P95im21RCVRl26cc/iMc6+7REkOl+0XEUDaFd4bCXvsNlN7akIBckFUbjI5sqgS/TLtOqW2U31A3ViJKxaCTeaMBP4hQjYHFNFeEPGhjkxTxFJyyGhvK+Wi0E+1qw5AX6RNozkkboXmjVs9MnWjOTH0cbUqIksSQrCybN2E+FT9ybgLNuVeK9cvIuhxoODVj70V4Wdy0Fle3vNOvz3KxiHiFF7JPxIdgZLdf+m+u2Soiz9ktnXK7lIw4ADFUZxjSLe20dhzM5DwwgW1/GoShImbEprgermgeE1/8o2lDszN25QhfimdB1puTv8DFgwXJQzE/HBVnXr7OWw90ladi3rU03VgbJooAJ2sZUz5cban5Sk2xO6Dshd/UpMRvQ4ZMeQRBgXpEcvhsSWEqlNl1sbJKYgyRawJW2q4KUWMIhynmhnb8UxVl8JaRJ2aDJgiyY1XFjdvmfVucgbcz82nL+nXIM/44HmAMiE/EwJLbgmjqhazBBIICW1SWKjhAIjPnsZ6pJJXVwkFSATpRnZllrRhPkKRaeRuN9sz6sASBg0kFTml2VBvKZs89szL8PLnH9D3Xq/41Mvwnxf9Si2vbG2i4V24w944+Dn/hP2POhaP2WocZxx9PNZJLzzEYJo5PPHYC/GOM/sjBb/84C44/9vmcvieOKApj7lzcqgs2Q0f+savBgYFnzjlcMw0mE24tl3aYR+88/zvr/f+Mfz8X/fD1cudNibOj4e1tFFcvDv2PuAQVJc8Cdvs8Thst2iO3ldb9wDW3Hsrlt12G25auhS//t1fpCo5Z6iEh1bMyBjusD0wwmmffHztPFaMl7Bsso1Cq4Zt5pZw/+ocKsM1vOiCm3Fsv/JBYyV+cOpTcSsfXoPcmwr2Ou1jeM5xx/Tfa+tuxb8+859RLlQ04pnJx4u/czWO3KNfUHAvznvawbh6mo6DvAdyhEgos/qlMudCBXsccgT22Gdf7PWkvbF4ux2lOdKYWoeH7vgrbrh2KW676krc8vcHAqY2VG1zxu/poMbuIurEUbeDo6FzC3HAsw7Fbnvsicc+6UBsveO2IojNrLofa1c9gGV33YH77x8LPo0hYk5L5HnN1x7CLy+9XGfbcHxmNMLuJx0RBzFO9ilKlOr6DgrEE0lBRSS3/CQFgyhjnJzrFhzoR+kj3QSE5E4GTyQfy05ROjvnVm+uAxM1TUyVLU0BkgMHkTITSblDsqJ9Azs7GGSxHKwGj6ixq31S5SFzv8lnIJrDNeGedweI0Wy1RAevQNR2EQ89k4b6Bm5PZfm5gDL9k4jh5EY4oOHf92K9Gywcy50M0shIlSAX0SRbKRHUJRzHM5HKAuyGcNeCeRaxDwPtyXxNOOneoEB7IgsUuim6dnPiKGRkeF+pFCiVgLkMqnIWSZAxebfLawkoQAhcDrnj99wpeGSGSYolQrsk4tQDlkg8ATMkM8gpAgKy4ckPmJyqoamLcj6X8IYEgSjnjrnt2ezpGKy5JbvUAj9ECtimRgfrIR5zh4xxPDCVE/lw69EgCyqSNZ+A5QOqtJNEaAau5w9wAxBB5Gu66dqXn08XcvMR30irx0aQAn+XoSNFyvo9t/3M0MoJ2tTkc5EnucFIVFQUKmJltLWE+iPfLIcdQXJax9lXuyWr2/1MAkC54XWYQoBKEWXieIRoFMsHrMsyyOGGU1eChomQREQJXUK1AT6R9Vpm5MxAQT2LysQkDsSaYDDBJdVc9L2nPIOBJ7+LwQezNLUDU5aWddZ6E88/92c47bmP73vjX/nXp+K3V9+vGuRMzEsna5hCLvz+ypz5aEyMCd6mBgPLXbU6sM/zLsQZZ/UPCn6hoMCmiKJSnNhpg1fHnJ0eh0//YHD3wadOPUxjwlVn5d7Y5gl411cuU2CbvdoP4tLnHYq/JOsYO7I4Z1s86eQP4OjjnpVptm/sac+suQdXfOk8fO8bl6A6PIxFW9XFS1HraYcDeAgJTaFeL+OOh2pYN0GnWcLuOzZx0uf/jCP7dR8wKHjhwbhV59s6D52hp+P137wI/YoNnbV/xcuP+CdNISTe3kYZL774Khw1ICj45P4H4Zo6yWdEpFqatknHwVr/boc+F//67x/CHjvMeZhN3sZffvBZfPFTX8OyB9dmQRX3MksLSRqXgcfjnnIs3nHe2diJdZYtea24DqceeaL2deTEkeWbvNsVF3MJQEUwsuWTRG2IvNlGJkQooYQ51GqUYQsS0ZZc36P1mYjQGZiq84AOVk4rBkjxLJFoyKCAZRxSvmc5rwyEVjQttUiWRlJ/vj4f7YyBDTNQIlGUpUuWHAnYaOpl3YqGDpit+MqvEzoQ3SBJdI5OmXas3smJSE5OmRMwc0NUBpFiLMnQlKVPHnrDhSPPiz+Qpji6P82OmGiVkrlIcBKyZ5lpkiAzwYRs4J3RgLDe6yEFvX8v7xpZf+ZnBYO4A4OJI5+JOVncX7RvDpQYiKpjlx1/PYlkr+/IHbHzjq4ShNRwml9Og21JUSsRWlHOEY6Fbdijyey77bHCai3rghrZUmawdkA3OhgBJ4X4zkByzIANzM9rvrSG2zhzoHwnuwcWjLI1pIhlYy2VD7YhkimDwtpPHqvHmlg3xYNVsuyqIkcTGtmfy03Dl2Gs/htiS4OCBK0JLtRXByrDiLfpNjz+PaUpqThWKrrcwn+TimO09ymWVsnDw44kPhQjaf2cH82wYMNQI0X7moeuDICO35yLMlUCFaE6UhcxniNcWWMPXW/jCAx83NZFpIlvJMnFsK8DJwsQ5SyvGqURIwg2qFqbFh1LUwOpyLIolSo4/uxL8dLj9uq7e6bvuRLnvPSN+PuqSWUKvDZCvWzJUUgrAgPXlyNSWfLIYaYG7Hf81wcGBT97/y44/zuuKatkUmAA6vnxua22xzd+/Ye+1+KWxMMVFLAXmxMeK1s9Hu+65BeY5eam78AXn3sU7i1SU4Pr2kI7P4Tjzr0ST3zshpoGG7P7jfv+B+8++TSURupWhdRRZEsoOzZM3CNiUMvlsGK8jbtWzOAx2xXxEgYF/boPGivx/VOegr8GosX1nLPzMXjN5y6YfQ9xUVN3/xqvft5LtN6sQTNAf+X3r8OzH98fKTh330NwVd3IIFUV2Sw03ijjyS/7ON79zuMGALv9V6A1fic+ffJz8fs7x12CYFutWuloD4p43DHvwxc/94pH5jZXXIeTDz9ezpCtnchYAAAgAElEQVR2MrUqWvhHhdVoH+ScDttVJmHkxbjDyuUh6d6LdMbgkqgmNQmMFHRB40d2qY/00wpxZgUFGd4dlGSrStLBMuihg/RAr6QV4CBCAXTortAxO+GwxgATNvOa3HHBLg9m8qlNnHMvKY1PvQLB6preaPshRyxpbasHMslSlZHZPeclSFSByYmTDgY2aqvUdEmK5bGVNXEQZq8Wn+RUramZGQEnW08l3iYSqPyKr4MBizhaQl3dGRF1FhO8o7OjX1DAr+xbwkgt4KHE6IDA6Ad9XS8NISsvq/oQXSY9gUdm5Xmph+68S4cX5bItF8msHGIFyVln9QVNzHI9mEGE9AXY4iPpUY2n6dYtBBP5p5Kfshyy6yv6W93U5rdb8FCIhKc6FcEpZrFNdQ8smkP4No/7xowebDPHjFjWxRlhkitAjXcump0O79Uzv3n/xZgNUE8wgZ/IBg9lffQgLWoWMGgfpBr5ekhDInjoQ86A07Q6LxCZ/y4P8LIU9ank4slnbqFiuSNaB6XCmBCMbsXpkR56X553nsV4Zte//BdpSImVC4eGPKteIhjxeQWUKtC7LdNrZ9UvHngeRD4AEkbThuldOx5QQmG6w3wxZF09p4GBAad+STxF42LbeOqbP4OPvOW4gbfP2vSdV3wF73jjOeKPsOZZlQ6+kTAaaCpGclGpDVGr5XDACV8bGBT88Qsvwy+XWkuDe468VQsrldEamo/3f/qTfa+lXb8HHz/lKKxY18TEZFNzGyrl3fC+P/0e2/V+YtWf8ap/ejaKlaL6uzm7Ya8XfRYnnfqszX7E/3Pe6TjrS5dpcFaOmv+YRjE3jFybI7SnJS/LgKZeHEKTQjIciLQQOPlLN+CEfkTDxkp898T98Od6Bfmiy3TPfNelOOqIJ/W9tr9c+D588GPfULste8tXjrXw5p//Gcft1T8o+PiTnq6ggNuHQSSdwc4vPBcffudJUW7avCVorrsDZzz1SNyuoID8A3ICmig/9lBc+otvY2jzzdHsC3joOpx02PEqZzJDs45+iG+pI1k9xQpCpDFAWXQGBXoWMVZa2XJ3lky5TFTTcwZ4zbMI4Jt3+4/eu4PozRObSjAShUpmX06OzpXiZrZjdtR2nOYCphIEa/FMCjyASryqQEP5nSQsWxk11GWjvs6P19iZoJIDe/s9CE86NWFZ+TtGC6hqyQTKiqjUN6hHIswEmL/D58FSEK+KCAE5XSoJDUiyOCtCWXmT8zuorGlny+etEnrYbNmtGAdQkqDb7KAgEZpmJZuzkAIvmPaEvtf+hP+bAZJmt2RlbgdcLSm3xmYOrZUUdPb6rmRnU2CjKZRP234HKRqagWm5TxMI3diW2LKpniuCS8gV2ykbylL3gAX0Ew0xNmDUVRKOEDfbS5HY3MyWgYjq6MJc2frFHUNeQRuLRqnlXMD9E4w0O9h61BrUPIaT0w1MN4sYr9HRppiHM6foZY2WFIk5UCxD/bDhtB+toEAzBWLsq7KCtHbMGDxnwDFBTDdk9qzRFiYg0sBwE3DzVTjVTdO4QqRDRJrUm7gxEZPNswuzEKZsHULwhEtYMPzKjJqs7eoQnw0H4YSkUkTJHupCHxNWI8fuA95HTnMPeMWKJ/h/VENMJYRmS/3MPHzukPGcBJfxLGvaYP+41sbk2M6cY/Dtaz6PxeWN32trZgz3XHclvvC2d2H5tMTUddKYiVeqzJxzGJ9kJlLAk0/8Gt49oHyweSvafTeRgvccfRgeXMPJchUzszXd0xmlXIMMnDPFTr6JeSN5zB8t4KTP/hFPekx/lGBq9XJM1IpYuM3WGSyrX23dj38//GDcsLo7MpnnWeOvhdLYCPLkr+t0sHYte/Xz2HZ+Hi/+6nX9uw86Tay67RZM05CXqhhdsDXmzp/bN4NvPXQd3nHiC7BsjEFjXVM9V04Ab/7pUhz/hP5Bwcf2ORRXc/AWCWkcU9vZD+f+4XvYaT5bULfstebW7+NfjnurNf9p1NstHPjOS/CR1x68wRd2pu7HJ15yMn7z97WYu+QofP5Hn8S8SrKG3bffc81l+MI5X8Gdt9+G2tSEJdmJNLE1TWc2BippwqeDApa/+E0kXfLMeNCXB8Sxd9xdOW1UhjjvpInpGQ5pKs/iD23ZCjwKn4qgQFMLWyzjdaWQPa/ASKZxPXOS+GeioBZeixwh/IUg9ZxJnaz3p3SKs2cqnLaoscJGhaO3XPuVnAKvMbPyNLE1EU1NXk4kRpZ0yBNgUMDvlc4Kk5MiA3gGCcZxUimZJOgqZ7sMaAkkSi4RIHE/AlHnOQjeIBMDd1UHB4ABoOYneM7BpiIFiUWkIICdaCG7b15edIGowyOpL2aeyzbXzM8ssXXHSyS6cW1CpRKZcb/tduioLBDsb+ED0bmRKeXFjXWz+pT5pv9O1bPuZhuUSXff0aWNbfYWDRKlg5PEeGXG18aC0Q6q5TJWT3XQbjSwZA6nY1lMZ93EjBT1qB7IyNBQNRend467/96TrTY8/Jt9rY/gAyolqO3PkSAZ5TQYjDS5sSxDRp0FwvCOPk1GSRF4qtuFI95IVUHcgQS5JbKoSkaDUycFZQVqMdixE+1gGw8dvaLr1Gcbwhzm1ni+NydBsWNADGKSLNsMEtwKKeymQAWaknvGq4bgCJ0ywJuqcYZ5yWUHqYe5/ScJyPD5nfbxy/GK5++zSavfaU7ib1dcios+8XHcdd86zcGoVlleymGSehYN4MknXIh3n71lQkiDLqJVuwtvOeJQjE0UdV/sGUhaH06qvNH5bx5U1daEM44tftv3b8VOizdUabzvJ+/Fa97yn5i3VR67LC5iya6HYLs998HTjn8lWks/g5ef/jXMHa5jZ867L3kiJMNLGtp6q4jV6zpYNUVotIFFo2VMNJqYN1rEaV++Hs/db8tbEifvvQoXvOl03HTHgwp3KPpCA3f/eAdv/NF1OK5vULAMZ+91MK6RoilFXzo45N8vxZtfsF//oGPljfjSRz+LZavrGNnxQLz5A6/rm/nzeZ972JPwm4fYhWTi7Nt/cguOeQLns89+3XP5p/Hy15/rclihgDMuuxZH7rNhMHbP996Ml739h+ISDHGCKUtjpbyElCh1yyBeAX/LkrgiJzZdYmMAQb6EM0ur31FMTcGB9NtCvZMlRgWJW1AeDCcuOJ1QfE+R0T3yqeW6KzyX6GyO620NM4uvTN9k7OlG085v1jvWs/T6sK21UIEgGFr90dkzM3mW0KSZw9IWIfoGeVd5EQ9Vc4+WQyMpLEFF15ba6mPaqer4Wu0Yb21UmyXkVB7m57qDrrpdE0bF3dmQSg4SLJa6rsslJlQSqW1LzTA9J/oZB3wOBOOrMsSUnyK5V9LLPVRRddPF9SpTD80C+yATEymqxXI91zvJWWstsnX3/aaXQvuQafeIZieNbhLwXivkKmSzmQkh0r4x+Nx+25lTkCCdDHZRfTUGEGU/lYCU/plorxN9+KBgk+x13zdZdycgh9R/ob9iJNbEcKWEKXIcyKCeE8pn+QqmZpqYJJGEwjLighmu67Uw7qpIB+SRYolbfo/ZJ6UM6D+RHUuonU+BB0vPjSQd9eOagc/am9c+nPKgetR6l5aCgrQmSpo5Y2AjQQGvQGLMEm9hUOCMiHBhJcoZaaOmgEPtRTEWWnPGxR1whl7lxGSxhzmSmYIlzvxHhi2VTG5FvljCxEwdrQ4JjUZdFBCIpOwMgdfRmfsYvO+bF+OIvZds8kOor7kL/3X2W3D5z5dKIjeJIzGLeMoJJBr2b0nc5B9Y742t2t140+GHYHLShIY2s0VSstRjndrQ9JDlvHhgh6QH0cQ7fvR37LHthk4MrQn84Ttfwn/953ew/J6HsN2OBcwr1bB8ZQ7Lx0awaISQLoMqYPG81LJdQrXcxtoZ4O/L6hrKMr9cwPzhApZNeYLoK752PZ63hToFK/78I3z0re/EqtVTyhQlB1wsKfu9b6yFf/vJjXjeAKTg7L0PxbUxwpbP9qzf3oy9RBRa/9XC51/0dPx86QOuDTdbeOxLvozzP/RPfQuUa371Dpz26u9KFIzB5Ud+fxcO2nHDb73pq+/Hu8652JyfDvDyC67AC47adcM3LvsZjj30taiRV1KkOJTr0tRiEZtduujkRDTEbGdWSq0UkYo1fMhScDT6HU0YZSAQjkuzaVwLN69oS4MCIxPJuWuQT9h5m89e1b7Bv2GYPpQcJXdOzpP5UHKqA3IpjxymPkHiQEVSJpnygtrG6emdeZtbwVZHlldU2xeHLAC9ELwT5C9J8QhsDCdG07rJ8RK6aoeNlL9wOdK57voJk5FKcUA0+dBt08Jqxax2qUGdBdI2IAmWSF50G0SbfJoB0buK/OVSzvtCyEmPC/czCVxesyQcWPB583e5F4QQsHyk647y+4DHxJ4wjsUmN0pJVs5BqUbBk+sia0np7jrQtqCgQYdcNyjokiW62T+jtySjm5EIwxf3M4T/V0FBWsykgyAXqFV17UoRXI6tRQ1sO5/T29qYrjNqb6GmVhEtq+cLRu9sas/IAi9FYf9vkQKtsUaWGr5hUMBokUIbjHoZlYphG7ImDgyiXpVqaumgbqLnSpGqo9WNoyV8D+v6JOyoFhjIC+3fMLsVsm6VFP1Gz3GMWdEAtJBs5T1UKeQUUxXL7BNvGjYfUULsLID66GOTNbGQxWdpE6Wgap1SKh1mTbrrtDBn68fiNZ/8HI46ZK9Nrz831uKS05+Hy6++xz3sJOajgKecOJhouIlLu6Ebq92NNx5+KCanQp1TnAp302i2Bw1MKCpyhCqz5ZEhj3F+0Rd/j6OevMPgn+40cc/Vv8C3L/wKVt91M+5YPoOxqRZ22iqHJfMKuPvBJuoUmMoXUGbuUCrh/jUTYJfgwpEyhvIc7FXHikYexXIRp33lOhy/hUEBL7K59m58/9x34L9/fJVku1n2I/Jz/3gTb/nJjXjuoKBgr0NxjSbv8bkO4aI/34z5/Qr/E9fg1QedjAcazF7JLemgNGchvn/ttRrfu8Fr+lqcuu9JWKHBaMBZv70TB++04ftu+sr78JYzLzRSkM/jlV/6NU5+5i4bft+DV+D4A1+O8QIJanBQwO4hMuXbVO+MNsIWJxAyuPegNO57suwdFNhG8ceoi6Azpd47K6oa2UxSxJu56wJGlkuUY7MOA09gaqNLDr1XOEl2MnWox0/yU5xwLkXJ0IwQSTqpRA4wm5HsB5TtL3NN24Opyizzsj0xOrR4DphsMIjiOPCgJ0Zbo4fR8d89urlb1pbgUGrdlWaAYXxJUIevyFC4lEQlDliG9Lt7hJ/h71t/wDw2zShQh0G0kcdwNttOt5imAUi9PpvrSwl87gUiquq26hap43+5CVIdHRoBm6bfGpnxMCjzzvTZ3qS4Z0uYBB4y80SgOBk0giGVrWOC8JwR8oCo9WACq55JQgrkf7Kgyf8oB0vGJGtAUcNXb/CgC+kJEf83kQLzTB0x0r8rKotOBi4GJS0ahTKKnQa2GmXNp4NxkXR8GBhx83AJwtKEuZTPBkoQJMiBIe9mnsdH8naHLmbzN4J1r6mA0WKiQDerGfmQEW7j3yfZTTmXuIiBYU5AUWl0sgbMZNKpg++AMCh7cknaUS7LXnuOTQ0Rj/R7WW1L8x8i2klXFbAidQ1SVaRcBWp1T0IkV4Tkv45aHocwNkmkwAePQQkjapYQUnmLxkTSy5y3UMhjyUEvwxlnno4dtl24Sa179bV/xxuOOBpjDXIXmJ0UceAJDAoebaTgHrz+8KdL2tU8Cldg2b2RSLlSAWUbUb2lMhhJUdytjzn5QzjjnS/ZpGCn3ViDr5/+cvz0qpsxp9jE3KEWpmbIvi5ixVjdsHWrocEo1WoRVeURZZQ6DayeqSsoeOHXbsIJB2x5+cA7qIFfnn0yvvndpbIhrAM/MNHEm398w8Cg4Kw9D8J1eY6PzWO6diIu/fs5Gk2+/qt+/edxyqkfF2IkhjptQnkOvn7dUuxAL73Baw1ecsB+WLbKWgGv/u5SnHrgVhu8a8XSi/DCE9/rkkeujLOuvBZP3WXDdRj/06dx7MmfEvLInxtm+SBPBI1Bhwl3gn0l6sPumRYaTGKo/CcuAYtHvEeecpLryiHl7bOfCL8DEPqHNzFhMBMZPpXcaC9EpsvOpNxCKLo7mHePux1RIrxNCgGx6FjS2JAVDg5Rvwty0NBjgSJrVzgUg9kSCppa6IgUiKio5Cd1LjhF5XMmSpHIiRlhT5y4ULzlPmsbTaDNZKZuWL+rJNglUXcDiy5z36idusES7B/JTzNXlOPmntNwvejUs6/uCg5laxG+hugD9wNLErRV9rtGQ4UI8d4CJQrM1yhTBD4uzZqkOsgXK5kscvoiuSmcvuu183VxJSk50MHC+SW0GnmsG2dJ1885R05Bcn69DywtquogbOVgHShG8w4Clv6vkAJHu44OXVPyJEJFi2wrZHW2UNXg6mHKnHLzaEGNMUgys8dJVulgo2WkW6/bAoju4Y/mZr9DB451IGblLB+wP1fZhSe9ZayBuCErqJmtm7QO/KMhGjIIeuT3izBIwhOHyRQFbfaKIvW7eM1RD+Eq/ob7gakdT9grQDFBenEVWTkilTe8zgzSOI9cOvQM6ModjHEYRK4gCetSkXU9DiqpivznjhfW+3v2QAR7NCBUuXPLp4k9/PmtDn4hPnTue7BkwcP1oDdx9Xsfj09c2tR6swthY0HB5e/ZGV+8JORNuYZUoOSh5tNZuCN+de3v+j73Vu0evOYZz1DLo9qnEgTrQohDJk2DZGeFdRPocMjJoJE76bxf47jDHrPJe+qB330OZ7zyHNRHiii1ZtDKjeD+cZJv61hQLWN+lSQpkkQdXrEUde80HVQB//L1pf3LB/WVOP9pT8WfxKoH9n72a/DCt7wF2y3qP5WyM3Y73nPYEbiPAi/NPB4ar+PffnoTju3bkrgMZ+5xMK5jm2iBbZtvxw9u+1f044+O/e7DeOmrvqJSAB2eIOXSKC647jo8dqQ/4/SlB+6Eex9yBrbv0R/Hp79wcp+1bOLar56Bd5z1A5x47g/w2uP36luO+PlLjsBHf3uHPs+zSXl1BsdS+TPXWraK+5GtbpRWJtqlvRpzSFg8IlLg2rcTGFcBH60mxNTy6I4BB9JMIroJhOxjuF9XAlxilUPvcUTTLaKWHK0esxci4581aXi91ZQtSQhYoAQ+/bZZqfIgwaGw8Vw/kxTtncxtSLwvP2eNJk5ZrihVFqWzg3XWzRk0DH4oUtT1bTZKWZvkoIxJz40JSdIucCmjrbkX7pYwGkEyZAgSJf+irC39jsl8Gk0vzpBLJV2yvnkRQqj1uSjXhyty3BFeWnY+JJ377FoHAERWzScQOp7K4iyf59mSnMeC+SU06nmsGiOx3vsskILkUYKRKCQ+5oRH/sWo19npYAzg/yooSEtj5qsNpDoQ6Fh4Y+0majnO6mZnASd1WyDI7TBd/YXkLGlkkxHMxhGb6bWRu91kW/yI3mhCiDcKcwhGznwGhES7w0tDAz0eOpERGpqhEtn96rXMRJMG1iNDEGhaQYEzFY083Uj90iqVJBq59pegLX5umL3FFB3Kyhc2cPzusAOz1yWxYDn1Ll8G8g1MTfu653PYVZX/u4FOu4LJKcvAskOk0TIJy8EhRVBMXtThkSFRlT4GY3WQL1Wx/eMPwis/cR722XGwHO/MNZ/Ai178GR12BklPO2lw+eBH79kVF3zXkq1cexkqPiX+98IdNhIU3I1/OegZGimb2qGdPKXpaFwwllBymK4RKchJi4NBoojp5VE85aXn4PWvf86gMu56e6+Dv3zz7Tjr49/Xs3hwjP9Vx9bzcpieInJWQqUwrWFiBXJwag3cOwXMqwJvvPgGHN2PaNhYic8+eV9cm+OgINdw85UleP23f4N9d+znjFu44v274cIfdTDZLOCh8Rre8dOb8JwBQcFZj38GrqXzUh30DHzvr6/aSFDwVffzR1CA8lx8celS7EbWX5/Xy562C5Y96Ew+X9kF5/7+Suy3eAt4RDN/w8lP/mesmAjRLvEKXD8mysRXgps1j6VSQqvJDnunIK4ZGzng3mFA4D1re9xtG3skpqSLFdJuincR1DAy4tV1ErcuBC5YbCkB4/5MgSpNAgVwanV2Q3A3KnrtkuwHECHTvdAZCtcLGfNUtlAoGroFcvNy6iwJ8vtDxyHUCrlzRZYUipIVlCO4CEVUnkVOLJR9SMOqGAARjfN66KvXy+pTCTlVym3DHKwRtWApQWom1AOIoCCVEhS0xFCoFMT0BgXWnkgNCaEKrI6FHs8aZYjsuUd7/KxqdvrDgEDGjAUmWC6De+ic1SZ11xKALGJkhLaljbUTDc2/0fW7fNDrzv2/JXiYygQR4XKzspUiOzaxz7KF7d0M6zMs0n4OVSvDUEGYsJfveQXWNeAMaHyvjK+dgds+vKGkDIYWCO0o++/UVYu3dHM4pqxNI20Lr2zWPhMkE7U9rrfBszXpdZbr1dwGHd0U4cZO9G+mKDARJ3s8puti3ri8X6pwcfPxz4RQPSN+Qy4yN4GydfUImxvgte690Ig0FW062GM5c6re0OYZqpSV6WSyjvFIut/jtWG2waBA6mwxxYyaEYrKVTdLBy8wjR50I/uuhEwqYIjhXOyXb5I9kcMoBwyV3YPcbhOyc09wo91Uv7ESqggKWYPN5D3Fr3Dd1n3QwZPgvqiM4mlv+ALe+qpD+jrU9vIf4bQj3ojxIHcdpKCgf/mAQcEXv2dhLxLSmJVY7rWDzqKNIQV342VPfYZEfHhtSdLZeu8hkZsrhgaDMxwy2yV0o71RlNzv8E774IBTXoeXnXKU2jw39mqP/x1vfdJRuI57pAMsmltAlWSjZgHTjQJmWnUFk5PNEtr1GhpBnHvNt27GswcEBZ85cF8s7XiEbBI82/fdP8KbTurf/XHLt96Ij37sUkzUC1g13cDbf3wjnjOAU3Dm4w/DdZyb0Wyg3jgBl/3jk33LBzPXfganvOgTIfJDcRugMzwf31h6Hbalh97gNYYX778P7lsdw2OYwe92MM77/jfwuAWD5oxu+C31sTvw1mOPxV/uGpel515k8lQtSh7NA9+USbI+bv0Rjs8lIqagIGwsiZHm5XCADylgdprM5vyW3m6eZDvjepKRUDYfUjFp6E6UADOLKjg9IQU+kyxfqEQcWycrv8QY9dQxoNY8dWaRR2QyJ6e4Jjkl28ZElovhReFz1e+Q1ae7WX96f/xNyNbbtvjb6L3SVL+UJcd9Z/lF1oMWSYgH4EmSPXRexClQadO8q4SyJps4q8C6vqMV8pA4VpYq5jOWtHqT8xhMPhRfOjqGXG5JAG0XKaC99KydFNCkO/XdxhJm7Yq807TChkp6uG5ZlDAb1fZ+cSuaECopyToxSmVc9SBwfkSJnBdqNIQutMsHOw3EyfsFIbQ5rNeS0pf9uxagg06S9uwNtTJsIWoa8bgTizQwjRRrBrSTDl/qu5x9GAmjp+xQP6UHlj2DjRrFfv/Ye5+Jgcv2owrhl4Ct7Mu6EK+/J4FfPTHNgMjNj8mPN72CQDor7JgVS8nINFGgY+gA08yARKIDqjrIrs8n2C2rY2msMmubht7cN2znzOPD7J61TQmCsJUnXxIxT4xoRv8aplNSB4HaBxV7xMwKdRi4/sUvZLZAA8Eav/NyH2gq71Upl50CK0FhLu+kEDQFBSLAJOazBvwQKi9jaqaGQqmMUbYqsiQkBq6DGxooHvqpFlUfmbHwoJmEdfRr/hUP/fYyXH/LAw5KWFIiWSlIe1qHfA7Vhdvhot/9IcuQevdG++7v49RnvU2Dg3iYDj6JLYn9g4Ifv3dXfOn7VhBrNKiZ4LqgJlYs3gW/uvq3ffckuw9e/NTD1fLIc2UuQR7FCtvSGtJ6yKGMujThvW5D6pumMW5xaLUIQjPtDsbqBeTm74BTnn8Cjj7tRXjMrlsPQA/q+OorH4sv/qyDhUNFzK+2peuvIUuFEibqLayd8qChxSQ1luqoI49XX/TngUHBeQcegKUxejsRPQ//6BV4+bMe2/e+//GD9+LD/34h1s0UxNt4+4//jKP37K9T8IHHHYLrCiRX0nA18d2b7sQCdqOs/xq7Cq886FQ8UAuWNlGjeYvwg6XXSSRrg1ftepy01wlYpWmfEXm321j85JfjS994P+b3Iy70fElzcjX+dNl/4uuf+gT+8ZC/n8ONmNQNlYqagMq5HvxuIgAW1vI+HKYqZdYjZBEd7mvB+e0WquWiHFen1QoBsy6hzGc9yLQRREt0K4JKJkoaJ11iKzYxdGfYPsKJxMaggAirs23zxhyM8HsY4FN3gOeVZ4afEtGuQEfrGQfTnIQapLvMnmU5hwNY3hPfq4Fq0lvZAhRms6257TKvmr8/ozkHTr74Hzpkt0wbHeZ1qgtjY5e2XoIr+0XEp8ignNoZto9W/vWzSrTI9F5dFbspyG3I5UV4ZOLNPaNnsxGsL0KKHgfXTQTZwZ2BBlmQ5OsRks7EOeV2s0Tz0p7w5rffC1M/KCgY5Nto2lXzobCOZHkjNFVvaW87Spq8GE816pS+eQtNiITckzkm1YduEp6ehhchOX7Dg6YWyhFlQcGW1d50RdkoZv8mHYEkKUkCih5d6wKkxTQ9MQWEs/bugMWzPFR8Km4tYRTpu3q/R7Gj5E850Qsy/nTZXGZOdGTWkSEgsbFSFwUjf5UYQiQjJRNuqfFiWkCEQQF7wBn9t0Qa5Hvo0AkrRsVQ181SDWE3Kqw5QLLUteYzdMNYwaGsv7F0oQmOkUsoxAvnkQ5JF3mJZxDiRdzQQi0KRYxq+pwjZPkusZQ9EZFOjFmYnnyc7Pf89Bo8c49FuO/GX+OHX70Et932V9x++12Wxk4pU6GKA178Cbz7Xcf0PY5rf/V2vOS1l7jbI1/AM065aCBScPl7d8EF3/WTpONya3VoqikAACAASURBVKQFggrb7Ir/3khQcMoBTxcvYoQTFVsMd4F8mR0IDgrYwqn9rs3P58IMpY19n/nPuO+mq3Dbnav1zFZ3SqjmG9hhhPyL+djnX96Pt55+Ut97u/y9O+PTFzMIzGNkqIyFZdIKXWZbM9XQDIQmOx3yOTSLLTTzRbz2oqU4dlD54KlPwbVBQmOgts1+p+CMCz6GRQPEo5Z+4Xk474LrsHY6j7FGE2+//EYcM0Dm+AO7H4I/yapLyxtnXnEDntx31kET5zz/afjdDas8z6Ddxq7HfR4XfOrZfV3RxO8/iONP+7pHo+vRFbD3sa/Hpz7zbzLYfnVw6+8vxT0r4k/NGibXrMLtf/4D/vibP2HdlIliCa1rck82KZWew2iJAZwn8pCsSqGbpDEyIl0C23iidIkoy3NJlItntsjR7+Ln9ITQQcxzu5vbfxOCoMxYXUBGmEhKVSdSVm33ebW2ALP8kOJmm5wY9t0uBCIWDAr4St/B6+AzYHDKOr8nIoYTzIxLWjeizHlJxfMcC4XouH3v/+a1kaBAI7BZeo3iTaA7ySH2vb6uG+o6cKIOgQzq9tVxEB4pI1CGs0/OukN5ZdpuI0EaLRhJZ0a66nMBaUChxYlSzSNy0kRYSfoNkRzzGac5NdnApA0+HCWfLQ0KkrNRFBRTrRgScF8qmhQu0c0qM4cZka27ArqUxpQxK7uLKMqCGgkyT3FlTnyB1KfLKJiOUYx6fjCDybLK+Wbvu35BgbJRDvKIg6maWpD4jORl8Vv2oHx8N8a5CKJjItXoK9KnUoEstemknl9J2ekgMyjQqFUqz0nqOBS7Msww2KOM/EmK0b87aPO5dTGL38W/c/mB/+YJY1P1pjkLQXRy/7Rzfz4bogJc/2EOO4+JW3x/xv7NpKQsxeyBKN4j/P00S8K3nSlv9ETJvkpmF2ofjYEiw8y6JAVr1MPwm/uP6dgIYzJASKIe7/npUhz1+PUEZlo1PHjPvbjvzr+jlhvFbnvvh20WDxik05nBD160F75yrVuiqD3/9JO/NlC86Efv3gkXXGI1SWZgNDeOHzvILd55I5yCu3DSfk8Xp2CUbC/2FWuiZFEkypLWyJmkkRgKb7K9DfjQL/+GXRcXcd8Nv8YPL/wWfvvXe1FujmFufQqT7TkYfeKROPf8D/Wpv7fxs3fviq9dBqyo0XDnsLDcwUi+rvHdtU4ei4YLaBXK6NSbWFuvAaUK3nDxAPGiTgMP/OMOcB4NX+W5W2Px1gsG5z3tdfjmC/bGL27PadzwWLONd1x+A47pixQsw5l7HYY/MvCUBGkeT3nnt3D2aw7u6+gbK67FR17/Hty5YgZzdz0MZ3/5Qxjp54faM7jw2U/AhX/1dEQ5vx2fgkt+8z0smPX+Fi5534m4+PLbsGbNhDZxF9ZO5zPNJMlhmlm0WO7AUK6tDpxisajnx+l7dJC0J+TbaCx62BHu36wEGoafe9znm1aWBFwH67wCkV/pzMnKV3IlQ2gRL01bjvOtqX0UrI/WtyQ4ROifGv/RtUX7zWCTZ5XvlKCTHLp5MhpoRKcX0/+ckDkb7oZPvem0s+UUFJCoLpL6Rj3vZpvtwR8QOmh+xgwzZdnuGEKXI3LBKYxdsjkDJfX9b+IrZf/mFfi5aH5B2HUBosFZsMkNX9HpYKrZUVDAgILvV1CgAXmD2XruTEglFDcJZK/wIeQDiAsS7ZIUlFufDpZKE7OAjz4J7ODyQfrGTNrWl6EvTD2vIrRZ/UmzonuAgpRDJ3BEIySTU1WEHEIQodInwRk6GqEIDh6EIgTsnOo1KSjNNmQ8TF+uD8dmv7Kxpd1PattHLYn1XhNt/ECsd5SCgu4SJ8ho0O97mlb0GcfD5L1qMFM4AP1mzyZirykXhJDeDFtfIijghvR8BA9QSg+Gh5VEPzpkIgWuXflpmNjDw+pwkoeVrFr+HZnQJJbVRIRhza2lTKdCGJIZYyePmTqJfg4K6LxSnTRNNvPWSMJW7lqh8XOWESWerGgWAWLss0RhZSgotbe6W32YdVdDnjQNJxH3wwRg1AXZGwqVkEg+jzN+fDWeuefmDQrqfWYzD92IU55xnLIpGkdCsU8/6asDyweXv3c3fOG7NhAMTsitMBrTRmernXDFwO6Du3ECg4JmHsPlPPLthrK/VsfaGoRdtc5Nd56oz5kk0FIBH/7lzdh168pmb3U0l+O8fQ/Ele2KJLRZ7lhVI3GsgHnVIradV1BnQo2BZa6I1bUGJhrAm75zU3+kYDOvYO0t/4XTT30zcoW8VEenWh28/UfXDywffHjPZ+DaXEH6IhMzNeQL2+Hr1/0Ruy3qxxPYtIuZvO+3eN6hp3mqn8xGDts+5Vn41ve+uGlfEO9q1Saw/G9/xvfO+iB+svR2jHGCIUt37BIh2ZawecEjenmuGOzStZLiQCfMn7dzNkmX2X2Y16zlzMp/gUVEUDBZYybuseuqEEjNj+2PbfGO9B3UOqDOjJjuXTxTYmPsPODvRlapYVPslmBQIPI2AwOWPToKTDVISPuS6J3h6GRlM1u1XhGUNsVlxRyGaKck9DMIf96sZd+EN9N2M0hi+YCyyVwPW2zaQJ4rkkATCE9Ub3MvLTHv/Ly6HQbZ5MEedCEFETy/k9RdyBeV1CksiIXceFAQk4qjNKHCffg97hx13qkt0ugA3xbFkdhPkcJ28zD/fSo9r/dYBgYFgx7f+vFUco38b7f22TfbcHdjSbv7eHfKHHM8FB5yoohdHj8eVbRcZFffQ6ibfW2JuZj2yhZsvKwksN43R7HeSEKqyVuNS4p9Sfoz6hqJjzAoTRKsl8RH1C7KVhGKKXGgRlHReJcMGRuBXSBssyKkp6CgWx9jUOB6nVsH1eOuDoymxn522xa7yAajSR5WrrJ0vWNzcYwosxk6ZCIFzEjZ0sj3cKOr9ZAzCjRqtKTsQa2ebPeJcae+dpPg+OJ7WM+VM49d2A4xDrcL9pSfok5HIyIjShJTPHMeYN4P75f8gEzGOamq6RpikEouh3f/5JotDwpa4/j2Kw7BxX8clyPiuhfLJRzxAg5EGkA0fPeOOP8SK9bJQAfnhaveXrgjfr30930NGTkFz9n7EDn9ecMlFOn6C3nMNMyZISCjGZAkUzLfY0Co8k0BZ/3qFuy2BUHByqXn400vOwcz9Tb4LAifT1PQK6L9OUMFLKwArXwTpUYbk50C1tbzeN23r8fzHoHMsRaguQIXvPAZ+M1fpxR4ruawqVwOb7/s2oFBwZlPOAxXc/AViVy5PCam63jsCz+Ar37sFbPHS2+Cq5AZrq/Cp485GJffXgv2ujk6ua32xcXX/BBLtiCn4PfOjC3HmaecjJ/fcK8Y3ywRzCFkQJSA4loi5NGDNx0UkGzI/cuzxfMYR4T2gPuIsH1SKE1BgZ1/BxMNc4KqZTPh+VGSxYimaMiSBsBZcIcogXg9srkmaMvpq+Rnh0Y0kSJ1LCHwxX9j4sBzyOsgYsjAgHtEo4UD9d3AzqWMkbVyrkkWFFA0SBnRJj6lR/Y2tRhmQUGXU5A4BAoKQnPAVbledcENf7tfsue/6xV3i0y/t9QQGWy4RAX1kxzLnC9C4zPIQYkOKe7BQVhFt7ci2fEuqdHjqGNSbeZCXbC1H86ob07mE1qf+a7MNGc3PjAoyMRTAtrXd8tR90JG4S31dc7eUgGAJpJOzlBvYpOabcvN3ehE5wBHPEY8kwUNGUoRj0N3MnvVHHUmED91MZgMt7mvQZ/QwgZpxPfvb1ZkzalmwQ5W5NYjEDQYOw0CigY5eVxmjUQVTmkrlQU1So0rxC8ECyooMDTYDQoUFmp9iQYQGZgdFDREVhISkPpZw8EyoyYHgPdFLQF/lpKrvBZ2OPiZ0pgQ/mRgwfvRDHs6j3YLw5IktT6BJYa7oKpQiygJcRQyry8ZLsHrvHRKxgr+NDfA125IUtF9oARJ0pWOkYGIjFam5GVin4aOqBc5KbQB7/7ptThqS5CC1gQuP+tV+OrFfzL02OBI5g5K5RKOPGVw+eDy9+6K84UUxOTQGF4lquFWO+M31w4OCo7f/wiR0IaL7CVoxmRGM4ZHhtzr3mpyBbhf2toOzEQ/cuXmBwWdybtwzqnH4vo7p9Bs5DBBPfVmC3MqOYwOFbF2YgZTzTbmVtiqlMdwu42JVgErpoA3XHJ9/ymJm3jY2uN34TNvOA3/c+0yP+98AaunW2gVCnjbD68ZUD64Fx/e81Bc1XQLHAl7MyrPlHD4q8/E2e851Zr4m/jq1FfjG/92Ii768T+MvMShlt3pdLDjIS/Fly/+cN+Wx035idrKG3H6Mcfixvs7qOY5kpecmryCLl67gvYWB7cBQ5WS9i9r9DYswewn2TRvoiFPFZEAOzMjAuQsTLWKCs45yEdjhYlM0Qk2fQb4Pg2QIh9KJMHUomfHbgSMjjtGtZMDVDByyDOXiIaTDQcFRDzKMk0dTIuLEH32KZHrWRx3xdgRM9Hg7w0TsVAnxmY8rE1Z8IHvGcApCIdInpgEm6IEqq61jVzaYAQ4zYvp/XAKAdYrJEe7+ES7jUrBSIHDitRRkdq0Nrwpnn4HLyaKck2ZSDN+pLaF3VJPSBHfLV2ICAzkgaWMGWJ3s4KCLjrNb8rtv33/7oMuOzb9XNQoslCj3xPpgdIj+mJGwIcQU6e1CFKACiLEwBhto7/ziHbMo/LhhISIdBklBZUXIn4RiB5wX5rVwKhQQQaz5I6j9rWNOhotjn0uY6TELoDZDFb+mY5U9ULB6Q7MUimDhCWVNyRwFOiFJicSZjZ8qGogWf1UTGOkrw4C6l5b1ZEMZWZihB8FqarU01JpiGgBCaXMHBhMECLngRqucKANxYPiMwEo2r55J/LQ0WgT7jbhke91mYL7goELkyn3LTuq5b/LiEq22MfR3QZtkfEo5T3VaqNSKaHYbKDBzgy1c5nIxfc+5bS34XWnvwK79NXI7//4H7zhl/j6R8/CVdffHWIknvyWDOwRL/g63vORw/t++Ifv2RWf+47PJQ2nOw/ioG61E668ZpB40d044YCjMDXd0thoj4hm3zCHwnCgDuVQjdokSe/UpvqhX9yIvTeis7D+ha6+5Qp8+m3vxJ/vWqlWRE4KZfsmYePhSk6ZK8Vo+IwnazlwPP2ikYp0Pu4fr+N137sFJ2+BomFrfDl++a0v4fKvXYL71ow7CAzhsbXT5K908JbLrx+gU3AvPrD7ofiDeuo96phCTrlcE9VqHrsfeQpOf+c78MTd+nUuzF6B5df/El8+80z87s93OZhULdgaF5SUzuUqePyRx+LYV7wGzzrksZukfNlvM1z+vpfjnIuu0L5Jfe2c8GnFO8P4LO1VhPu3FeyIox1QAfewS5SRTLGlUWfRZT0qJIprw7OloN2lW96PA+MYdhRE4jT+l7/uKXtG4dJQH/K11LJLldSSBIYV7PO8TzPx4OyRshFDTxd0iSQjCK+3CIH9KYGphUhcqqEPyoXTyPKUyaavHEDj7v7ieql1r2smqkQuB6/B5QHaXTP1mawQ6WVrodj5yGE4EMxUaEnBzaY4iw1KyTGCnUG8TWFOCC9/i0RD2mQGYPKxwSHxSnf3SEbg544JkrVQpSTWFMJMftpdBD5db4YQpEWZHTN4xkEk1lpn17aNHQ0KCiyM0zv6cVOCgu4Seo9HPUydB774JOOYLf7gtHpTnsf/s/dEQu06lXMAGbuitKkTXO4NwT+S6MJOAtkG9qrSwCGHtc2agoLRUgUjBc6r6zp3VS/EFqaMMKPCFBFGfUza3CYDinAUDtQlRNefmUlIDCXv9qApBgUtjiLNywhQ15tGh4QzDzUyy5haD1JFlFhHXhmC2pQUcMBkQ5KSGlT9S/FuViCzOEkYRhkmZfkkiRY00Ii/wZIAoUmRqIKkSOOfEIg01kRlhkILo6y7t3JY12xhqFpCqV7HDIU54j9Cj4KQ08kNY++jjsHBT9sfuzxuRyzZZgnmLliomj0fQW1iLdY8cA9u+9s/cNMvL8Fvfvd3FEs5/bvkU5V1OVih0X3igS/DMcfvYcJkTK8z2xi48bL34MpruoRRE2YdUGBkAd767rfHXAivT8YKbqzCBR/5NNoa+mJUptUpYKZG6WFzdTQoJs9WNTsC1p35+zP1Yex/7POw3wH7YNtddsA2W2+FkQUL5Wy0xeoTGF/9IJb/5WbcctXP8NOfX4PVU00JSokgpbqwa8kVta4yQ2yaWd4pYJKNy60G5g4VsbrextGv/wD232lU0Q7RGVH0Osx4WeJwtkI51ZlWHo16Hc2x5bj3hqvxu/+5oWuQe8p0jPnGG56U+YxXvRP7bjcnhm/FCHHVSdfgh+8/F/8gW577n2eBwokcbV0mPE6/XsYTjjwZRxx5EPbcc1csXLRYe61Zm8Dq5ffi1lv+hhv/+7v4/e/+hmbGbTERT/X1egNzt9sdb/zkBXj203d/xPbk3l99FC/+ly8Ex4VlRopY8Z48oY47I/W5kwNM52tOQbfIy2w9jevNcTR8u6FOKE5I5Bn0zAJ3D/H88r0M1tnFwHVKaCzPqc5eUhYPBVgG/0kF0F07LlMRUjd66dJBI5IPEpbpxMgnYkv0xvr3JJnDEqBIwDEaOojL3Ua62cssnf6el6sQ6e8SR2nAo+mTPNL+sRPEEzATht/Fzml5GaiUIyiglsFonuWcnobxnpkID+ei+gUFctSzgoKcSI+0K9yfKSjgQTRWEAOlInDsXQKit6l0lJR7E0a+AcDREwSEC86CBq+gS1D+/mSzol8zenP7BgX8stQy0Z0HvSGbcf3HlIgLs56pTdQsBnwvc3UwV/8Rn8//gy/oCb8yZnIEQioEun3QHQx5FNiWE1elqL8DjDVqynDnlCsY5oQgvif4ClK/EqTuzc0gojcSlB6A6ofB8E8ao1IF407yWGWSBQk5q2+3wUjfMrqcPsZsnXXO6SYJSMGCVtavKnZML6OwTUtIgpxkoBC8Gmm4xxQ7BUNJ10HETHdwpJYnwpn1NoMCtr05UGDPtj4WkToHyLAWaUawywVkSeSLLcyhdWvlsbbe0GjjcquFKU5oEzTmDgpt+2gd1YSxno4Fz7T3WoknQeMhprWDGsrP8qVuhgzJMllTYlHMytQzbwXH9DkROSkqpejP4a9axmjQozTCjNSjS80QlgIaJwwUiqjmgVGqTxZyIoqR0KmgIM+gwK2xghpj0Avvc6bWUKklly9ivMU90gRHWdPQsZY9t0qkgSRMTrEDmvkyxmbqyozplBhU0REQxZOxznXUfsk/lQpFOYeJ6RkLJ+WL2HlBB81GCZ0WNRQKqOcaqM3UsfN2ZZRCHW9ysiH+AaH5Sq6GUXWpuGSW4lkbfEv+1nJ5zJszjLG166ThUc6znGSiJtEfBq+CTPNGCGrNJmaYWbc8Hp1rx/d7HHD8REzJzORiE/U4SEFGVANwZTZZL+D0S36N0w5Zb0Riu4Y7rv8Tbrn5LjR6uFH8mXlLdsPu+z4R2y2eu4GNWbX0P3DCiZ8KGN9Be5K21a+yTVVkNzp+rpXvx0RrO0Dyi9RyS80BnQGOXiZkn1cJzwRJB+f+HvOPpN3CagTXTJwdEwV57sQr0P6zkJI4OFH2c9LCdfQAHj4/trmmoID7j8GNAm6to+1DvxfXh+eKwU49Spfck0QEBzMKMoGD7lcG6pm14Q2w5n0J30REWCYJdDW1KhvioJngOWEHQkIKgDlam649n6ULtJHSgrdz9w0mqKfM3a6bf6btnqY8edPKimz3FjaQzYMwT0ScOhNAwo6YpJqS6dnL0NNinfxK9ob1YJT4e4WT2eX6f9j+ph8cUD5QUJCEbWKGdIIoNuZpU3A3qxVi/QXNrrUPrvF/4MYfvZ/I3Hs3EktszjB8Ut5ObT2aRheDbjTHIIfpVhPramb0zytXXD7gSE/pPXiEqmt8ATP6EWaPl8+R0T3LAG5ZTq1HRBzoRFg1ZGRaVNZJZ0cHruEiHDPNDgUSnloNTDVNbnMQ6O/iIaYjpOEhGkBHpkmEDBh0GezTThPKUuN1tE5FfzW/Q3CduhDIBi5ifLou50MIb6Tscc/q843WLbYyGa2wc1VQUGhjlO/tFLCq1kCpUsRwHHwpWzIwibVJ0BtJe0mFTdlQKHplcq100DSQcugek8rfY8aVpFu94h2UeQ8kWBZ8nYlk6STP41ZTuchAjbO5lPXQCeY0g8G/ySxKwjGs5QKYW8prMiEFqojYiNeh0eVmS2ddJNJOZ7DBgMy8B46I0Ox1BkEaiEpBIo7fNReEqnOs4RNx0kQ6kcti4FV0vzBIk0BSjvoUbUkdsyNhqgFMd4DdFzYxXQNmOB6vU0GryDkZdey4JI+5xTLGJ1uYmGpiqlWQE0WrhvnVcgSs3huprZmPl9cyxdkkwxXUpqZRRBEl9uYzkC4W1Nqp9k7pExQ8SrbVwnSbMDYNr5XeirkWOOkt1ymiRYw2eq7dyZRIzw4whd7IwKY9mkf9CS/BFT/5ENYXvL7x/FPwuo/+QbmyCbFhOCOoGD3oRFz+rU9uYE7u+unZeMlrv2ip67bbfj1y1xNcxb2Kmr+DRAeobrE2+ZbPl9fKII3OjYExy3h8Ztyb2ueBvkqxMzp71E0QuvmOG7oIJrkp4uiE0h/3YJd/HxLGsYfaQiRYQjD8zXJhRXs30K+0Fn2MqZKYNP8jBp1pOiHJywz4Bnwm3VNGiU/eakDw4a/pdg1kLfPxzNk5QaSAdtbJhRMMmwgnKkR1Gx23EI8Ggrj+5aUgdpDf6A0INvxsly8ge982EqsOooJL6uGWlcMRneXz6eUNiH8Xw5Jsmnuc/QYuNDh/fEsWgUXrfi/40sOP0350O52WR/lBv/JBCgpcPnBEualBwayAoCc66V2whwm8Hj2//b/4TRsGQBEdxmZm5KW53FYBkIEntEuDQMczA9bGm+5fZptfvoi5JNOFIIkyctbYpQzWnUJoTkLX6SgLJ1OZm0BpUJeFb4Sm29dqA5RKOiYgDZc9rnRM4ipdw53CD+tQGLrVgBZm9HIuJiElWKurKuGDwGjXyZlhTvVB54HxZg4TLIwip1ZDZsjKdNLsBbUX8p9D81xZfwGFYkvjaAsoYSUnyRXyGNXvx1z3IFh1m3Pd/UJD6mwj9QNb+tNBh9eWWVoijar+Gw48EUj5fj47lju4ViSGcu69JkPqWtNEtqC+mhWUjZz1UBaiMDEkKSwN2/K4vhxdPCeQApZp6DCJAPCs0phnehLRViWzpvSOPIA21k4TNWgiVyQiVLXT6dAMuTPEQk/UNHUQyZ5xrqkuXe2Tfq6mcUgqS9/tEcTQiOXdFjogXDc2hVajTFVkIRfbb9XGwuoQHlo5g/G6ZakJHdfqDSwaovCUBbbEDomsyAx4khgp1MM+eCKT7r4hcsE9a4Z8S8TX1G7F4I+6FBwhzWfCEemVUhsL55VRmwFqFBNKDjbmXSg7DvmUZA4cqrGbAZg59m24+rzXb2Ap7vnhB/Cyf/s6QTQ9S1+7FSeRm49Xfv7bOO2YJ2zwuZ988FX4yNd+oT1svX2fY77MAwo3Eu3OtsJhOyKztsiQM10iR+LxkJfF1mB2BBQZ9DsoEhchkpHUG6+7C7SA58EBcdeCW/MlDeIJR5C+Q/ofbFuOtWRiQGQjELYM1e91Tj2rILKwxkKbm8+X0UKe//7Za3J1RiF9Xt2pZSrewFdP99csHR0hBb4GlsOMYLqHWf9Fm0SumwIYl2tHUzeZjFeP44p4YlAwk/197+f0lyGKFak5SxTTRL4YtOtcW/woBXQpoWHAKpQy1s+pRa//9d/MfoVH7XGstGmpGKK/Dm0X8dGi7T356oKULN0FIxswKCjgJjDEGtrgD1dYmXWVvVl0TzjRJxroF0T8L/ryR+2re0sl2UNKLOLwqOmPvG3G2WwuKIoo0sF0p4npEBARuQgdzC2WMFopRVZoApS1u1vR9ufN3TsvgQeODosbTQFHchg9ZCAfMmtf9643jYokVfM5TNSD4Wq2XMKUIqvxxrSzTvPcYxxsQFs6BsmopWuIjIIHgD3VhOxWTbfEa2A2RHldlgSYF9GAEI1geUPCrPmihXzkdUvIFZoYLlAtroIVM3URd0Y1w93DsHh9gkNjklucAx/POARpaqNzxoDool6XsjZB1ho7ytkZLAvakLg+61kSXB/xHjrO/H2QDb27ThfPKGRvybqmE3T5J+RQFSwVLTHLlkuiIBxoSsY2M+HIzOgkRUoTCTONuPWMBT5r/t0YkQKumuRqSxgqFtXNwHU1wS2PyVpN9WB+UznH2RHOINSWGMJPhLFpIPhzNbqcZhOlTlP/e5sFDDgKmJyYQbNRQZ3EqXodu25fQKnZxsp1wESrJFlulnQmGy1sPVzC/LJLZ34O3cmmdPiTLWCIVPxWEx0y3dkTL+TIDPjpJrkuRGU0PNzkvXjWXMqyOmz4d200pdpjASkTp4zTKGmi95eRDoccQRxFbWYOeg3+8K0zhNbMfrWx6t5/4I6//QMPPLQW+fwIFm+/GPO32gbb7rIj5gxtKNfYmfgbXn/Qc3DDulpManSJTPLaJPcmhCYQMB50kZRDuyShBfxvBU7iHVGEp60+fyFqKsmZLZ8IiSmIcCtekHZlv9NR7ikvJoeQbjbLbuw4hMiEpoK0ZIIzxcAgE6nbSP+ch9S57ZHolLhFkZnzvPd7yc8ESbioCT4+s5sSFPD7XCqKMc8BvSs4jXZpE5bDD/FMCv/xUCOuLRdyNM8AK/hgyUgGajqooS1DCXr9miEa7/cUKBCFU4eXgwKuisYFCEVyxxzjVmkOcO1VWkyJFW1coi2vBw04+kshSPhqdzQICeox9rJLkqx26UqSWPHvaYAc0VbJze/DgUjpw2nxaABjoyYxhF6kIG55VjUl/Z1guh4FPV1z1hYREdSsnfHwuEEc6U1CKx41r7/JX5RivNkf8Ho4iu+KZbWle801mWo3/R0bpQAAIABJREFUMUV4VP3XdD4tDLMeXCmr1i/YnFkwN3fbQYGr9KFfoF1uCEqynT1BgZV9Uu+z9cqVCUc7qJ6JDg/hV+suKHnPXnEatPCp1TRmrMeh862lKlzAs8qQU2TfbZUhUsB6PXkqK2ttZbesm3K8rJACTVt0nd790yn4SVExddxb0pPP54pYydp4pyNiptp1QmcuMIq08rOkqwWtCyIINEUEn0RvdIYsnXoNVGIAZyjb2YXTKGbtQ2WLOU2KDGiOAdd3ulHXMSoVRTXVN/MxWFCE3+vebQUv4SCZqbC+SGZ5qWgyLn9bVZo47DQcDEb4R/MSPONBQknMhFodrGnkUSjlNB2002gKlZlbLUrRUkFLu4CxWl0zFBieVhg4lA2leqZAy+RB7jkiB1S3bDRAJclt5lTx0EQdoyNFdSlMTTWFFEy2Gsr+tppHPkwB960iL4Vs/gbW1RuYbHWwdbWErYYKyjK9hM5CXdNm+QAYHiqiOdP0zHp1wzhbFOdAGafrw0mYpRBlASI6dCA8KzRy7SbD5+7zTAZRUzm1jSJRCeU53itrtZP1xfjytf+Dp+34cOO0H8YgdOo4/w0n4JuX/0XrKKnlmEGSWmld8ggtF5k978U0RCr9Ai9VvBOuV46lIgYULtkldTvJzQsBcI0/cSXSdEFyW1LrmkpjqhYlxCzOQU9gkKE4XG9lmdqN2iMMRqSwGJMSjT70t9sig8ZUQl2XYU0FFGxtnI04+8SqPEryM59nIltrrSyHP9sydRPO1InDLppUemGAxWXVdMQIcNK+cMbs7aCMWU7YQcEwkZiwkan0l/2uULT/n73vgLOqutb/br8zwzCAFEGxd42iCPYeS+xiV+zYjTH/GI0aTWLUGF+KJbGiEhUb9l6wgYIiKmLUqKAgKNKHGWbm9vv/fWutfe6dhoCjwrjnPd9TmHvuOevsvde31vrWtxSklLgUZbN/Wi2N5qBA9pgp0vKQ4bki2bGy0o8DYwpAbL/YdZuPry+1Luo7VwAlJVTOQ5FxzHZ+l+BJ6VHkXHLntf4u360rtcm3r9erTzHYQCbXyA8l7IPqP8oqJ0GqyxZ1WQZBRtWa49EiiS0csdG3O/+WtnVgwDlCqYk5Kcmldtorzi+ypMa2M47ApT5BQ4Zp31LvaDIcQlU0IgNVRBrYSjfMKGS0uilAQVKkEhRpy5/Ux4KZ55q2IhqV/w3FRPGPA4r0jRkZMBjPqa+JabYO+zG0LAQfA4hSry8UsIhOn3bgaGdRXSRnQYe4cEa7HE5lEqFyz0Vra42yzQhoSOdkeUmro0CI5r26hnd0KpjrFnBLsJmAlKFsx4pnhCxtXVoukFQ2oxCZdEfhIFWKjCZiaEylBPPTrHRH1PAnIKrkuGjuMPsMoYeOUpaYVQ9qPSflh3V/IYxJq5Tej5Rk7BDi4SH947Jx2bpIEl5Ono0OnHXnuWl2EShAUt0ILeaws6BLLKIaE8KTYKYlIp0wvCPyBmg7OlhxvBTJ4uFVDKFLNINVquKojoUwozaNeDKKbpVhzFvEVDb5BgRpImeKbtUhzJtXRCGXFiXE+WmSUovoGougT2UC8SjPhbwIyvBeBISwJMXuh3gR2aYYQmG2yZLvwDGyBLIa6TutfnE0TKmbfKuWQVVgS4Z+FXJaKiLIlhkCFm1KaUo7I/gjTkOOEZYvCqhP57Dxjqdg+D2Xo5d6rWX+yS2ajtsuPAcjnpwsHBwBBdLFoYe/yI0zQpWIWEe3q0Kqtsvp0tSzM8imiLCRSncLH0GyYpQ71hKGa4Uu1ZgViGrXj5I12clDu0npUpMoQQbFXI9mU2STlMhtqiRqUbTYzDoUZKCQEeSsRdJlY9x9ZDg3Q0onSi7XUem6Q0kq1rDG3YhGi+TQ1GaziEZj6B5lW3YORXbRqLJ18FMiAmp5jqUvmofcE9lLAvx1OiMBMEsDWsKwzJ1WyUrXK8MbLPMkRfhNxzo7VV1tY2T3VV4I22BZTmob/PeWafyya5segJRTZJy3dmU4PhPvyk0t1G4mZ0l7MwYOXNZL/rTMnQoYEOCo5U/uYb1z9bTf5TQPrb1Kr+DJ3PJ0qXH+f6nLGhGMi1EXc9lhKptTDy0ta1uM7MCBgYp2SlDfugEDdGcjbFdmUCAvVhi8yqwWxS9zaIyiuySoVRBFmKlopgzpANiix0yBsbipb0D0rEpYmimQOrGkhjQi4t9p1ysJjXQcFEeKqFyL5bR0UeqG5zvWtsIO+mlxIX4XowAKH5Epz8UsKTTRQdBImLeVylqWKYjq9H4ICoSAxu4FtlVmtdQhPIVgo+ifyeEqLVr6WZfOL8tp2MHY+ll52yQA0uYEb0zr6/vSrcxSgtRWE1FkMpxeqRyRDCBCQOKI6cCl30+LInxLqslRyhI4QhhBHQ93kQqXw1YPT8XQpmchqVcdcKPlCR6CBCD6ApkpoAyxEEYLWTnMKX4jNOdiTg5aCYaiJOJpFoHlBXIXmFmQgV/hsCjukVRIhVFGttWJIqooshMBZjUUJBPRNZbBwvoEqpJhmcNB++RDeXTrEsOceXnxxNlIBAuYlcjm0C2ZQO8KjuAmJZ4kKmYSKEBECWvOsg2jKgk01fOpCVIIjpRLwnt22QHeE0ljAqiCU11T5dJBQd2MJMtuYWQpsKV1rgAECFkrnxPARFCUiGrnBWXD69IpqdH3Xn8X/O6a32ObLTcUwa1v+ykWclj41eeY+PLjuPlPN2FuVom4KlOdN3Ek1QihnUTVU+r8LjVuBETRuS1R/owaKPbJcryyDB5ShxCUDEQUTteME/6yla/gleCB2iIEJqLDoCDX+cNylr3sL/s/kqEw0CoZ4jJ3LGcNMw7Cg9E2S3X4FnkbJ0GAiIAyzTIEGYViUcqFKmZXUjJ1e25+OiPnUM9EQvY6S24s+7TMFKjLLJUEuesks8Et5zokbIAYgbiOhS+VXJ23dM/sHpFsmATJ4NbaLTN1DL6IEFM6hwQ7dmQUtRZF2vsJrGLcEBlAJYRslfpvHoSXnXnm7ALnbzcpGERqmboWSCAn6CIYIHB0WaLyY/fbV3D7Kzy0joCClpegYykhWHUvdsgaAU5ftqYyeDjy0JdIxzIEmrbUeqzmDr9tm7X19w5gKPlE07jLeanl+foO/gwdH21SyGfV+Rgi5wvnOcRoj6BAVNqsxkYHRQEORnJKEtHIR0CBpH5K2QJZOK5ORG0U1unpRNMZUVCTATtleSJ30NCu2vvcMT9BiUO9tKbSI2SUk0ehZQjeN+tqKqWsERq5BgEyNrBpVWFTMtQ2KelOsNQsW6V0Jbq6m643d/gK+NERi1rGslqrHEstkL4OWNLOAtGNZ51Rbl+BGCWGhaMYiyKXz4mD4TU5XZKggJ+psM4OLYEoCBPREQcKHHHXwjaRsrXJl04Ey4EC3jMtw1502o9AUssI2jqqUUgR2Sykb79QyEh0RF4BMxY8EBdTLpEkQ0bfyKNrMobqKAfZhtGUTmkrXCisssdsC4zFJLJNRHIC1lgy+aapgFgijF4VwMK6OBvWkGOqNxxGY6YJPbomMG8hD+aQONrappQc1NWxKPpWJZGIca1q6YJqeOyYkBHgsQiqkkU01nFNFxCLh5AMq1of66qaEmU6m+lXLT1oYK1kXZXxpdZBRLJGVMrkoyoxMPAeujrCYSxOpeSdd6molDktjOjryVBkHTsaRlMqg0gogoNOPR8/33MHrLV6TyRjMVchRuPiBiycNR0fvPoMnn3yccxdaINvSMq0Nj/RDCDHRFakRp68gtwrW1QJFcnqt2OR3R6ujOAcrOhuWPDuwBH/TvkHWhrU0oFCgdLJbACDETLbVvPa1khyLOcPiDNvcRCXTnlTyhMwQojm6G2MyDVgF16U7UuRMzcnLHdhQaAbgiR7K2gr1PtkmYzRvJSTzLFLl0WhCIIC3lrvZBKxCP2PckF0Am7p0Jd2P8sS8dxy3AGV+9XsEs9FjZqtSCDXsr8vc3XNKiAcYBWKmEImwQQ/reEv9y8F15LsprFyCAOVsrpws4NTBYsUkOiZoi2gAlCMtOo+4Mrt8t+WnS8FvrqIxVqWOea+4f4XwNhGpqJ8NSzvaS6ZArcw1KTB7ep9trqyOWpDiG7vieRuLCYLX1+iRiDu8G15AC/NDTv9ZkbMAjDsQx3nvpbmLjrwd2TgiEYtjKQUjcv20BoTyVOsb1kPtoiF0LFbK4u8Dwv2ZW+0Awp0y7G9kD3/jKwzqEzwsOeIZFc+cMa0rdSBuuQKCjRF6/AgxzNLmxk14F27I9spKaFqdUNmQ8rPuFLcrPoNwj4XR6iRBlvvdIqbEqkE81hbFiMNiVakhc/GLdkm4kEiY7+FAqFgU8g57Mm3qJ7OmuOppeoijHM6aAUXJKgxhc/1zh/W6yn2U8VMj32XA9U0g8sUkNTnUoVuVUlLmZG5ZA1E3LQ1JadJ9wpZ+QJsGIm6WRTaGSDCVjnNFDCTIl0OOcpLRxGLJeTequJRLG5qkr7x7lVJdCXhFXmkEUVtinV1jbYp3R3JZxEJx1CRJBmRaYk0ZqeBqsoYVu0SQe3iIjKpNEIVUVREY1i0OI0+PWNYsJCZrzDq0jks5mRFITQCfSri6EKhKRkDwIwUSxk5PfRlvHYOTQ2aVUE4L3yHQEfCWsoYZcnsA1vXruZLPgGhDh0u/RPJl8ySsDtBRxrzdZE3w1HQIdSlKOOcQywWRSIWQ5xrKZNBgcJN5DBkslKeqYjHUZOIIBLLItWYQyEfQzweRk4yEMxklLpZJO0rGRBCLgZHXHdUCNV0sfBFrDRkfNEgMhdSl3GMXEZUQICpYvKhVChKz2EJzK2sFKioBjV3+Q0rEWhrcUqAFL+Dsuwapbf8KYfUmiVQfo+0JhtxuLx8oEoHrr1Xz3lZ4ybtrTNISj8unFQSssoL84xzLbb8XWatWD7g7/ZKJIVfwxbbaFEmgpWOhGZdcPrnovYq68SBAjfu3aCSHUDKjTSdBQejygECAxQKugmmtPKBdTBmyQFLZVCRjGtbpXTr8GRouzNCgxQlDyqoVYArHQAMAVpkC2SdlpcHzMHp69Kb1GwXwQAn1Tp+UnPJo+aee/n9lmUKyt2/3lFLxNGWQy7/HUdkk/5nOZmhZK0w8eWy1zhkoTHlaOStkurdypspILqjMXiA8B89WvQfzk+XEaVMs0WjSMZ4ZNEB0pEa6uVaFJK1pdcYcVt6WcsHyhl1bT1clJRRZaaADou1aYmWgyyQC1JK07qWfyk1PwgkUJC+Zz2YyKLm5lV5VX1qUWRjvdMONomugw1RYpErkUqJdcx8EFhIO5aBDiFaSjSjGQLWbQkKXCeC9nIrSJF7kd7rqPAzTGNWwZq7vk2arHDkIyM88VulC0PGSKdQEYtL5FrblJZOkq4JqlKqvoCDsPwK1aO3LglLHysUVIevoMClVrU+yhhYfYDGPOoESEhUYqOUJWR4FCfj0Y6aVdD2Rz2sCCD43N2rKjBnUT1qcwWR0+4WZWkgggYOPKKwEdukOD43rK1vqkWhw6/YLlmPBJLxIvpWhbCwgZmuAoqJqNR86xpy6Ns7hobFGSxoKKKWRFLW98URhrFKPIKayrhwWhjFc5aE6F0QlLFFMpJFpimOkHRD5AV48dxwnU9C0hTymzpZ3hPXFB0siY6Uv5ahP+zhz5KwSKcdkRqrAihek9kacj84NIiaHDkBgY6Bzto09yODD+49fn+XGAFaBsUCORzCU0chTz4AyzHqghzRjVfKCNChnDfLRUoMDkCBAFebrmokPRkHb8qYpayBxv3EHk70SnVAdM9KBUI0Dso4BUEtmnvHQAGHaAmxjZBJnXGlAwUlnloZOKFTN0Bge0jPCec9LSsp+0LXqWpi6Akm98zZC8JnaX4+l8MQ/h5LYRTr4lp2gjzsVKljFqwYQs94HImYKKCIJkkgXmTTchXomSoonaMx9zW7ps64vA4fnErlHLc2QAG/j6BARJoCOXqFNOliAQ1NaVRWJOT+pTwoGZ62QYFkplwpRvapCY/JPS4ha15K9Aa2V00UBUlcV8I3UghhQVApSHdevKwIuVzHeTNOQTk0KFXlDHG5bFwZYCj9vh5xmuJQAGC4VTYYp0KVD1hamjvli6VD5HVi0ZhGTeVtdktzkRXsd9i25hCfm2HAly2ztizaFScZYQlBU005SfpqtKozwQvSeeXabEqcAj0wuIgICvg+ePDQgTal0gIKGFGJcIvtINmwtvllLkOH/Rj4sCFZEs1K7c9AiK0hHiokQHG6Jh2pSpK69aabW1uNFF0zjSfRj1AuCQr0yJPRrsaxYDSqwMOOK9OSj5LBzzXFejY1EqSubMOYpDdbe+cJOvj3VMpLcnCK48rIEueBoez8pqZGiSgFFKTSErHUJJNIWu84a7o80Fz6V3CyfI/LOiqxKAAF1vJF9TlVZNQZ7fqKNOPC84qOi3wGpiJ5L3RGGYkEObqcV4yCcTqFiMKhPGoSqpg4Z3EKC3IREWDqSm9O51nMm/BVSHgnBAcsHwjvPJdGNKZliLocU74ZrNmDREPaMYdsNCYU70WNaazWqxKFXAZfL8xhYZq1dVII6fAj6B2PoisnQIY5zIedJ9pDLqCA9o3mkWmKISx56QKK5DoI0VCJeQp+NCJUBT6nKcF3R6U/8j+0fJnhxUnmYpqezx+h0BE1F6SWRjFBsRszPU25rMjOMhKnlZlNoA5FgbwLllioJJkgoTWCDEVFoGp04RAHGRkTyNV4HShgHEjRTfIXZKqlqpiKAJXwANRB6/ZTjgjBiwAMcxhCNLSyIv9IQK55Quk4MDKdrAW3gWWVKCjQf9N0tewVcZQFVFpGTb9GXbXbX+U8AgGzQogr1fOlnG3AVcGNft7Ju/OcISiQ+SNByGtNbZIVdCVPlVxOshRnduCz1WdyqBMpRqAH22kTEXkUtm/rfbryhAEX4xBoHq0Ucrr/Cly1GNqIlPbczUBK2ZHHEI3iYQQFyo00PRiZ9phHXSqN6mRCODnKCxB00OaJKcJiQrZUzRhna3nAMh/m/jzIpthvqsPXoIYZyZS0KOp5UQqvWxaCnN914cbyH+btgoKWLqJl4qllJsHdQvlty8KxOokjJwrtgw4wwpavsjnWZV9oEEMOF5YgJDoikrSNU1bjaF3eKFcVDOxins9SSLpxWqfSlt+MpU86tTSt7+vGUyIm05vcNBqtOqYo/9uVzCRVbM4hFlYVQuerS0x+tzQ0CnSEI2EjO8M4p28qdk3ptCiSJShp7CILF5GbryvRfF3uonW2qG37lOzolqPWc9XpCPGRTkqQs7U12oV4MCi7viTVqvtYN1up3mbIW5TwNAITty8IlNoBKsutQ5+cXoHdP4l0QkgLgWJBTMGR8c3Ut9wfKW7S9qW91XJAyrpVzgNBgSVYBKTx7zJUZkxnpN8/FqdCY0rS0UKmzGYF0DHzQ0a9Zi4sKuIQrLJDmc6D16bksIymzWZlvaujKLUeSoqZmQ8XnQpALtVTWQGulFZIvXfJpuS13bRrnKApgjp2KTRlkEwkUJEn1NQ1qYqJ2vXB8o7LQlQkImIjZq9I7OQn1u0Vx7wFWRRjeeRCUWRTZLhnUMN2xXgBM+fp5MWmLDURNPvVIx5C94q4gA/eE7kL2onB90HgUEQ2FUUxklNnJejJ5Gdtmqi+0yABKT5eSXYqwEWbUXCpe01CZhk0NdGBM0sZF6EpdjXQQadZtpOyJkGm9v+nsqSJchmxc0GdVVVVJSqiXGOEskA2RWuZ0qAd6gLORWAoj3A0JiUbgkV16qU2Wb41ceCmTqlQQH9EX8NKWLbi3Ug1OR+0vawkSyuD1CQjpERDJR6WncQmbsVrOR6S7Gaql4qsr3J5RFJcOoNK8vMKpi1j4Np1A/DgQIFxGeyMcuUFgl2W/vidjuBbOivKPQLBkWYKKK5FngfbUuvSWWHR8z6lLTsZ0zZckiT5ZlmXtzZDiRua1dLb8kzN/8ydmEs68QVOhyioFg54BZJZlM6iPBZzRkYygRrql7AcIGlG13zsSihKkOXal4xJQGxxHs3WfYvA2uLpIJqWLIORCVUDpW3wUe6jO9KblZUPOsIltn2N8puXINcOPCHYyVhPBx5KTpBmZhTEDc/ohZtbe1AdQmobUFjOtVXBollKyZFlvo9HtrcjghqyuZRbwY0oKUZrN3PpQYl1rcNDARNFiFy60GrfRjQp3a5+iWPH8mDQrhBdVyLcyRR7JIJ0PotUJoNkLIouiUQghGFF/5IOtkUZ5cm/9oBfc7O5rIAWPSU6lu1iiFrayhQUqN56Kc3H75IpitYBEWA+eccqJiIEU6MRShRvJT0HqnkgidSzFCl1ZoEyjsM2vEUPMhk1JVPmMuJQu8hEyjyKwhbXyFTKG3aI8j2IHKmlXbk56XaZrUjTUWYyCBcjMhgqnUoLKGBmi0QgEanhsKC4lhtEttQU7iRZ4hyLODa2i9rAmTy155n+1jer1BxnsFI9dKtNu+D9DxrksGRqc5Ntd8C0CeP13bPFi4cWNdZFiZHzK+KiHbCgoi92XD2KKVNmSITNs4ZdJ6tttgMKc97CzHkqnBIKrY6B6y3EZ9MapSTBa1KYep3ecSxYkEG4gvyQIhobQkh0747N+i/AN7OB6bPDqE1z0mJanjsWiaGGXQvxKHptsAWSDTMw9ct5Bl21v433R1BQCDOiZ3RGLgUdtr7LgoAhl2q3+rr154sojrDtQkhQqrYyjlw+I4TBYpEKiVFksmklEho4J/BpymYl1U+QyMmQqgysXTjMaiY534ItlMiiuqpCyiSZFPkKyj2RfWYp7KZcDtGYgg+2rjoBreZJXV2DmtFyHUilVDLfcdCqSlhSxjVyGSblpWpszAxM0BpYFkGq5r7ykJQbY2eliT4R5MqsC+mCkGKbZheN/Monk64HU/nTVaj2l0xBiO2NKpTmWp755wQ3wvuQlkk9mdr6Ucl3G/dezAnPY1GGHBQtq3LB0zFTwI2t2dJaiagpO9retKt3aGJTMjK6bxmg8D0JMbbIzGERC9M5NBUK6BKLSssknz/PDS7qmvpZ4Q1Z6UezJW13JzguuAaLJVsFQFGEhzj1VTt0WgbZ34fLannNHxAUOLRUWjLOENyMdJwyNEj0zzX9S0EYviiWD3ToiVPTK2t1KavDuIcrkfA1Q8DvEV13IchorVadnxNV6ThT69oupXa0Nsr6rIy9C0gm5XKsirj1+dUGJWEMJ2ziwLGm0114X1pYAQtZ2sR0KAf/NpXPCbGrMh5FTSKBuDIA9YHtogJcyqxiLSMlRa7y1Ey5qcpkdzVNR7YtowUdOKI1V+1s4CGlHRR2GNrmZoRP1r7rENcEi0uz6b/z3lwKWdPI9ggWRckcB8rpyjAj1nsJiGLIst9ZiGamGy8DlBjhc2gQSUOaWuQhKoORrH7rvl87JNiGpQcyU8x8j5TxrcuwZKClHo4iJnBtzKTEaTCdzV7+Sj4sSwaiGqjlD8cYcOtExuJKFwZFeELIpOl8VFnNgQdaraLfmuhTzQo/cPE5a+KvN3wpAOSraZ/g7LufwbVH7q9yxgQz1T1w6D/uwr79Y8hnGvHn04fg3alNaBp4Au49IIYL/z4Sq1Ql0We11aXV7+fn/gt1r52DF9+hMZrw1czt8JcTx+LS22ZIhonPULX6mqjJzcDCeVlEkzFkM3mk0lGsutUOOG+3sbh+ZAFTvi6i0H111FQTghGsRQQQzPvyM2wx7P+w7jcP4b6H3hL0Sm4AWZyckplNxVAIZQQUSMutRPFs61OOhJPSlqVnMxssqWzaDir0FY9HUFWVRDqdQTajZQZ2WOSicelqiHO9cAR4kd0iLJdovZZ7imdOBcmHfMeU2g7nkEyE0aO6Snr4040c4mWkHlGW1HJXQyaDWCKOItWKpO1Wz5ZyUKBrWNeSkOycAC3fs9SnFTiKGJWbROjOJpt66ECBZNfY6eXKEWWcAjeIh3uEwDBI5btR6sLDcCUZ5SBxz0hHhJXd3Pc70Sd9Zj0dGHzIQDGZG+DOEM0uKO+j+XO3OlXtDKceC7VJqO9BEEkFTKeFw/upikbRhXNG2Jng7GL7XkoZLdPYHXB86zsySWcjrvLPyNmpZYstz5gQ23KpGKra1exocJwpgmvNMpbv29Y31sw3uWyo/RofSzoLZFqpqRo2l2rogCf99kv8YKCgFHU6KFDKXzsegihnCRJVARPJFMhEMQIFG25j5BwHstx1y5ejm7inv6PfxzQhF148ypppKQJr1hLy7fb61t+Qb3OgQCIL9pVnJSVM59MsY9Hi+OBB2gwYWDpV2b9uSmW7lixBHd3pmh5lyrTAHtwwuibiqHAlm0D6044vi05Kkp4uD+FqWW08ukQbdFn6O5K2FPClwkQi1sMkrI0wlaR4oAqiaE7Y2VbvVMBQ+h73TkVxy1KIUj6wbJoVEYIBTVwnEnUJoZP8+tKoZx4krA025DLoEokIKVDGg5NgLxkIFVVi5oEWEXW/ooECCk7J1EjtHqCTr8+k0ZDTNDwHDNEBsnedgkDCYJdIR6/jDgslH5k97RlY0pG2RKlTs6c8JmtFwZ/VIw1MiUxvVLURWM5krZEaFpeMehbXHXOg3BuBwrB77sdnQ4/CmHAUqXwC/37/XQzuxsa4MD666VKcdNUdqIlp9qoYjqnKIMlxzFQQnMaOxFUnjsElt3+tEsuhEE4Y/hxevewXWDBXD3DqAWTyMfTacgect/OruHZkEZ99k8eJ/7wLE846FmMZRaGAbqK9EcGgs/6GDWY/jHsffkteMMl6oSiHcgG5NEEBXbSKwPIe+BxKULVuUsuuuDYsya7JBFA6SF4xi3icfjmEpsYc0mmS4WLSOtqYsTKkZB2V30QOBdcDNRMkSyCkTC1fFHLUTAijqkLT2IVMHqGClbjcUCATtGHGKJlMSruqZDS0/tUKFAjz3uaUaN7CVAEpByxlfCNDSh0J93mWAAAgAElEQVS6xNYLGgOtXCIlQwMMjnyqO8aEuiwjRycmM2vK+ABSDjMeODNukqnlfzPylbKcZfNEE6ZUYLVH0j1gNXfhPBlnToaK2QwS/cp2MgWiEKpcCGbH+MYpHkVhIMer4DnPtmyWw2inJss06rjf8ti6g2Noy+BoZ4U+gQMFDRK1K/CsikRQFWeXnWBa1Qqxqacsj+r5oVylNn8sI6J/py/HZY9lzYv0vRbYSiHf94CCluDJfjBQEBjBXFdbqWm3lMTRSERgSloGDBzBRV6ZY9GWb0KRxlQg4BIvThuAKUNeMhmNaybCMfpLCYxvdfhL8wsKCrStRdylbDgVmiDhrly4wh0fjsNrpNegDEBiIQlKql7nigNLuguzi9UphYEsKfW8LGCK1khborB/NfXlQIw4WBelWwlDZT/cs7T+3ry1BkqdlM/Jw1YmqxVEDpjORqfbGStZuWS6AjT0MR1w01V30YcRJZ3ENtPgGo1YNB/sETdrgIE82ePKXM+x3dNao/g1SrzkhMaCZAoYqXSLJ6R/nA+Yk6FAKrfqyG38Ch5KMt1NUGRWU4KmiMhDtz6bQUNONekryFw23gY7SJg9YNpdREYsnaiHrzl7I4UqeVDHqUq/fTSOVColDH+Wf/j/hV/QeyPccNc1+Os550raf5NDz8bgb17B70Y8aaDgIEs75nHDQyPwm6OHCXeiIZvDsAfex+gLtsfk7gfj3v2jOP3yW2UtxKJn4e6RPXHhhfcgGl0fv73+eJy7/1AUY8fgiTfPQf2s93HB/mdjZiiEYSOexyuX7oWGuriUDti+l8mE0YuZgp1exTUj45g2J41Trr0LE88citcJuYo5IZVVx6PY7tzrsNGch3GfgQL+XShGJ1VALhVHIWwdAVLGikh2TfvlXV6rJKXtHC9XBbNMMjQqQmhGsJKSzg0qJ4r2BrseMlTLzApBl86eAklRai0xk8bAg0NJIiEhoZJzwjXRJRZHNJzTtleO4QrHtY3OonySXTmKmqA7GU+I8I2UzkoBdODEXPuwlnNYJdeukvJoXLTvA/EgFzBpIKB7X8cbi9iYtScq7HagXWJ5Hett6o+BU7HwlO2/vAepexdU50AlPNweLXXN6Dlqe9W2voACJ3lMa8u+VKltybLJOm8bEBit0XRZdVAUOR4kGXKf27EpASE7QBjE8Eoy+FLs1RJqdDwoCLRM7DtFCluGcum5wD/mvumaiEnWR3glJsnNTIFKZBhwacePa4XHeGamReF0B1xHmppewy1d/Z0QFKifVmOVAFRpIQT4z0LF8mja6WM49MZr6AhcZchK6cGQc4mU5/pzTc8+m5UxxdJ2FWXauMQIleirA20uW9TajtwzS1+pIw1ZDU+iUYMuXHyupqnPpCiejptOSa/jsgxtwSnnsHXhuvQ6HRLlaHncSvoypFEsI0QBBIaO5cARNrSKdiizWSNgqZm1syg5214m8rGVUmYHUK1OUW5CWucIBlTRT1QYRYzHOMLGrlXxJXJLGC2XDkOpw8t4Vz1AXKagnFPgjgmX7RF2ttMJEIViKxlZO1MTW4uyGUkDdkskkDTAI+UDAhjpCS9Nd1NRKRUX4myKvHVvhPNFxONxNOUycqix771rjHwNbasTIn2RUzCth0cM7SRstUOEGRMRVbIpcnx+N4mOIjx8bimXKcJExdpbY8Sd5+Go3Y+VPbTO3ufh3EELccof78SfXvgI3b4ajzd/cz5GLazFzr++Er9YMA6X3PEUihXH4amPr8CUcS9gcXIN9Hz3Ppxw5XDUVFRgr+texydX7Y0vZ9bLATfowJuwbfps3PjqEbjs+LG48Lav3KBNnH73ixh76e5INVSjtiEl5bh8LoLVBu6Ms7Z9FRcPD2NefQZn3XAXJp5xrIACkVUOcRJmBDv+6jqct//amDltKu46+0L8r5BHrCIihDNmCophHWEr4lzMFFhNVVr3HNAuy5jovqX0LLUOQogwlVsooKIiIVCzvpHaEVkpIYVCUc0I5bIq5iMCQ463Qe0Ha4EUISc9kCXVHzWyKQdXEV0IgdDGmRfDmN/QKClw/m4V21PdQLKg/c3OPHME5BNIp420I/I+VP9CS4waGUoaX7qUrF/etRnaqGhxypbVENJgeUuildkICjRfp9k4zaipMiY5BZLtsuFaMjuB54TpLFCJU8V3XMaz1JsopQsb4iS0VuNYsOtAVaSDImYbkYvmEqkjIYqmoaJkbyk1rXDGNfjxLFBhLNeZI2/EZRiDLEzHgwIXxAuHKaTEW9b2BdRb4EPAwvk0SRuEJswTyZLYKekuUkq5NrOFycQELp/ZkkyOcvf6zt2P6dOaTbXo+EP9/CCZAocCddk0/3EHeylJXWqkdS2I4jTbsIgy9cky1pKDG3gTgAoTpUlnM6IqxcMgGYlJqlcxmKb82sO2y/US7GICAoRFrlkPcVxSs3aTJxV9KlNZk38BIGAZgREFdfQDf28pRTe0w6UgmyMt+W0dCscWIQrKUPpWSTQEBJzMp4DDhJBcqtI5ICFGKps/KfwOV2pxL88OOhRlyp0TUNIoipGXzjGIR6Ol1irLCghYsnZB92CMPrRlS6eWqcGU5S9MeGZLqF1UpjZYTtHRkqcd8KbexkOTa0I+L+OrtfzQWMiDxDASG7uzvcilCE0AxbU+lbpBnJKbagBkIzowKZSlUFFSotmGXFai1Eoy0CktyOgrSoIbo0g6HLbjMYp0vee6C/Ts0PZQAgIK4tDWVXH22LuI04UsCuCquu2KA4/eGAfs3RNPjJqIu+55TsoHlz70LP7v8H3Fqbo5Devuegh23Kin2O3lW27Buw1pRLY5BXfvG8GpVw5HlxhtviOuGXkavpg8BSH0RM/qt3HV7+9HJHYkLj3uDVw8/CsV5SkAp98zGhMu3weN9RX4esEiKYmEizGsMWhXnDroZZxzPQl8BZx30914+/RjDBRwwiOETb7d2f/AJrMfwr2PvKVtsSxpVcURovNPR4TYpx0ruhtEuc2cK/0NWwcDAbSyVk0CAv5TXckoOIuKZCUW1WVQ18gMTRgNqTRSRnDje5DhVeQTGLmQi5TngjoqLd/xewjYaioSKlbD6ZHBIU9QEBGZ5wUNTUKWo0OrjjGTUNZdY9eX9y5LmtkjltU4flvXAvek1vMdGNVsIKdVipK9lbI0hae8BNEjYc1b2igtypJlop9VSV3twimBAr0HGTYlQYvWvjVVrl0MVJmUU9aBAudzrUSgjttlCpS4y7ZbAesS9JRO97ZjLO3FlfZi8bKMwrOigCk/QceGBkQMKnhekc9nh4L7xQAWCAgp11NYrgPbvr48WW9NMAQEylGyco+12bK0IaDAlU9EgdLx11zpp22v4rJGjsRJq5M7J+PS2/VEHRi1LoWNfjBQsBT3stS/IsQz9xIYMdAJkTUcj2k9X1S/dMGq5rmLlhlVRIWj4DCtROFlrYpBXWK534NF6zbDXpCmDNUJIWoMfweAtD5aqj/yrtRhK/FSWq0ka2Ayva69Majit28yLtIUEai1t7kDTzaayPO673UL3jE2udjprPKojGi5QYYCuZKO1ff5TA1OfMVSeyKWJD3qPPyoRa/XVLKSOnZVC1Dgxw1CrQHWJ8n4VaBiPAw7OAkMeRBKbd6JH5VnndqZ2CZt/AH01nY09qZz3fDgr0kkZWobyw4UeMrYpDnJyQQHlf6LBPoyMS4i4jd0lFQzZNRXl8vKu63iM8jIgyhSBauTSssfpVPJRtBDRFrrpF9dD0IeBAQwBBGUUe1bE0NjY0pUCuWgl1JQT+xy+K6otHP3mCGr4p5HZku0V/vFh9j5gmtw5WF7o8B1XWDLVBHRaAHd+wzGDjuvJSlQApT5U8fhpbenK/iIAdUVFdh0x71R//HzWFhPPYssQpz6mO2PrddfiElTFksEz5r8sBEv49VL90axKYZ5i7JoYgSbz2P1gTvj9O3ewFnXZqWn+twb78GEM47BGHnHSkhjVmK7c/6Ozec8hHsfGmdCOQWZV0BdgkKO6WfOV6Bqjbbz6YpTnoqUgsSzqlMXUpplmrRVl4qMJKxyBLWWglIcz80MQTaLehIFWRqwFrNyPyO6HgYK3N6jmbtwLDPr2lKBMKEYCyxYZlqc1dHnbviUKEjKhD9d50qyDfyYdDpw1kQ1sxLUbGDWQARHRBZJrkMQz5y8ZC6cgJFlFnldR0LmluRwLgZCzCowxa7jl9l1oFkIlZhv7pjcfzVzPvJZDozivlVtDOU06PuzJJeANdm5wZwOU3K08qCcD25ftnMsiU0oKmWDjDiJM2PzOkqu3wAP5xBwCqqIBrR3QWJLVfl0XTou2HNAwvEe9GUsIbugHzQAYEqhRvjTPg09tXmOUuPEBZZL7bSCBzTQoKlAWd8NlBu38sQyX+97+MBKCQok8guQmaJlsr1l0IlpZbuWNAEE3DjGfBVQUNaB0CYoKI/ClzGPoPtCMxB87yIZKuk8ap6rQEe5EIX6TXXQbp63K4twB4pam6TErS2o7H7axS2mmkhHKAjUSixc0JSGlQ6Msg87ISVJNQrhiRF2DhUEBay3BvdoxBgh5RWQFl8fJPHl0CX65/OIMpzLyFjHhIIAN6XAgQLtp3fiLqSnaa+9q+MxC6RkLKZWndpb+3Qmt7E1Vgoz7UuxGonc8yqvW4SI8rDFiNGTtlNpNqH84HT/zrdDORpSE8mPqCtkJKriAS9SDCEOe9GMFUEo69SRGEWDGBXqEBxNP+rhJUp2rg1XSF1kHSsZrkdlGIl4AulMAammjABYjSyBaO910X3uF5gt90x5Yz5PCCdf9U/cddH5cv+kV/KZth56LoZtX43jTrtcRGX4jEPO+w/26/ESTr5sBKoSEZkBcO5dYzHn4TPw2QzOc+CURdaEfo7jBtyLP4+cI4OQFtY14aCrHsBRW3UFxZVyOcasBcQbp+Iv1z2GYwe8jmF/S8k6P+p3t+DQ3dZodlSFpr+A2z5dF5vPfRgjR41DJBpDUyaNRCKMiIRbOh8iJPZk267uHdkbVMS0EdGSwQmxCymEGGcScG/lyBVipoHvNYvuFRXSDru4KW3zIjLIh+I2m4AAsCBpYQdMuY5lSI9l6yQ1z44TmSGh9X8dcaupfplMR4JnEQIK6MgJsiqFg6Agzrmf5kbQcgfBY14Ge+VRHY4HRDOCBEqf8z2Lg9cV0+xayiXQ00+kk5n5QBFNmYwQKEVZUaRBSiXMNn2GlUhKmRdm8PSskk4DZuqk9GaD7ly7s9NGkCyDaj+48d0OFCwxlrLspBBVheSZ1bbhoHZeulsCaXeet4sJbJaM6k44nT9DzsvoLJ0tZH9a9oOjiPVMcABPheGCwHJ5AkfVWzZ8YqAg40HBMr6utn7dEQkdHmRajC+LbGFr+xNiGke4ar+nioiQxBKT1LyTBHZLyBETgw3tWv+WERS42pPMjpeZBaUom4euLLqAHKTfXo5uXepaCEUsi0gnozKj+T+lZsUloF6Z9qetiEri0Sich58rIUhEbKZ1B7BL7TN1SXlYtu7x9x071llb6p0yjbEUc0iXBftrcyxXUCwlIm16QvJzbZDG3wikOOTBSeRS1rj2P+sQEWmpkuqwKsFpKrWkdCeWC8KAUomjFEVq6UacMkICCpi1cYIxlFbuGo9LGxqdq4ACefkuO1BqV7V+BGXoG3HQEcOEkRyPIxINyzhl3pLrIKlkOjwWVdGcLDktlLJWcVg+o3RLWNpQszMF1FSQMBlDjhMjKavL7JJ0VGSx6tl34pDbTsW/jSWu8qc8xPiZSkQLBVQl+O8F7HHt/fjmnJPw7OJalYKlXHhyJ9x+z6444bDLpb+/V49uOOuOV/Dm5YMwaSqFf3JIZ3JIVB6HK4eOxtWj5snz1C3OIpOLYpUq1s6zSMS6IBLPYo3eefTZ+OfYpu9zOO5Kfe/BjrTEE5+VHQw7nXsttp7/MO5/+E2p8e962Z1Y/K8z8e7CBql3KSjQDwkT3ur7DgxKVs0UDblw2aYsYlV5dgpEVZ8in1XRG5OAZqSJQhZNMmdEBBh1jK2VZ1h2Yi1YZ2eonVU7JYp4iIOWVBBKxpLz1viuODY6V0R9RstDtD9vW6YvUvvCuTi3jmx/uwFDJKTmQqzh59AtnpTMiNjNWOzuvCAQKoXp6kQ0WldwobX9sMxtqGtsREWC5QsOZmoNCFqSm8tPVFfCZCaDYFVLtTp3Q85JAwm8AYEqBqCkDCGZCm2j/LYsQRAqWeknk81KaVOFwkzrpCxAkuxhjAOI2s8UBJ1jJPBK15OOpS55hZZeu/1rBdkdAQSUoVehORcw6ZUUpjEA5fumfZb5x4EC+aBmvJkpcNBoma/3PXxgpcwUODsEgMtQPl8WRXq01sQe05zosMvCE0IXGeKa5mPPbcBra8HvlESRLfSWKbhvewca+ducdFmDRMU5YTaXnKEtzvI16gBkGXFIIiJr0+R1NYOg6nZLIqTy/unARADDeodFUIclDC5oAUXm0O3wFhKQlTd0DrlrFXTpxFLk4hjGdJYS9ZqTY/0tK6117PcNi2iO1GhtjKo46bKxxi5C4HXcHAS+I2mllLYcnQCgxDBrGbTSgyZkWgMj1+Ovcw6UU0C7M+0v4ir2rqXnmIShWBw8oOiIdIhRmWNzqWCojgAP8sYMf1frvey2EMKYIhQVluE7o34Ba6IEqGF2ZPD9U6SI8tWqOynOhLaRyFy/ldfqGk9qK760yrHNrohu3Svl4Kw56nb84+j1sbjsrJN/zdXjr9vuiTHFAnp1iyCZjKA2FcW6A6/BFX8dFCzZmS//Haf9fhQWLU4p2Q3AZY+8gwM2ohiRPoMejhWYNmI/XP3QPNQtWoxF9VnEE9XI5DLos0oMDekGNKVjqIoV0XfATjhlwHicdm1K09YB2FT3yL3HUcw7//JaDFrwMO4b9aa81+QqqyK0eI5+r9S4bTKeKWDKupWsmknk2rt24m50im62Bfkr5CbE4hE05jOgln48GkciD1RxrySjSGWy8u7SNoJZyLYRDjnKC3eH+4JhOp+fIFxEq0wsTeZq8CUT1IcjaMwVUJ9Ki14FYbpKVBVRGU+oxkQpsggyaUzO8x0mKU1d1FLWKskKWcPMZMrqkb2o70WIa65gbudEiXdkxF4bzrWoqUkkt2XmiWvXLXOmrnznwoByP8u1zH0rrPnAuZLcy/VbkqdXXK8X53MoKNDMXamu37wVs9VZaccWzwwGD3S+br3IarHSpJZKItI+3h4ocE5cSkx05KYGSj6PA3cu3FIs0zzr0voc1ywJn4DZHxksJotNzxgHCvg5NrUzWOJ+XuYfAwWO/Emw2iD6Jq35dst87Q76wEoJCspdQfkRzk0stWxr36NaWSZPxTJDohK1uMVe6oQodwUO0cphH6DkZbF2oNATDHVx2QESiPgjmQJz/uUoXuRszdlpxlnr39qGZP/YfysPou0fJeWpPoFGktpep4TMkMyP1xiolLjT0cC6+KVfVnTWlX0fkEFbfCHv1SkzynwDY4wrAKNjJCgor2C6FLpFPkHrKL9LlQ15sHFTMj0u+vhFlRl2DG3lfFhCrw1Q4Da/DKax2QOiQphVhq9scFE4LKIqnhD1OkYZOl+inF+ih4iqlSkrvWs0IY5vUTYl7Y0shfDd8MBnxEQgxJIBjwoCAvms3IOqWuqBVcIdAbCx8gH/qkucrHettdNVRqJFVFRStIitX0wxF5FK8Rt5YDPlz5oy35YybZKRAiJRTsZkrVJr1S4l6t43060CYEwama2cruGVq4xRUHWXMArZJhTyzNxQmImArxKxUBqJCioGxpBEHtW9uiNWnIP3PtehL6W9qfYTDkcohPU32QK9sQDTp8+WTEEmy2fjupSue+uVZx+IkuKkY4Xu1ro2RABMAIvW7SVKI3BkF0M0jC7xCCor4qhNNWFuQ0raJmPFMFZJJoUjI2OYTQyJmRPBUnktdwlZ2ZyGizZV80LHnPNdshzGThuy9CnLK4qBGjvLVUWuW8qXjK5tzVvaT55JvR4SoagAl3Q+gx6JCsmQEZjIeWDiWdwMWgLQDepsqp1WKqYVKCpybDdlzKNsk7Phcy2i6xIosBVgXG5HftWMouUvJfPBibdWDgm+Xe/C4hzpVtFuCb1PbRdfMihwiT0tU2lpU69Sdg7ZkcazilLvwmlq50dAhKw5nSDo9CYItOU9uOCpjHfU3pkp3CeCIhNAc3Nq9KlKHsIFPLSPa5FfNu/AIEKfmO+FO7khQwVQDwqWxY6tfrcEBMoWom1E1qaFSBji1DRzBFLX1Q6GRJhjU3mgOnJKqWZkvDir+2rL0LJmCnRcsPb7yohkaWnRVy6kmbKMgMvfKwBQn+TYA3KwiIZ+aX5EMBDKkQTbSa1xmwggMiQeOAOrQzIC0KO41PstR7COD5CIOm+1W6a76diD0yl4G+qY5VAQ7XMOu8lYqUbLFbS1aNNbC6Qe6m4+uj6fHiPa8cDojM8vZQirMeuUWq1fuo3ksLse7RZGWVTvbk+4JRbN8PARgqDxK/h5HvAVlvIt+WmLLfSU0+OeNWg6j0JeHD6fh0RBYbDL4KISu0EObAfibIyxSKcK6VJTrcbf0rYv17oaDSOVahIyWvcuJLeFRZGPRDke1rwX6mwITjDAq2vFUtqFCIrsyWP9PWsCKOYISywJJUpp2VjBIX9k4p4Jg0kwnM+JXkKXyigKfEaWMcJxNBEgkLtDffrKSkRjRcQJBLNhzEunZXS0AsQgHjV3qeOne3ZJoKYijkw6IxK7uXxIwAtvW9LWounAEosCARWT0sEzyvJ2xQlNbSVllF4euUxGptdVJEk4zopEckMGmNeQERlolrCqjdSqmvJqHwUsys1wk13FFkJCtrUj3Ss5Sc2zuyTM7hU64SxBq7au6pV4DWbHNKXsuDRB3zvtLsOZCBw5nTItoL27lZ20ehCWrgOZzWGtqiZ1EoB/7k+N0vWsYI88x1RzLbJUIuqa7ZwJJVpxab/YsSOlFQZPPK8C5r91zDQj5wkeN3VD6WlS+WnZhda3b//V5vkup7XptjA7oW18pZZJF5e7XU07Ui+i7R/9Jrbvct+opLOVTky5NlCG1cYH5W8sAWColoxmWAORLMsSlMMdAf/fBRSIo/Gg4DuBgJYfLs8OuL9zS8uloRRFOp6/tQVZpkBYxXQy0q7m6tUWKEo6jzV1lbXVXmIX3ek3Kxu1vbWqLoYHm6sda1tXSbjIbUbdJEEcHgAGjdD1uzndTx1PiRVfIgiV6nGyaJ3yn0llOlGQ8jslYBInZc8ROGluTgMsytRWljCdHCMQ2VCuT9wOfvl9ExaSaX02klaeiHVWIQspAU+vbcjHQJI7fOUQMM6DHLFG9pGMQLOeI+tmsAcqP96C9J4tDon86FxEqpQ1cWYDSi6S71AnTEZE8Mi1NSpoK7k2t4JEgEk6KzSDxONMZgFKa57ekHI+tP3M9aAzIyMsauuGyUlblnbM0CZMXbPE0JhOSxq5ayIiDois6mg0Jp0DtIdOXOPkPf0unQkh5A6E84Km9HDkfUrpxZTyZO6Crj8XlfFOtU6unQ9yr7Y+JQrnumM3iDgqLauQtyBrME+Z3SgQzgm4zuQjWNTUKNkdR5gtgbUS4KZwTveKGJKyL3lNRtTyL9pdwIxLnlMPVcmOfpsOW1TizEu4bch9zewAmewiEx0Ny2hnDleKUhEplMDCxY0in9so4lIG3GwdSrwthFqW2ShKpQe06/qR9SthNNtlVTWRXCSKB7FThSOnKVpUnlzmepNBWHzXNsgsCFkMiEm2ggBT2oSVHF2Z0L0oQIKghXa0dkZV5tSd6uJVJ03Md0P7MEtA8KOchqiktktnYtnOD5TzGLSoVoJmJ9h+GZE1ww4Y/jvPCFta1nlj6zvIGjpwryeZvuWyY3IJZ6MMJSPXi2U4V+top5uKT6JdHcrVcGUBB+JdhoBndSAaxSFZ1vkkA/fcYWvlifYyBZKtktKBcrGacwnKLiLSWuRmkYQt8CwAba762Oo7yoX2HAnUwC+/j3wnnynoUIiwdBeTIEsIQdr/6jahIkitO4vjE+KMHnDK/FZQEETzxlB3ylWtvt0JmBiO0Fq4tgjx8HepXHXszv1oG6JzQFygwog2xjMdmP63+zNt0ZPealM7k+vZwSp9w2TaNxPK1KXKyJ/paWFUm2JkcCfSUsf6clb+Ybqbh41GuSq/Ka2S1qIlRpM0vdb0RICjzCD8LmXq0v3asndEjhaG0wDHuXlz8W3s4FJuqHnE0/I9uHQw74n12+aTxvSwkLkaEdYutUOhJUdB3o6BBGYqyAtgNCugJbhVBRp0+krMKmV96Kz451L6EXnkUrlF8JFzFkVmHjJyj92SUdQkK1DgeOSIDdESx1xKpcu6KbONAC5pc2RUr4cUeRwiEyyyqfz3YDZhkAIOSga2tmTuiGUO9Ay2uM/WpoChfFbXaiEvHRaEJnVNTSbw0vZe5O/QMVfHI6iRSZ2qqFeZDCOfVTU8pvYJKrk3SXAV4qqMTLbshoFilTiiMqFGxaLKFwmhKilQAtm0ihU1puh0VFiG0b2oFZqqF8mC3I986YELDZaTOTgSMyNhmRmivB61aVO2KECDmSMHvATcmUQ51zpBVbA8AmIZNQS0XKHOUFtzK0SRUWeeuBZeAajcyywrCLi1CY6SHbLZJ6GQcCSYJeBbYiAhJQTjrDSHtrq3yKbXOrnqoIhgEHkSRvDj/iYQ5Q8BsJAKJcunZ48qg7rgpgQ+lu4EVscq7zVPAnjWToTmpPHya/FNKCgwvRbp1LHzWLoltCwkoJlgSsp2Wl5y69jxDgOnayTp8gywrnMtKxLc8t5cDsMgeAB6+N+0A8/QRLlvsMBGnYVrwS49jQMMUuSTzKcGjfwuDTZWnJ+VklOwPOZzRA5RVmd0WKaKqFGlvlUnScz/FvayREmWJubmkBNXtcH1zGz9OjKBW+8AACAASURBVJ3jl570MnCgQkXGJ7DPClhx6nXCcFYXzS2rUyFtMpkdGo5oqGlQjebL63l0zhRUEdJXgMRLd8mNxueSdisXIZEMx8OFKFtavTjmOScRNCMf0XvgZDlGTpZlCSJ/Y3DL4jYWmLOIOF1mG0SwRSPTJa3+9ojGbtMGHzfbaRKhbXCgjpIHkJZwRAhHfkrAgxu0grVTIn6Lmtx3uCyG1kz5DyNZLQW5soS+fY3WmdnR1lFbH9L/zWFedCp0pkZ8lFuw0o0JNFGHny1qvMOqWAg1FZUyNlbrm9LzKKIyCrhaAybeQ/m65W9I9GRkvfLISgGdFH4C5TquKQHKJODaupb0dLnEmgFMGfYUi+ucdwGCWpppL3Omd6vqFPTbNUkCUvI4iqipDCGdIveFjHyCLmYfYkJik+FRcvA7cKIDa8JRgi+dYUBHmEtnbI8UJFKWYUo5ljWYVo5J6UcrLiR85qV+mxLlJVUyZanGZQNlqqmBdcIFdjIw00W2v4A7trbmqIqZl0xa+c53wmO6t9QxBevDOBJSFhPgrE6Iv8PR3Hxmic7l+1X+mK+coEDS8jY5URQM+T8R5VxwGBPLGLyalOtExjxe6vax9e7KonT6IqVr4kwMAISbIGUwzWIQbNEEWkowVUE3xdXAjtuPy3wO0+mS/C1O1+3F8rxc8yvyzCDvR863somzrsVXsxs5yZBp66DOp2AJjKCHZ49osrQA0cEhZJkEIS1KK7RmCggM9Oy0cqIFbw4GcS3wnCQo0POnREyXrJNjIdgCKT+3NJvH4EIDRQYtqlHg8mDLbNUO/8BPBhQ4yznE6JL2GuVZP64odCkSVilgfcHucJR2JWlF0cO/LVCgQ2y0BKERmtZGHSBo9QYd49uchS5QRvTKbhV1PufK3AEpNVfd3A7xOwfJP5d2PkHOpWPLHUP8s1JnQCltygOTjp/ZAWHFBzKsisilDstJYSRT0TYiwqM3JiRDRkBl5RpnZx6PbqrbshA3W/t6ExBxbVlLsYc0vchDqHnpwLlWOZRdOSXADHqcS8pd5tdrpCYqc2ZzAQll+MalTnVN6JHvkr7y7HS2liJ14NOtPx7ErmuD16S8a3UiIe/clQ3EyMK/MDfTAofqOrXIKTjQdH1qa5sDp7q2XAZKSh8mniSTJN2410CNTz8bpNOLOj44Ho9JurZRxiSTu2IdGG0cT+qQ1KZ0apVxRt8JKS2t0iWM+voUUvmwtITSaaq8sElCK95qBuX4XVKeEaJkCcxxwA7Fy/iETE2rZLVG26y1cy+6ORQSfYcpaMVR10qs0xKC7n35TgpASbeO8k/Is6CDIXeCg7AU3pd+3BpwoMBF/e59y3tm3d7J4RpsIChIcmKnCIpp8ME7d/omLC+5LggH/vmtvA5BAfGNcyjMOFDGXWXS9RxSrqNzOszQ6OAr2Z9SQtL3zrVNUOaktWkH5ZrY7BVbJ7S9vpMlZ+ra8lS8D+k6kCxm6cedFS0/Q4fLUprKHVtGIRhYRkesTtVxhYSjJARxjeabZXrLNEiCIMMNPjIyto7rtuyD2ExhgOWRA7ct57N0uvEsNJl8V+YMurk0y6gt0gpDZD/LWcqpuVrycKe0hgmtA8wO9/hLccGfDCgor1+7Be3S9SXmdSmFHyxCM6LLNEj3Qoz1RXOztgjKlzgXnYIBHYajLPRyypf9dimcCBacQ5mMpmRRy2xvrVs7tiu/OctWS6mtKmlQ5oHLPHcO/bG2OedE3NcZAHFpfTosiah5r5yJnsmoE5D0sGVDhHlvIIlpW25SS+U6x6h6EIquW8bjUi81x6uZiSWtyuafLgcG/BtF11rCcOWf9i7Hz0pZw9pBte+g+UHEzxK0MFIT3oSl/egwuHF5SMr7kDZQTTlr/dKyBWUOS5jPQcJJa/XyvJY9kTRsGXHVOR8eEnSGtCEvx9ZHdtAQuEnZyb2LADS2th/5Ca4OLQDA0qkilxx0bug9uxIUHYKy2S1FbO9UCFYy/8I40pY6Voo5081KRqPQENPxTGHTQTnI0urujIuiyWrWrzkLISakzd41ETQsziBdiCAj0TAjZ5Xv1UxUizfGSJPDkvJZYb9ztyY4c0K0LLj2zJnasDMFB3lkjAAoSoFkvstUPuuyMZVNRR5lq6mogEBT+yqWxOmJi6lP0CIj5lwk1wCjUyHyWnQrLlnGLPN7NWNVHhtzL0mbtGXTJI1taXHep0zRFLVCJTBLFtKGq3HOiGqFSIoxkGl2JQwuKFmv1kbYXOVVgY3yS6xN1lLw/HNdG+ZcLVAQ8CnAxcHepfAwZb8irYPSJq2Au+VZ0dbVhNNkbeTlEb+UDqxEKpohRvqVMod1a6kCJEnnuo6CLG2gilnii8kelEygZuj0nZY+p4lkN0hPzxKCAulcEe0IgzY2hVITCFbSM3KlTiItZXD1+fU79LvaZaotm6G/42//ZEBBuUt2L1sXiiMYOjqPQ9bOsibJK4hc08R01tTqd0I5upEtjjOnocQu4ynY36sjcJvBoXirXNi9OFCgKF3iRVkw0gUgXRVaGiB7md/hZj+49DzZuA1sw3SL1G0GW3guMyKbLaoEHqbFWbPWNCIBjakJGtGPB5ZoI1gNngCF5ycPD25uZey6NJjbUAGLwFA1a8B68Lf/007MYDZjypYHAQ89qTMuoS1TSkF0uGWRSfPYRgGgtrETFER1uIzufpPI5vcZq94hlOaCZPoo8kwuCtfMiJCdhM2v/BThhLjOAf62gUneI0sE0i5poEKmWTLFTkfA9rRWZ0WZncoieb13TfvTAakQjtUwy1yRuJGghm0PYOtF5LBN1U+zCgocpKRUoOpiSTeCevnMSimWavvFyj2JVHBURHtCkQKqqOGQL2L1nkk0NVHZLiwEPpqYAkx0xu6oNCqwZAcEDBdpjzy6VCWRzWYQCUVEJlmcAkmvksFIIxbXjg8CgTqS8cgHsXKelIrcQVzGmwhKUVIeJDmWZTwt3yWYHclryp48Bf18yb2Lm7S6u/SwG1lPBJZYBjJlVf67q8roXtQypduL2mLHLCMJspTTJijgYiEYNiExAQXaT685k9Lao53iMt9F23n57VrG1KCBzyiAV6Ji7ll1SLx3J1wkhFyRqFbODc8YHaDmIqDlBAWWKZCMTVlK/9tyDpwsSfuUhNCUoM2BStQA0dHyBPKqdunaoIOSXlnZUjO/eqaK9LQtf22pLmmQ6Jp2oaS5bwtqXOaF3yOAxc2LcF0u5uqFM2SuXssSJHCXPJGxV+y3JZfwHd15x3w8VAyo7B1zQX8VbwFvAW8BbwFvAW+BldMCHhSsnO/N37W3gLeAt4C3gLdAh1vAg4ION6m/oLeAt4C3gLeAt8DKaQEPClbO9+bv2lvAW8BbwFvAW6DDLeBBQYeb1F/QW8BbwFvAW8BbYOW0gAcFK+d783ftLeAt4C3gLeAt0OEW8KCgw03qL+gt4C3gLeAt4C2wclrAg4KV8735u/YW8BbwFvAW8BbocAt4UNDhJvUX9BbwFvAW8BbwFlg5LeBBwcr53vxdewt4C3gLeAt4C3S4BTwo6HCT+gt6C3gLeAt4C3gLrJwW8KBg5Xxv/q69BbwFvAW8BbwFOtwCHhR0uEn9Bb0FvAW8BbwFvAVWTgt4ULByvjd/194C3gLeAt4C3gIdbgEPCjrcpP6C3gLeAt4C3gLeAiunBTwoWDnfm79rbwFvAW8BbwFvgQ63gAcFHW5Sf0FvAW8BbwFvAW+BldMCHhSsnO/N37W3gLeAt4C3gLdAh1vAg4ION6m/oLeAt4C3gLeAt8DKaQEPClbO9+bv2lvAW8BbwFvAW6DDLeBBQYeb1F/QW8BbwFvAW8BbYOW0gAcFK+d783ftLeAt4C3gLeAt0OEW8KCgw03607rg7JdvxZ7nD8e6g0/EozeftfI8/JyPsfk+JwDoi9HjH0fvxMpz6/5OvQW8BbwFvi8LeFDwfVm2s1x39B+wzlmjMPj4P+D+3x8pT9XwzpUYcPRIbHbaHbhpi4nY/uwbsf72p+H5Eee1eurGGZNx7K+vBLAl7nnod6hq9hu1OGGD7TEWwAPPv41Bazf/W/nVMddgnWEjsPkhv8Zjfz212acP2WETvJ/eEmMnjsRq5X/zwYM45E8PY81tDsa1vz267Tcx+0Oss9PhAFbD+Mkvok9y2V7Ywbtsicmz1sCjnz6OLZbto/63vQW8BbwFVlgLeFCwwr6aFeTGviMoqP9sHLbYbxiAnTHp05vR9VtBwTzccOHfMd393uwP8ci4Kei+xibYbeD6waePP/9i/OHgbdoGBeP/hXVOuBEb7XUqnvnXr5cNFHz1LtbZbWjbn+m6Bj6f+Jz8nQcFK8j69LfhLeAt0KEW8KCgQ83Z+S62YNR52PqSF9BzuxPx1n8uQGgZMwULPx6LgQedDmBDTPzwUfSI1ePREQ9gdoa2asKDf7sJ05plCqZhyAb7YtK3mPJfz7+G24bu8v2BglAYx594MipjZTeS7IYLzjnZg4LOt8z9E3kLeAuYBTwo8EthCRYo4orDdsMdk+cAqMTF9zyDYYN7B+WDfNkn2ysfTHjoTzjq4gfkN29+ciz22jCFIQP3xKT65l/bunxQxMIZU/DhtK/RlMkjFAqjepW+2OJnGyIZ1s+2Wz7ogExBKBzB+Hc+QO82Kho+U+A3jbeAt0BntYAHBZ31zXbAc6XmT8B2O5+ItfbcH3NffgZz4uvgjkfvwIA5t2DLo0ciWtMHvRNpzJhT2yanoGnuOzh4j+MwJR1GsVgAKjbDIy/cgQF9utjdtcMpKGTw6s3n4JRrX0exxXNU9t4Ur45+ED2TIQUFc90vdME/P52Ag/ifHhR0wNv3l/AW8Bb4KVrAg4Kf4ltfimfO1c3AoEF7Y1GxCo+/8Raq3r0Je/3y3yiEwthkr13wyfOvLJFomF/0CQ7f+1BMWlDETuePwoHvDcNvX6pFKBTD0Zf8G1ccvyOAtkHBwqnvYOAvjgMi/XHf0/di6zW7IZdqwIPXn4k/3Pke+p1wH16/ZIsVABSkEY6EpaTS96B/YszVey6FZf2veAt4C3gLrLgW8KBgxX03P9qdzXz/aRxxyiX4pi6LP9zzDI4fvCZCKGDmO0/h/932JYafuggDl9B9cPslZ+CGp8ahrimPnU66GndcdAAiyOPdx/+Bky4agcWVG+ORF0Ziix5NbXYf5BZMweBtD0QtYui/dn9URCOSaVg0bybm1OZxzIjxuGL7qhWgfJAO3lHfQ67FG3/d60d7Z/6LvQW8BbwFOsICHhR0hBU72TWK+SY8PfxPeClxMK45flvErIbvHjO38H8Y/daXqFlna6w9/d5WLYnZBVNwzhkXYtNjL8JZB22NaJl96mZ9hulN1fjZOqu2myngr9fPeA8jbr4Vdz03HvPrMwhF41hzk+1xxhkn4vA9BiMU8pyCTrbs/ON4C3gLrAAW8KBgBXgJK8MtFFKLMP7VV/D+518jlckBiKCmd38MXLsKr7/3KXqsvhWOOXCbNh8lXTcDN99yG555+iV88U0tcoUiwpEYeq+xEfbZdx+cfcbxWCURafXZT565FU9/msJ2+x2J7dbv0+rvR424CbNzq+L4YYc0b3U0TkG7du0+AG8+cQm2bUunwLUkhsI4adhpqCrvPgAQTfTEGacfgyN28zoFK8O69ffoLeAtsGwW8KBg2ez1k/ztya+MxHkXXINpi7Ktnz8UwS5HXYgb/jgUXVhcb/GTqZ2OE/fZF28uKGLVtTfH5huvhmQkjHymEVM+nIRPZi5EYr0DMeahK9GrsjkwePJX2+JXz9bhV9c9gF/94metrt1u98FnL+C8m19cwrvqgbMuOBD7LAkUtPPpaEVXTHhrPE7ceysvXvST3A3+ob0FOrcFPCjo3O/3uz9d03vYcfCxmFXsin2OPhO/P+tQ9O3eBcg1YfJLj+Div9yAj76uww4n/Qt3X7R7q++b/PI/cfAZtyG+8S8x+bEzES8HDvk6nLXDtnhuAfDHkU/j+EFrN/u8AwVLfIiubSgaLs1Te0XDpbGS/x1vAW+Bn5gFPCj4ib3wZX5cUzRce5/z8NL1p7X6+NfP34Adf3kTVtviQIwddXWrv//vq9fjwNNuBlY7FpNfuAhVMWXro1hELj0Xxw/eFW+mgKvvfw5HbLVGm6AgEoshGm5BbACQzaRRqPagYJnfqf+At4C3gLdAOxbwoMAvjSVbID0RO2x1PL4pVmDnQ07HFb85Bqv1YKagEe89dz9+e9WN+HxeI3Y4+V+4+3etMwWF9Dz8as9d8PQ3RVR06Y7uNZWIhEIoFHKor12AusYMKjc5CeMeOh9do83rDy5T0LVHb9RUxlvd5+xZM5Gp8qDAL2FvAW8Bb4GOsoAHBR1lyU58nf+Nexi/PO9yTK1tg1OAMHY//vf4+++OQk15m0GZPXKpWox99Snc8q87MWnqbGTyBURiCay56Q444/Sh+MUug1EVbZ0J8OWDTryo/KN5C3gLrJAW8KBghXwtK95NFdL1mDh+HD6ZMQfpLAWOKTvcGwO32R7rrdp8zNGKd/cdf0ePP3A35jZU46CTD0avjr+8v6K3gLeAt8CPYgEPCn4Us/sv9RbwFvAW8BbwFljxLOBBwYr3TvwdeQt4C3gLeAt4C/woFvCg4Ecxu/9SbwFvAW8BbwFvgRXPAh4UrHjvxN+Rt4C3gLeAt4C3wI9iAQ8KfhSz+y/1FvAW8BbwFvAWWPEs4EHBivdO/B15C3gLeAt4C3gL/CgW8KDgRzH7Sv6lhRweeGoShhy4NVrMC+qwB5v19pNYZcv9EG9Dv6DDvsRfyFvAW8BbwFugmQU8KPALok0LzPv0bXw0O9Ps71ZZfUNsunZPINuE7YZci9FPXoQq+43aLz/GeX/8R/D7c774GJlu62H17iXY8Pd/34ZVKvRXxt99OW55ZQaKxQLGf/QNtt+0n/z5cb+/DXusA4y76mBset4o1FR+X7DDv3hvAW8BbwFvgZYW8KDAr4mlskD+g4dx1vPVuOX8vdoEBc0ukqrDCUfsh/r1jsR9/zgHiSV8Qy5dh8Gn3o+37zoN5TMSPShYqtfif8lbwFvAW6BDLeBBQYeas/NebMztl+KNVc/ERfv1+1ZQsM92m+PsG19GzeSbcPFzi/D6fX9r1zCND5+FzS4ag1EvvoXVP78Xe5x3s/xuPhTFm+Ne95mCzruk/JN5C3gLrIAW8KBgBXwpK+ItXXrBxfjNlVehG7P5bZQPnv/bafj3hHm49KI/YY2NNkCfCs0PLJ7/JSZNHoP/u+Fx/PyCG/DLbVcNHi89fxp23fMM/OfB3+CXZ43APx8aiU1MMdlnClbEVeDvyVvAW6CzW8CDgs7+hjvg+aY8fgXunrcr/nTKjnq1NkDBsn7NzP++jIv/eC3OvvYJbLM6MOfj8bjq33dhp2MuwqHbr+E5BctqUP/73gLeAt4CHWABDwo6wIid+hJfjMFhV7yFm2//LXq6B20BChZMnYQ7Hn+1mRk+G/88GlbbCQPWqGz250efeh5Wq27AI7c/jF1POR492jGezxR06lXlH85bwFtgBbWABwUr6Iv58W+rgE/Gvoxzrn8Qt956K9buXnZHS5EpeOrqs/H1dn/EabssaYZgFu+8+Brmt/Ww4Sh233VnRCOtRyr/+Lbxd+At4C3gLdA5LeBBQed8r9/tqQoZjPm/E3HlmA3x6NN/QPNYv/3ywZ2nbovDr38dXSqiWDpQUIthmx+Pf7zzBLq26Dz0mYLv9gr9p70FvAW8BZbHAh4ULI/VfuqfaSdT4EHBT31h+Of3FvAWWNkt4EHByv4Gf4z7XwpQsHS35TMFS2cn/1veAt4C3gI/jAU8KPhh7Ny5vqUdUDB94ov434J2HrXnZth7q74t/jKLiS+82i6nYI/ddvGcgs61cvzTeAt4C6zgFvCgYAV/Qf72vAW8BbwFvAW8BX4oC3hQ8ENZ2n+Pt4C3gLeAt4C3wApuAQ8KVvAX5G/PW8BbwFvAW8Bb4IeygAcFP5Sl/fd4C3gLeAt4C3gLrOAW8KBgBX9B/va8BbwFvAW8BbwFfigLeFDwQ1naf4+3gLeAt4C3gLfACm4BDwpW8Bfkb89bwFvAW8BbwFvgh7KABwU/lKX993gLeAt4C3gLeAus4BbwoGAFf0E/3u0VkUoXkUx8+0CiVMMi1DYCq/aq+d5vN5fNIB+KIhG1+yoWkEpnkUgmEJJvLyLVlEYskUAkrH+SS6UQSSbl77O5HGLRKIrFPBqbcqiqTAT3nE2nUYzGEY/o53itplQGyUQCIfdHAPLpNML8s+/9af0XeAt4C3gL/LAW8KDgh7X3SvNtxdQi/G74B/jLOTuiPVjQuKgeiZpq4JuPce2YRvzmiIHf6/N9OXksJuX6ofD2I1jt4DMxqFcMDz34JDb72Tp44ZMIzj3kZ3jkzpHYcOeBeOHZSRh61tGIzfkUf791Ei677DBMe/0xTIxvjsM3SeA/j32M3QYkcOe7XfHHE7bCN28/izdTa6Jy1mRsM+RI9IgWMfLfd2PgPgMw4eMUhu6/jdihmG/C3655CmdedDi6fK9P6y/uLeAt4C3ww1vAg4If3uYrxTcunP0WXrn7Bex+zu/RLRnCzBlfoW//1RAu5FGXARLZObju7rdwwtF7oDj7Yzw/f20MWXMR4v3WRVIi9AJmTPkcidXXQu9kBF9//CF6brgZZk2bgd69I5g0Fdhui36BLWq//hyLYr2xZq8qzP7yc/RZY10g24hUKIlvvvoG/dfshykTx2LDrXcCGt7AjRPWxx6FV/FV372w+yY1GH3n9dj+hHPw7IRZOHTb1fHqI3cgtPWJGFz5Nf747zdwxWVDUPj4JYyqXxf79y3gf+G1sG2fPC65bDguuPx0jBw1DmccsxsWTfsQN7+dx4Vbz8DziR3xi341eOmhu1C9y/EY3CuLZ29/CC8v7Iorzt8PpRzDSvFK/U16C3gLeAt8qwU8KPhWE/0UfyGFlx6fgJ1+Vovxyd2wZeprjP/4fcQ2OQKDqr7ELR90wS+3i+OGR9/BaQcOwpwp4/HanJ7Yd0BvXPfibFw9dABGPfYS9t5nB3zw7MPoutcO6DflbTz7eTdsu8V66FZTjdp0BOv1667G/eRZjAlvhW5ff4T61dZG5Yx3UdhtCAZ+9SKezQ3AlrG5+Gh6FLtvtwFQzODhG27DdsNOx/j77sSGh56KzboB79x3A0JH/xJb8XrpmRj53Bc47KCdkKifgwtu/wBXn7cHwh8/h6fSm2L/Af3la2unjsWY3KY4oNdnGD6xK07da2M0fv0prh41BQfUvIPVDvkt+tUkMe6ZuzC//yHYIjcR8fW2x/X3TcAVp+3Ubgblp7hi/DN7C3gLdA4LeFDQOd5jhz7F4llTcPOLU7HJqgVMmN0blx03EG88MRLRbY7FWvOfx5j43jhyvTm49ZlFOG3f9fHxm09iYmEgjtyiCn9++hv8+YAsRowN4cS9NsWnbz6GaWsdjEH/vRFvrXUM9lmvW+t7zS7AEw8/j+zqW2HIjhvisxfuRXivY7DGO/fh0377YbO+WYwZPxc7DeqPl0e/hXW23wVrd43gwduG42dHDsPGXYHX77kemw49FzWLp2P0u3OxzbYDURMPIVc7C5eMmo6rT90WDe88jrcS22CPzVbFV/+bgKnZ3tjpZ2shNPsN3P7hKjhl941QP+N/uO7VeuyefgrrH3ExenVNYMzjd2HeKpvi6y/nYbP+VXjy7a9w5on7Y70eVR1qd38xbwFvAW+BH9sCHhT82G9gBfz+D99+FRsM2hUxAHf8/Wbsc9YZ+PDJh7D2kH0x9bFHUHXA4RgcnYr736jCIVv1wpS3n0PjFkOwZfQD3PnBejh6yxl4ZPRiDDtwS7z51INYZ/8jMWPE5eh3yIXoW5NAvqkWs5uS6NcjKU8/99N3EO+/JSY+NRLd9jgOqZeGY8tDT8SLt/0TWx52LjBjIhpW2xrZKW9izW13QU0ImD4vg9lv3IfUpodhpzXSuO2WZ3Dq2Ufg8dc+wX67/QzRhvmYW1wFXdMz8cdn5+PqoVvg6zH34Yvee2Kjqjn4qKE3dtqoJ9IzpiHUL4lbHvwc5xy9Paa+/Tw+67kLtpn7ICavfgh27VeBB+55Ej8/aj8kM3nkM024+rFP8afjBiMW+XYS5gr4ev0teQt4C3gLtGsBDwr84mhmgcbZU/DwK1Ow91H7oDfyeGjkA+g+YE/0T32Md+fFsctmUbzyzmIctv/2eOzR57HGFoPQfeFUVAzaAas2fYV7npmMIfvsif+NH43GyhpEu66LnTfrjY+fvwf9dj4aNRURzPzwTbxX3wcHbLu2fHfT5+MxYV4F6upz2HuPrbHgw9fw2owCDtwohicmLcS6m2+HrdeO4ME7ngrGLG+w20HYY/U0nnhxMrrXxNBj0x2xUZdPcftdbyMvV41jzyMPQ+q95/DW7ASOPHhHvPzI40j33BgbVc7C6x/Osefui5NO+Tk+e/1lfBPrinxTGPvsuhUZhRj1yEtYvVcYlWsNxhZrdGXfAf770tN4c34chx2wJ7pVRPzq8RbwFvAW6FQW8KCgU71O/zDeAt4C3gLeAt4Cy28BDwqW33b+k94C3gLeAt4C3gKdygIeFHSq1+kfxlvAW8BbwFvAW2D5LeBBwfLbzn/SW8BbwFvAW8BboFNZwIOCTvU6/cN4C3gLeAt4C3gLLL8FPChYftv5T3oLeAt4C3gLeAt0Kgt4UNCpXqd/GG8BbwFvAW8Bb4Hlt4AHBctvO/9JbwFvAW8BbwFvgU5lAQ8KOtXr9A/jLeAt4C3gLeAtsPwW8KBg+W3nP+kt4C3gLeAt4C3QqSzgQUGnep3+YbwFvAW8BbwFvAWW3wIeFCy/7fwnvQW8BbwFvAW8BTqVBTwo6FSv0z+Mt4C3gLeAt4C3wPJbwIOC5bed/6S3gLeAt4C3gLdAfxECPwAAIABJREFUp7KABwWd6nX6h/EW8BbwFvAW8BZYfgt4ULD8tvOf9BbwFvAW8BbwFuhUFvCgoFO9Tv8w3gLeAt4C3gLeAstvAQ8Klt92/pPeAt4C3gLeAt4CncoCHhR0qtfpH8ZbwFvAW8BbwFtg+S3gQcHy267TfjKfSaExU0AiEUM+m0EsWYloOLT0z5ubh09mhbFGl8V48Ol3cMLQQ5b+s+W/WcyjduF8zKvLoV+/PqiMR1DIpTBv5jTku/ZHnx5VQC6DBfPmYn4ujrX79kI8UsT8L6YhtsbaqA7lMXfmdPReYx2kGhfjq5lz0KV3H/TuVgUU8lgwfz5qCxGs2auHPB+fdc6c2chX1GD1Hl2DO8nVz8bcYh/0Lf0RCoUiwmU2mf3JO+ix/laILcFO7499Fl/E18HB22zYwh71eGrkU+i/79HYovuymypdPwMj7noZx51+Aiqjy/55/wlvAW8BbwFnAQ8K/FpoZYGGmf/D30YvwCVDByM/bxxmYTDWWjW59JYqZlDfBFRX1uOu4WNx/LCDl/6zZb/56eM3IDz4RKwVnoLrX6jF/xs6CHdfdz+O+OXJmDn6P1iwwUGon/gS+h8yBN2/eQ/XjqvGrpiMSdPSOPaCIZj0+BOY9kUIp515IP50/wf4w9CBeOLu4ej/i9PR5eNHUNzmQGwQnYbhr8Zx+p5r4IlRj2CXQw5C0xcvYVx8LwxZkzeTwvC/34gBJ/0/bN0DyDXMwE2j3scWm3TDJ5824Khj9kZ1GMgsXoBIVQ9EloCdFkx8Em9Ht8beA/q2ssez9z2EjY86DGstA/YKLpKtw58vfxoX/PloJJbL0v5D3gLeAt4CagEPCvxKaGWBxq8/w7Xjs7h4yMb4Jt2I3sX5ePLxt1G94SA01f4XifV2QnjWm2iIb4YDBvTF9I/exYLqVfHlyy9g36HHYdzzoxBafzfs3K8JN42aitOPGoQ/XDMKv7vkFFRF+HUNePnZCei/bm98VbURMh8/huQGu2DnbnV49J0G9F34Jqb02h9HD6xAIVEDfPUW7pwUxZFbdcV1r6dw2VGbA1+/hjs+64ujtl4Niaoq1E4fiwdmD8CZg6pxyy2P4KgzhqCmYQauHTEZvz5rX8xvyGGVLjE8ePtdGHTMfnjxtmdw2rnHybP/+drHcP5J6+M/L9bijMN2QMOCr3Hp43Pwj5MGYPToN1FY/CVW2eUIbFyciXvezeGoteZh0lfzEe21Hmq//AqDNqrEc6M/wtEnH4/Xxz6OXK8NkJw1HdMWd8PQg7ZF7pt38dKsGlR9MQbhAUegYuqLmJhZD6fuuzHuGf48Dj51Xzx13xPYYP3umP7FHBx4+KEQMwGY8s6bqO+xJma+Ox4HHDoE+dnv4q2F3VE3bRZ23Ht7dAkBhcXzcf5/PsQuGycwpz6CIZt3xQuTPsVWm1Rj9ItTMOzMU5BwF/Tr3VvAW8BbYAkW8KDAL49WFlgw7SMMf7sJB266GNF+g7AGMvhw8uv4NLYZ9l6rATe9vBgXHLMu7nyhDqcMzuHecXU4dr+NccdfRuC4C4cCn07A8+kNsX+fevxrXAbnDBmANMsRcfNM6W9wy+2jsecRByIcj6D/nNfwVGEADuo+D3dOKOCk/TbGY7e+gANOOwCRzFw89tL/sPMeOyL95Zt4cPq6+NUevYHZr+Om93rizH02QsO8L/Hkm1/jiP23RRjATbc+jqGnHYRqgoK7PsR5Z+4jzzh5zPNoXG1rbNu7Dn+7axLOP1vLGldc8wDOPbQf7ptajdP3GoDGBbNx0f1TMGyzJnTdfAd8/tJz6D/kEORffRB9dvg5nv0wh4Mr3sMH0W3Q9Nk4DNp+G7x4953Y98xzgHnv4raXMzjhyE3xwG1jcfLJe+FPf30CF158DMY98B/03usI9Jk3Dbe9VYuLj90al//jaZz/24Px8J3Dsdluh6Nu4tPY9rBjNOJvnIoHJ6ZxxM7r4ME7RuGIEw7DP664F6dfegpqP/8c1Wuvg64RIFM7B5fd/QouOu1APPz8fzFk983w8UsPon6t/fDzzbojHPGIwG9zbwFvgaWzgAcFS2enn9RvzZnyLp6Yuz6GbVeBYjGLpqYI3n3pIYQHHY11Fo/Ga9gDR/Z7F/f9tw92DX+E1zMb44CNgatvnIBLLzkM018YgQXrH4INcp/ggWmr4NQ9121lv6baWXjq2dFYc/eh2GjqSPy33y+wwaL38UrThjh8YBfc89w3OHbv7hg97ktsv9NAVEVCmPvFe7jzw264YP+10fDeI3gpMhi79clhwrRG7LbNJgII+PPPu17AecfvhdC8z3DNs/NxwXGD8cH41xFbd0ts1LsaSM/Etbe8gfPOPVKyFn+5ezIu3C2MW94L48wDBqF29nu49b/9sWnxY1QmIvjkvcnot8se6DdtHDbbeV1MiQ3C3KdHoNeup2D2pDHYY48t8c+rn8K5lxyH3PuP4enClhiyfh43jJqCUw/dCheMmo7rh22F4dfeht3PPA01M9/HyCndcNZOwGWj5uKqE7bGjf8ejl69q7HWbkMwqGdMnmPxxEcxNjEYu626GDc9+j/8auiu+PV1b+BvF+2LWC6DbCSOWAhomDcLf7x3AvoX6nHMGcegZzKMR++8A7ucdDJ6/KRWrn9YbwFvge9qAQ8KvqsFO93ni/ho/JN4Iz0Qe60LpOe8g9Cqu+Pz157GusccicT4RzBruyEY/MVzeHBWd6yfnovJjati4KoL8cyr9fjZ9lujx5fP4P+zdx9QTV7/H8ffCYSEDSLuvffeuPdAxb23tu5ua1t/be20W622Wlfdey+sAxUFF7jrVlQUlD1DIOT5nwQ3WPVftIDf55yeo8nNvd/7uo99PnkGxOSpSW67ZI7etaFO5Qr47z3JG4MbYL4PLiHoGGsu2NK4sJ4AVRWaR6/mlKYm1ndOcF1biQq54ilUrQ4Bs+aQq0lT7NQQHq2nSdVCzJi/h179WrN3kzeNe/QicOcWipQpA0oKR6/q6NXAnl9W+jN2UEeSg44w2y+Jt/qWYcvpGCo7aTBF3oDSLYn2W0bBem3h8h5iy7ajursVK5b/RaNWDbl+YBcVvXrhjPkegkgWL9pI/b69cb7hz6VcZQk/c5HaBWw4F2ygUJ1GVNBF8um03TRqXpMyCYcIK9aJWva3+HHHTeqUK8l2v/MMb+7Ktl1XKdWqPrUcDSw9BfVckthxM5lOjfITeCQErxq2LDmaQBuPOvjuPkhvD9h+OxclXGM54xdOqSolOb3Pl8a9vUgIDqFIGVcO/Z1M0wqpLLlalhbRi7mVqzLVK9Zh98YV9OzXO8ftnTIhERCBlysgoeDl+ubo3vXJqdjaWGEwJKHV6jAmxWOlc0CFEUMylssFSYnJ6Gw1ROlTcbVL+wZs3lJTDOgVDQ42ad/v45NScNBpSErSo9PZPt1NMREVG4eTk/M/3tT3bHiFxNhYVPbO2D44u55KXHQiti6OlvCSblOM+K5cSGzx+lTPr+PYlWg6NKthuf6fkhSPtWXuD7fkJD025rmkJpGi0mKVmkSqlS0a842J+nhsbB1IjE/C1kH34HMphkQ0WltiE4042WnQJyahtdNhSk7C2ibtZs/Y+CQczZ9RjOiTVdg+csOAPtmIrY08gvDs9ZcWIiACGQlIKJD9QgReUEBRFMsnVKr/z6MCLziYNBcBERCBVyggoeAVYstQIiACIiACIpCVBSQUZOXVkdpEQAREQARE4BUKSCh4hdgylAiIgAiIgAhkZQEJBVl5daQ2ERABERABEXiFAhIKXiG2DCUCIiACIiACWVlAQkFWXh2pTQREQAREQAReoYCEgleILUOJgAiIgAiIQFYWkFCQlVdHahMBERABERCBVyggoeAVYstQIiACIiACIpCVBSQUZOXVkdpEQAREQARE4BUKSCh4hdgylAiIgAiIgAhkZQEJBVl5daQ2ERABERABEXiFAhIKXiG2DCUCIiACIiACWVlAQkFWXh2pTQREQAREQAReoYCEgleILUOJgAiIgAiIQFYWkFCQlVdHahMBERABERCBVyggoeAVYstQIiACIiACIpCVBSQUZOXVkdpEQAREQARE4BUKSCh4hdjZayiF6KhbxKc44mqrQedoh1UmTsAQd4e1W3zp26d7+l6VVMJuXkWbtxROWpXl/eSECG5GW1GyoEta+xQ9l0NiKFIwHzZWoJhSCbl2GcfCpXG0UafrMzU8iGSXYthaQ1xYCFFWzhTJZZeunWKI52ayA0UcLYNwJSiMQoXyo7VOq+P+Fhylp5CrLSZjMreCb+FeuDi6x4BSCAlJIH/+e/UC0VcCiHKrSfF7LymKgXMXwihdugAaq7SaYyNuo7d1J6+dJhO1pSsREAEReD4BCQXP5/RatUoKv8E87wv07OiBncrAhqU7aDqqNwVfRCHqPCeiClOthP1TPmVgze/z6T5q1OPvJ4ezcNE+evT3xHfhLxTuMhabq/u5alebBm6R/L4vhvc9bVhx0RWvck4sWLqdwf2aM3/pUYYNacXmWb9Ro9dISuW9f8A3cnTrJg4eukn/SW8RsGEtRdu3w/qKH9vCyjK+VeEH44dcPMHOk+co0LgPLfLEMG3NVd7sWI5dm3dSp0cn8gKpKRFsPuxHgnU1+lUzscz7Bl3a1mDzH7/jNfpdjl24Q6188WzdcZSIPHUZ3iQvMzfexLOeM2qVFe5uGs5dSaJ0viT+OAhjWufh99/X0HPMYC7v3EAxj9ZoQvdxQteCdsVsXkRc2oqACIjAvxaQUPCvCXNeB/6bluDeqj+lbNPmFn47lKiEu5y/FkcxTQwHogszqKaBi4mu3L4dSevmtbl74TjJDq747TlP5x712LJ4CerSzalTqRj2EaeI0uXn+JVEujcvx3H/Qzjmd2Ln+tOMeasHM2auoN/IfrhavhwbuRMSS978LuyZ/SOFu43Db/1G2g/vjbsSxbSvljBu0lBiDFpcbfXMmbeLgUM6EB6aSMECzqyb/gvV+o2lhNvDA6qSmsyPXyxmxKfDSI2MxNk9F3fO72VrdFXeqOf6YAEVReHcvvXE1e1KHV0k38w+zPihTdjpfZgOnZqhtbRUIHQv6yLK0rWCO9GxyTg7wKJpC+n71hCOnblLnSpFCD3li098GfrXsGdxkJYuRVKwtbPHFBPCydBUqpd0506SNQUcrZhunn//OqzadIVRA1qRnBjJpJXX+G5ITR4/P5Hz9jWZkQiIQNYSkFCQtdYjC1RjYPGsxQwYOfyxWqJj77Jl0Rqq9BlJeQcj02ZsZsjQ+mzecYaOTQqzIQCGtS3Gp1O28dGkbuxduoziXfpSVgnl54UnGdWjNLP3hNGnXBQBqZXpUMrE98suMGFkS5KSUtDqNI8dAMMvHeNAuDud6hdl2tz1vDO8CxDDr5/PY8xn76JWKRzatQOH8g2oVNDJcrAOOe3HydSStKmi5bD/RQyArVN+6lTMx/eTVzFycn/MLRMjbuLtH4SXZwPO+AcQZVIAO2p6VOa6zwaMzbyoisK+9as5fi2Usq160K5y/oceIXvYmliBDiXzQVIMB46dItKow7NJbdT3juK3TuzHN6USPava4XPiOkUc4vEOjGJov5bY3z/SKyYC925DXa4x1ZLP8+txhXFedUlOjGPinCP88FaLTL1kkwV2LilBBEQgiwtIKMjiC/Tqy1PYNH8WdQeNIu+9a+Tmb9AqUzC/zj7GuNFdMKUY+PiXVXTq1IQ6pQtxOWAbF5w8aVvgBh+tDOGnEXVZt2A19Yb0wCn4Il+vPkm3Lk2pWdiNvavn4dx4BMX0x/jjkMJH/Wqnm+KdSycI0BeifZXclvd+/WMNI9/ojkZ/l2+nbmfiRwMJ2L2LPDUaUcRVZwkEt84Fcl5bnhYl0t8ngNHAx1N38tn7nhgjbnLwXCQtG1Yl/Z0HcGLrSvJ06EW+iKPsiClLuxI6/vxtBe1GD7RcPrBsp9ZwwLkZ9fNqSVTZ4ahVc2b1NFI7D+f0niv0aVuFy/5bueLWnjYlDOhVOhysYNHMWdTs2JpLlxPxalqWk4f24FylOcUcNHA7kOl+SYzv3oCkuEv8tM+GTzyLvvrllxFFQAReawEJBa/18mc8+TtXjjB/TzSjetUHRSHgxFUaVbPlzx3hvNHTAyU1hW+/X8HAUZ0IOXcJtSaCy9Slwh0/1uqL07JyAYL9dlCzTX1sULF41RHGDW3B0YN/Y69cJalYW2wv/YWPvjD1ytbkbtBZunaphfnqgSnqCn/6JdOxbh4wxZNo5cql3VtxbdKJPFHn2J9Qhp72O7mk9cDdUUPQtWBKFbFn3XlbOlXUgfEGyaoyFMz78F6GlLhwJv1+gEnvdWLv7kPUq1EWlER8TybTtWXJBwiKMZk9q5dRvHNfit3cwV+aOjTJZ8/GNdtpNbAHbpaWCqF7FnI2f2vKJJ7haEp52la2Z+0fS+g+biyKScF8j+DRXWu5nb8jjTS+7LNrSGtXAwvX+DNkUGtIVpEQdoqrNkUoroaEs2dQ1avDwVVb6ditA7f3rcapRT/ym++glE0EREAEXqGAhIJXiJ2dhjKlGomIjsXe2RlbaytUKJhMoL53flwxmYhKSMLVwdZy2j8xIQ5be0cSouOxc3VElaInIVWDg84ak9FIhN5IbgedpZ+4RD0OdjoSY/XYOdsREWcgt6P5G7/5mKtgUsyn89M2lVqNSlFIiI/FaGWLs50NimIyN7vfArUaTJZLAI985lHse32a+zLX/UjDB6f77w1u6UelUln+S9HHEp2kIpeLA1aqh1f3TZY+VJZxDfoE4g0Krs4OqJ9so1JZ+k9OjCHGqCW3oy33m5jPvpj/u7+pzbUpRmIi47F1dUZ7/zpEdtpppFYREIFsLyChINsvoUxABERABERABDJHQEJB5jhKLyIgAiIgAiKQ7QUkFGT7JZQJiIAIiIAIiEDmCEgoyBxH6UUEREAEREAEsr2AhIJsv4QyAREQAREQARHIHAEJBZnjKL2IgAiIgAiIQLYXkFCQ7ZdQJiACIiACIiACmSMgoSBzHKUXERABERABEcj2AhIKsv0SygREQAREQAREIHMEJBRkjqP0IgIiIAIiIALZXkBCQbZfQpmACIiACIiACGSOgISCzHGUXkRABERABEQg2wtIKMj2SygTEAEREAEREIHMEZBQkDmO0osIiIAIiIAIZHsBCQXZfgllAiIgAiIgAiKQOQISCjLHUXoRAREQAREQgWwvIKEg2y9h5k4gPlFPfII+czuV3kRABLKNQD73XNmmVik08wUkFGS+qfQoAiIgAiIgAtlSQEJBtlw2KVoEREAEREAEMl9AQkHmm0qPIiACIiACIpAtBSQUZMtlk6JFQAREQAREIPMFJBRkvqn0KAIiIAIiIALZUkBCQbZcNilaBERABERABDJfQEJB5ptKjyIgAiIgAiKQLQUkFGTLZZOiRUAEREAERCDzBSQUZL6p9CgCIiACIiAC2VJAQkG2XDYpWgREQAREQAQyX0BCQeabSo8iIAIiIAIikC0FJBRky2WTokVABERABEQg8wUkFGS+qfQoAiIgAiIgAtlSQEJBtlw2KVoEREAEREAEMl9AQkHmm0qPIiACIiACIpAtBSQUZMtlyzpFRwZu4t2ZWyhYoT1fv+eVdQqTSkRABERABF5YQELBC5O9Hh84v2Uma07FPTFZR3p/PIbCCYHUrNWfxIrD8XvThgZjfqN0gzfY8efb/4gzqX1Tll2+y3u/bGBMhzL/2NaUrOfHqdNJNir/2E5XqDrvD2zz1DaK0cAxH28OnLxAQrIJK42W4pXq49mqHg7Wr8dayixFQARE4HkFJBQ8r9Rr1s57YjNGr7vzxKzzMv+iD/X/n6FgbOtGbAuKYMRXS/ioZ41/FDUmRFGjXiPiDaZ/bOdcozfHV3yaYZuggM2889annLxrSPe+rVsJPvn6J/o0L4vqNVtbma4IiIAIPE1AQoHsGxkK3A8FH/7lw5vF8j7WxvD/CAXJd45Sr8UgopMhd/WueC/6klzapx+OH4aC3Gw4spcqLi+2UPpbu2nefBxh1rbUazeALycMo1geRxIjb7Bw+nfMXuVDvNqRFXv9qJ3b6sU6l9YiIAIikEMFJBTk0IX9t9O6HwrGr97AoCLuoLLG2cURNfCioUB/9wr1GnUkTlFjr7MmISmZym3HsPLn0eisMw4Gz3umoN+kuXw5sEG66a77YQzvz/GhYttP2Dy9X7r3D84fw4ApPjh3nc3xKY3+LZd8XgREQARyhICEghyxjJk/iXSXD5xrceDoIgq8UCgwcXDFFEZ+vZwEQyq1xvzBohGlGN/Fk13X9DgXqMCKLcspm8HF/X8bCuZ+0p9vVgfS7n9bmDmgRDqgi/5zaTvoZ2j0JVfndct8QOlRBERABLKhgISCbLhor6Lk+6Gg30/T6ZTfFawdKGp1nXrdHrmZsMrTbjSMYOLwMew/dZnQ6ESsdLmY8sccOtcpj7UakmPvsuK3yXw+3wdQU6BkGWp3e5dfhjd8MLV/e/ng+PKv6PbZMlyKe7BvxxwcH0VLvsO73buw4XwMTb/dz/xubq+CVMYQAREQgSwvIKEgyy/Rf1NgRvcUJEcGs26nPymGG3z9zTySKz396YPDSz9n/Py/6TuwH126elLE8cnr9gp3Lh5h7dqlzF57jeXbV1HB3TaDUKCldRdPctk8zcGNN74cT7En3zaG8fWooczbdwWNU0GaN66Fq70NKYkxBB46yLWwBFzKeOK76Tvs1XKr4X+zl8moIiACWU1AQkFWW5EsUk9m32j4otN63ssHUJQVF7dTJ4MBlJTLeFbsxDlUaK3BYFRQW1tDqhGTU0lOHd6Mg/kmCdlEQAREQAQsAhIKZEfIUCDjRxKhSNVB7Piz1f/r5xS8eurrdCvTjpM6J44dOoiLnflsRSh9azfnkFUZrh7a8OpLkhFFQAREIAsLSCjIwovzX5a297ve/G97uKWEVFMqSmoq+iQ9biW7sG1BWwkF/+XiyNgiIAIi8JIEJBS8JNic1K2iKKAolnCQav5ZQimn/zEULHm7J9/6XH5hgq8W7KZLiZs0bTKYsBf8dK6ijfDdNA12T6biuxvvfVrBoDdgQoVOp0VluXVAwZBkfk2Nre7hjQq9pszh03Y1X3BUaS4CIiACOUtAQkHOWs9XMptn/ZyCP0d35otdl164lu+XHaR7yevUq9uXuy/4abfiTTi643f4axIlxq57wU9Dv58X8qVn7Rf+nHxABERABHKSgISCnLSar2guzwoFr6gMGUYEREAERCCTBSQUZDLo69CdMfk2v/++hpQ8Nemb+/hz/0Kk18FG5igCIiAC2VlAQkF2Xj2pXQREQAREQAQyUUBCQSZiSlciIAIiIAIikJ0FJBRk59WT2kVABERABEQgEwUkFGQipnQlAiIgAiIgAtlZQEJBdl49qV0EREAEREAEMlFAQkEmYkpXIiACIiACIpCdBSQUZOfVk9pFQAREQAREIBMFJBRkIqZ0JQIiIAIiIALZWUBCQXZePaldBERABERABDJRQEJBJmJKVyIgAiIgAiKQnQUkFGTn1XtFtW+Y/iXrT1wHXHl3/g9Ufcq4u6a/S8NRP6LTqJ+rsmsbp/D5xox/m6JTvZH8+katp/RziDeHziUJqOk1gvGd6mbY7s4ZXyb8vDDD9xwLVWbGF2898V4wv/24n9Hv932u+qWRCIiACOQ0AQkFOW1FM3U+Cu9160ONiT/Sr3YhiAvhpz9+xKHmRN5s6p5upEWjGtJt6n7stc8XCk7PGMnVsbPo/ERPCTdO0mxaCEd+aptujLOrf2RuvDtf9huEgw0c9/mD6WsNLJgxLl3bIN81fOifj5UTGj7xXiSThnzEVwtmP/H6BcYPWc30BZMyVVE6EwEREIHsIiChILus1H9QpxK5kE8Ot+CbdoUejp54m2Ye77H52HIcrB4v6qWHgpRg+rb4mMX7FmGlejj2rpnvEur1M/0LPl6PhIL/YKeRIUVABLK1gISCbL18L7d4k/c7zC03kTeK5X1koAQmNW/O+9sO46J7xaEg7CwN+65g/84vefRcxOldM1lrNYbPm0koeLl7hPQuAiKQ0wUkFOT0Ff4X81NM2xk0oyALxlV58M08NfwC1Tov4ujBr3kiE/DSzxQQxuimA5iy0xsnzf2JGVn1yVjyfz2LRk/MVc4U/IvFl4+KgAi8lgISCl7LZX/+SZ/8dRBvX2+Pz4+9IPgotYd+x55NK3HUPXHtAFgwqCLT/3bikTP7Dwfy+B+BU9s/NvDpGf3ps/AKNk+Uo5hS0TT9IsN7ChJCLlGv4yA2e/tQLLeWWR90I6TO90zuUTLdpMyhoNXo73DUWT85AtoCVfHfmP6egs4VenHT3jZDoP7T/Hm3wfPbSUsREAERyG4CEgqy24r9B/WGXDnP7Rg9oKFUjUo4/wc1PD5kJMcDr2MCXPIXo2R+1/+8IilABERABHKCgISCnLCKMgcREAEREAERyAQBCQWZgChdiIAIiIAIiEBOEJBQkBNWUeYgAiIgAiIgApkgIKEgExClCxEQAREQARHICQISCnLCKsocREAEREAERCATBCQUZAKidCECIiACIiACOUFAQkFOWEWZgwiIgAiIgAhkgoCEgkxAlC5EQAREQAREICcISCjICasocxABERABERCBTBCQUJAJiNKFCIiACIiACOQEAQkFOWEVX8ocUrl23UDxonbP7D3o5AF8LioM6fHkryR65kdfrIFiIiY8lDgrZwrksrf8psTUZD3Xb96lcIkiaFQqFMXI9cs3cSlUCBdb829NUoi6dhXnYiVRoXAnKpZ8uZxJMcRy/mosFcoWxEqtAkUh/HYwKc55yO+gtdSlmAxcDgqjSJGCaK0f/kaH2Os3sS1amAe/k+nFZiGtRUAERCDLCkgoyLJL898WZogN45MfdvDVF/3RZfgbjsBEHHaLAAAgAElEQVR/12GqtKwLQSeZf1bLuA7lXmrRe9Yspo5nb5RrW1kb25CBRW6w6qwVXRsVYdmcjQwaNYBvl/jzXp/a7Fi5mHwtehPht41jZxUmfujBjj0HSHCrSUP7UPbFlqF7ZSs++nETkz8dys6V66nZuT3JF305rW2MV/l4ft8WxvBWRdm0aivN+nfDDUiOPM4ns27w5ced0/2WyJc6eelcBERABF6BgISCV4CcHYcIPupNQtDfOLYZSwHrUNZvCaBk0y6Utgln/UU1LdxCmLnpBF4t6+FiFcbBsILk0dwgRleenjVyEXTiKJH2ubh1+SbtmtXG13cbRUqX5MDuM5SrVIGzYWqGetZIo0m+yf6/E9HERFCgXHECjx6lqmcnSoQd44ipFME+WyhatzPlcqVg75wLw5nV/GXTAqcTG9DWH0i9wtYcWj6Don3GoIo2kM9Fx6bFiyjbbSBlUu/y4ewAvn2/LVbn/2J9Ylk6lncnXmWLo5LAxOm7+fL9aszfEMnobjWIv3WBn/+K4I0ipwiuPoBauew5sHkRxioD8HCLZH1ADMePnePz9zqQdj5BNhEQARHIOQISCnLOWmbaTJSkcFbti6FnQwPLLrjTtZg1xwN2klS6J9W1Z1gWVJox9Y3M2HCZsV5VuRKwm72RuRnUsAQTl5/nx6El+XPzZQZ3rMPfPqu5W7UlTYN3MPdmZQa1LYe1GlJSVdiY/2Degvex8ISW5lUKojg6Yzz9F5GNu1Pr6lb2aerRpLCaPb43ad6oCoboIFbuD6WXZz02zptL5V7DKe8EAStmYNd7LOWBiwF7CbEtS5MK+SHuLhPmnWbK2y1Qn/Nmi6EintUKo6Qkssd7J2VadaRwjD/zzroxrHk5Em9f5LsNN2hj40vpnh/j7qTFb9siYgq1xebuZZo2qcmkxYF8O7R+pnlLRyIgAiKQVQQkFGSVlchCdYRcOYnfpXC0Kjh8NoGP3+mE/9oV5G7XG13gCq6W703b3DeZv8vI0JbFOe23lkvO7elQNIapB+DDhrdZ4K9jSKsKnD+wnojKXci76wcSm46iiptDhjO9eeYQmwLv0qt3J255LyRfp0GkbJ9Fcs0BFLe/g99lHVUKJuN7JoZ2TativqKxYcEcSnQaThU3E1v/mEGrN8Zz47g/Ce7lqVoo7dcpGyJv8dnWMKYMqEaY32ou5GqKR0lbDh4MpFyjxuS2AmKOMdvPjjfbVSD86gkWnXWgecxKXDu+R1FnHTtWLEZVvhoJYZHoFCO7ToYwfJAX5d0znksWWkopRQREQAReSEBCwQtx5fzGqYYE9mzfRWOvzmhRWDn1R8r3HE+E/2Yc6lXn9pFT6OrWoEHuJFbuTqJh+bzEnTuITYtulEo6xpxD+fGsr2Hv5pN0aV8Lv9376ditM/5zP6NUr//h7mhN7M0zHInITctq+Syg5zf/RkqVPkSc2od7Iy8S9/9JoTptOLhjPaXqdyLy5k1qNavOvpXbqOxRx/KZszGOVE/250hSKRoXM7JyfzRv9ijJhtNR1HCzwxQZRHReDwrrz/DT3ni+GlKHs1sWElqgJQWMV9HnK0UeFcQFBFKskyerlm2jU6fGXPLbQ8E2XhSOPszyy3nxLG3DtgNB9OnYIO2mxZDr/PxXKJ/2r4vG6ik3W+T83URmKAIikEMFJBTk0IXN9GmZUkgwgJ1WTUKqFQ4a0MclonW0szwFkLYpxCSk4GxvAxiJj0/BwcE2XSkmo4EkRYOd5uEn9fFxWNs5Yn5JMRmJTVbhrLMiTp+Co+Upgoy3lKREEowqXDIY58UMTMRGx6FzcsbmflkpiUQkqXBzTD+HF+tbWouACIhA9hCQUJA91kmqFAEREAEREIGXLiCh4KUTywAiIAIiIAIikD0EJBRkj3WSKkVABERABETgpQtIKHjpxDKACIiACIiACGQPAQkF2WOdpEoREAEREAEReOkCEgpeOrEMIAIiIAIiIALZQ0BCQfZYJ6lSBERABERABF66gISCl04sA4iACIiACIhA9hCQUJA91kmqFAEREAEREIGXLiCh4KUTywAiIAIiIAIikD0EJBRkj3WSKkVABERABETgpQtIKHjpxDKACIiACIiACGQPAQkF2WOdpEoREAEREAEReOkCEgpeOrEMIAIiIAIiIALZQ0BCQfZYJ6lSBERABERABF66gISCl04sA4iACIiACIhA9hCQUJA91kmqFAEREAEREIGXLiCh4KUTywAiIAIiIAIikD0EJBRkj3XKdlUqgAoFk0lBrVb/q/oVBVSqR7pI/wKKonrY5tH3H/mzoiioHusI0up8vG9FpXr8NTJo9+SM0tWUfsqKYkJBhfqJGswtTSYTKrU63bjPB6dgSlVQW/075+cbS1qJgAjkZAEJBTl5df+fc7t57C8W+9+lVcPKXD1xmNqegyjhrn3+3qICmOOnY3jbYqxesomeg/o8/2cfbZlwnXUB0bgnXCLGvS6etQoTedGHAEoTciCQTgM7kRoUwP5QHc53j6P16I9HXj0LZm6k3ZjeuERcY8HGU4wa4smOFWspXLMC+w9ep++QDthE3mTenls0sr2Ek0cPirnoCD13iIPhzjjcOkHL3n2wulfLBf8dRBVrQ73894szEROjx9HZnvuHYb9l0yjSYyyFNPc/lX7KhnN72BxdlO71Sz7xpgmfdWtxb92DSg4vTqWY4vht8nKGfvYGtpILXhxQPiECIvBAQEKB7AzpBPQhl/jZV88nPatAyk2i9flJTorGLU8uokNu45K/EImh11G7FcZeYz4KmYgKvUWk4kSJ/M7EhARj7VYAB81dFswLYMiwNhzxu0gNjwpY3xstNSmOK3eTKFPEnYS7N1C7FsbWykhiCpj0Uehc8hB1aB2p5T3Jp7nGtJU3GNe9Mt//eYwPx3mSdGoj3qbqFI27SdFGHtiEXeILbwPvNXVl7eo9dH23D1w7y8qN5xk/xos/fUMY2rwYO5b/gVPjYcTuX0zD3oOxV+n5ZmEAEwdVZskyf/r1bUt86Cl+P52Hia3yEXvpKEt3naZO76HUdE5i26rtlKhbD3cXGyJuXuQORWlYMTdXb8VRsogbieG3MDnmR62PItHGhdx2aSEhKeYuAT7bSSnbifqF1cRaOeJuqyYhPgk7Bx0blqzFo08HDCEJFC7k9uipC8JDgonFkRL5XSyvh9+6hsq5IG4ONmnt9FFMmHqQL9/zIM5gR25HDXdDI3DP48L169EULe7+/zwDIf84REAEXjcBCQWv24o/x3xjbpznJ+9rtKvihFuF6hSOu4HPsdPEulSjnGs4geEuNChtwv+yHUOa5WfvXwcpW78OvnNn4zV+AFcO+3PBthpexZL5zTuCUd2rs3XPSVq3qouNOUMk3WLxhvO0a1SEfXo3ykXt56pzXTrmiWKuTxytShnZfdqawX3rWr6JX9i3hevudahmG8zCc2580L4o3DnAjGNujO1Q3hJKTuxahVX1XlR2U/H7Hxvp/0ZnHBNuMnXRWd4e1TZt1ilhLNl4Ci/Pssz9w4+3x/e0vPzVt0sZO6AkK05YM9KzFomRd/ho8Xl+HlWWvacS0N05jXNzL/IGH+KMQzWM505TzDWC29ZVMAafplxxd/x276HzyFFcPrOfE7dsKF/SjaP7g3hjhCeH1ixDV7cjScc2oq7VGZvzx9kWYsvHA2rz0zdrGPFJbzYuX0WZYiXR3/6b2t0GYG+pzMiOHf5UqVeLQxuW02XQYE5uXIqugRcXd+6mRg8vCmrAGBvGByuO09OjDP5HLtKlUUlOnwrAPm9edCYNdT0aYC1nEJ5jz5cmIiACEgpkH0gnEBn0N8uv5WZMExMRSblws7Ph+K613MzTlAZuV5h3PA8TPFXM32Wib/EQ1t9wp29DN36Ysol3Jg0mOXA9h2zr08ghlDmnrBntWenxMRQ9O9ZsJCFfRTo2qoz12Q14a+vRRhvMsouO9G9RjHXz9+I1tA3Xzx7jBvloUrEQIZf9WXW9JG+1yAPBPvwZVIjBHsU5d+wIYU4VaFw27Zv0jHlbGDbME9vYIH5edZV3hzdHSQpjh89pajVrRu6UIH5cdIL3x3SxtP9i+mYmdHBh4RVH3mxdjYTIYD7dEkWN5LOUb1ibc76+FG7bDqeTf1GhRX384gtS/MxGIkp5EXtmD03bNWXR93Pp8/54NME+/HY6F6Pb5mb23ECG92/Iu3NO8vPbTdk8fwHlug+hYPRZZvoZ+LB7RT75fR+Tx7Vmya/TyN+gHTYxd2nevKGlLuXWfjbfKUKnKvbMm+fD0MHtmDBlJ1991pVHL+YkRYXy2e9b6O3ViGiTI80qFWDP8j9wbjGCmnkeu2NC9nYREAER+EcBCQWyg6QTuHXhAPsMDehbRQ3GYG5HOHHhwHbc2/ci16WtnC/egeZxu9kYXYbyYYGc1FSneZFo/lh6jRFvtubmnoWoqvUkr/4S20Nz06NBcQz6JNxy2VlOY6fq44hMscF024/1cY3oFL2AkLLd0V324bJLY9oWS2TzzVy0djnFLdvKlM/jSGKintToYH7eFc1nA2tzefsCwst5kTviPMml61LBGSKiDLi52vLzor94d2BrlLsX+f6vSCb0qc6KDYF061ofTUoCesXA0j82MXzcYEi6xJyDVrxRO5nftt9ldK/G3Lm0A3+rNjR3j8OkgM/6zZTt0ZXkvaspXrsUZxOKkBjgjUOlDujDQ2lWoyBfTfVlzOjW8PdWTrk2o0nuSKbvuEOvxiX52juE6YPLMO2nNXi+3Q/Hm+fZEFKQXsUv8LNfLj7oXIJla/dSr2Ay4aVa0SC3joTEBJTzWzni4EFNuzus9A1lUPtqTP7jEN9O6oYp/A4pzq4oyQpWSXf42Q+KXNxK61GDyaOzZe2SRfQYNPDBPQ+ym4uACIjA8whIKHgepdeqjZEdi3/neFI+8tlDyPVrdB86nss7N1Cuf2+s964irGlPasQcZurSi3TzqsfGjQcpVL4KN/wOUWPoG+Q/vZINoQUZ5OHEzC2XGDKkFTN+2sUXn/dEZz7ZH3OVhdsu4m4TRVWvPhQO2ccvW4NoWbs0233PkrdkDQZ5VmXhlF/4W2+06Bes2oTxXevit3Ie+mI1uBxjzxuty/Ln1O84H5W2QLkbDKG78yEW+IbRrWd3Ek9uZEeQjiFDijP7xz2kWlrZMvDdt3G97cumK2rUVy/TZ9RAHDUqDnuv5YY2D1E3jbwxsJmldeyVw/yy8hD1OnTDo0Aysw+bGNe2OBq1CkP4baIcC5HfOopfvltK2QEjKHZ2OcbK3alid5sv5/nSbXQ//H79jaQC1SlofYP4grXoUc6G71f64eHVC7/1i+jVty3HDt+ld7O8/PDrFtqNHsSqX9fw4XsNWbL8MGWqluH6vkOU6v4meU4uYFeEI4Uq1aOFSxgLAg0MaurK+lsVGZDvAD+svs2w0T05uH4dXj26vlZ7rkxWBETg3wtIKPj3hq9tD/efwnvwqN9jj/+lPUZ4/z2Tojz+KJ6iWB7Pu/903v12GT02+CSw+fG9f/uYo+X0vMkETzwGqJgUVOqnn3I3JMZz89ol4mzyUrqwOw46jaW8DB93fPAI5L25mud873HHp833Sa+MbB+1fPJJyOd4MvK13V9l4iIgAs8WkFDwbCNpIQIiIAIiIAKvhYCEgtdimWWSIiACIiACIvBsAQkFzzaSFiIgAiIgAiLwWghIKHgtllkmKQIiIAIiIALPFpBQ8GwjaSECIiACIiACr4WAhILXYpllkiIgAiIgAiLwbAEJBc82khYiIAIiIAIi8FoISCh4LZZZJikCIiACIiACzxaQUPBsI2khAiIgAiIgAq+FgISC12KZZZIiIAIiIAIi8GwBCQXPNpIWIiACIiACIvBaCEgoeC2WWSYpAiIgAiIgAs8WkFDwbCNpIQIiIAIiIAKvhYCEgtdimWWSIiACIiACIvBsAQkFzzaSFiIgAiIgAiLwWghIKHgtllkmKQIiIAIiIALPFpBQ8GwjaSECIiACIiACr4WAhILXYpllkiIgAiIgAiLwbAEJBc82ek1bKMREh5BgdMBFp0HnYIs6EyUM8WFs3uFP926d0veqpBJ+KwitewkctSrL+ymJUQTHqCme3zmtvVHP1dA4CuXPg40VKIqJO0FXcShUAgdN+kpTI26Q4lwEnTXERYQSY+VMIRfbdGMrhgRupdhTyMEyKtduRFCgQF601ml13N9uRydRwEWHKTWZkFuhuBUqgu7RYRU9IeEK+d3tgAQSUnTYa6wefN6UksCFW3rKFc2N6l7XKfpobkRCyYIumSgtXYmACIjA8wtIKHh+q9empSHyFou8z9C+dX0cVElsXLmHFqN7U/BFBGIucSa6AJWK2j/lUwbWzppPt5GjHn8/JYKlS3zo2KsD+xdOo1T3cWivH+S8qhL13aP584iBt9poWHbWls7lnVi0cg9D+jVj0VJ/+g1sxebZs6nTZyQl89w/4KdyYud2fPZfYcCktzi5eR15W7TC+oofe+IqM7pZgQfj37l6hl2Bp8jbqC8t8sQyfeV5hnWswK5tPnj06Ig7kJoSifeRg0RZVaN/GT2Lfe/i1aIcy2YuYch7YzkbHEtZTShb9h3HVLodrXJdwn//fmp3GUfi7SBylSmH8dZJtl12okcde35de57xgxsTfHQXV2yrUM0hgtU33BjTOM+LaEtbERABEcgUAQkFmcKYszo5vGUZzs37Us78JRe4c+MWCakxXAyKp6g2Dv/oAvSpmsKlODvuhMfTvGE1wq+eQa+x4+ihIDp0rMnWJYtRlWlJ3YpFsY8+R7jahfO3U/H0KMXZgEBscmnZteEMY97qwexZa+j1Ri9crAElhVvBURQsnJt9c34in9cYDm/YSJvhfcirRDH166WM/2QQkUk6ctsZmDtvB/2HeBJ6M55iRXOxYcYvVO49hpK5tQ+/lacm89MXixjx6XAMd++SK38ewi74sjG8PKM8cj9opygK5/atJ6ZOV+rpwpgy/xTjBjZgp7c/7To1R2dpqUDoXtaEl6V7eSdCIhXyu1mx8KdZ9Hl3AAdPG2hatSAXD23jvGMLOlfUcmj+55Ts8QnB545TsEpdzm1dTJFuAyiuSmXOVz/R/q0J7F6/Hq/e7dCY1Gi0NjxxYiJn7WAyGxEQgSwrIKEgyy7Nf1VYMktmL6T/myMeKyAy5g7eS9ZQvucoKjoZmfnrJgaNaMyW7YF0aFaM9YeNDG9fks++3crE/3Vn37JlFOvcl7KqO/wyP5BRfSvx+/ab9K8Sz2FDBTqWVfhhyXk+GNUKvT4Fna2GR0/QRwad5K8gB3o2Lcm0uet5Z3gXIIZfP5/HmM/eRa1SCNzjjbpkA6oVNV9SULh78Rj+MQXpVNOBkyeukQLoHNypXCo3309excjJ/XEC9NG38d53ns6dm3Dp+FliFQWwpWKNMlzz2YCxmRdVUTi4cRV+F0Op7tmHluUf+eYesoetiRXoUDIfYOJSgB/XbCvRusLD0/7n/bZwzd2TdqXBf+6nlO79KbkdzKkHls2dQ9/hZt9UFn79PU1GDWPTiu3UqV+PuOtH0dXpSaMCNv/VDiDjioAIvMYCEgpe48XPeOoKG+bNotHgUbjduwRuPmSqTDf59fejjBvTFVOKgY9/Wk5bzyZ4lC/G1UDzt+IOtCt4i4krgvlpRF3WLVhF3SE9cb51ka9WBNDZqzn1irmzb/V8nBoPp3hSILMOGvl4QJ10ZYRfO41vVF661Eg7EE+fs5bRI7phnRTGlF+2MmHiIE7t3o5z9eYUdzN/f1cIvXSSQErTvnQGlyuMBj6eupPP3vdEiQlhb+BtWjermeE9Eie2rSRP+17kiz7OtvASeJayZf7MFXiOGciDWHBqDQecm9GwqCsXA/yJzFuTeoXMdcSx1i+Mbg1KEOizAUNlL+rnNrL++y9oOu4L/t6/k+KNWnFg+Ry8ho3ARjHyy1ez6PdBH7ZsucDQ7g0Iux7A7OOuTPIqIXumCIiACLxyAQkFr5w86w8YctGfefv1vD/Aw3K2fP/BMzSt5cCfO8J5o6cHSmoyX0xZxej3unMj8DSp1uHc0Dahwo1drEqpQIsK7gT778CjYyNSk4wsWhPIh6Pa4PvXUWwJgvJd0JzZwN6UUtQqXpXokPN06lgdjfnwHnOVxYehW8N8kBpHeIqOczu2kL9tD/JEnMU7ogSDcvlw3bEZeZw0XL10lcL5bdl4xYXuVW0hJYiYpCIUyGu5U9Cypepj+XjGXj57ryN79wbQpF4FMCWy81A0Xi1LPWinmFI5sHYpxTr3o+DlTfg4NaFxXgfWLV1H88G9LfcUmLco30Wcyt+WOsolfJMr4lHcBn3cZVzcKpGCgq2VioPbVqHU6o6HewoLv5hC+/c/w0mdgo2dlnO+G7hbpj317SOZeyiFsS0Ls3DRWrr16cSds7sIyt+OFnmz/n4iFYqACOQ8AQkFOW9NM2FGCkkJCYTHJeDg6IijrS1WKhNJySZ0WvOhG5KT9EQmGHB1csRGrRAVHYO9kytxEVG45M2Foo8l1mhDLicdhoQEIpJM5HF1xFoxEhETj5OjPbFRCbi6uxAaHkcBdyfL5QMl1UhCkuHBHGxt7VCZjMTExpJqpcPN2R6TQY/eaEpro7LGTmtF4hOfsVI/vBiRmmJAn2JCp9ORkpRIqvnUB2ClscXW5uEjA+ZQkKg3YK2xQWtjRVx0JAkpapycHbGzSTv1b970iYkoamvLUw9JyeaLFJZCsLe3S7sEoqT1o7bWWJ5aSNAno9Hq0FqnjWUeJy4mGr2iwd3VCXOpxuQkomLisbF3xNnu4f0QmbCY0oUIiIAIPLeAhILnppKGIiACIiACIpCzBSQU5Oz1ldmJgAiIgAiIwHMLSCh4bippKAIiIAIiIAI5W0BCQc5eX5mdCIiACIiACDy3gISC56aShiIgAiIgAiKQswUkFOTs9ZXZiYAIiIAIiMBzC0goeG4qaSgCIiACIiACOVtAQkHOXl+ZnQiIgAiIgAg8t4CEguemkoYiIAIiIAIikLMFJBTk7PWV2YmACIiACIjAcwtIKHhuKmkoAiIgAiIgAjlbQEJBzl5fmZ0IiIAIiIAIPLeAhILnppKGIiACIiACIpCzBSQU5Oz1ldmJgAiIgAiIwHMLSCh4bippKAIiIAIiIAI5W0BCQc5eX5mdCIiACIiACDy3gISC56Z6PRqmppowpqa+HpOVWYqACKQT0NpoROU1FpBQ8BovvkxdBERABERABB4VkFAg+4MIiIAIiIAIiIBFQEKB7AgiIAIiIAIiIAISCmQfEAEREAEREAEReCggZwpkbxABERABERABEZAzBbIPiIAIiIAIiIAIyJkC2QdEQAREQAREQASeEJDLB7JLiIAIiIAIiIAIyOUD2QdEQAREQAREQATk8oHsAyIgAiIgAiIgAnL5QPYBERABERABERCBjATkngLZL0RABERABERABOSeAtkHREAEREAEREAE5J4C2QdEQAREQAREQATkngLZB0RABERABERABOSeAtkHREAEREAEREAEniogNxrKzvF8AmEXmLF6j6Wt2tqN4cN7YqN+vo9KKxEQAREQgewhIKEge6zTf1/l2fWU6PKJpQ4bu7IcO7YeB+v/vqxMrUAxcjlwPyuXL2XlrmPEJ6agstZSpkZzxo4dTod65dOGUwz47dzAzOlzOHb5NilYkbdETSa89zaezaqheSQsmYx6di//inFfryfZBBRvw9Udv6R1kxLDLu+NzP19ISeuhZKSqqB1dKdlz2GMG9GHMrk0lnYhl4+z/M/ZLNjsT4I+Ba1dbroMfZORA7pRxFX3GEH45UDef2sc+y9FWV7vNO1vprazjMalEwdZs2wRK3ccJVZvALWGItWb8Pbo0XRsVA4rcytjEv67vZn56zSOXL5LqqImf6kajH//LXo0q8GjOTBVH8Wa2d/y0W9b0mrI24njvlNwBgyxd9i9YzNzZi3gTHA0qYqC1jkvnXsPZ/iQnpS6N7dMXT/pTARE4F8LSCj414SvSQevQSgw3T1Ks5aDuZmkpF9UlR0frj3IG+VhUo9mLD8TneHCD5u5nk9albW8p4+5xbRRPfjj2CNtHwkFIavfotGknZgyGA67mhw+soioXVPp/M4cDBm0carUGb8132JnPlIrJq4GrKLnoC+ITHlY2oNQkHqVTg26cCbqkTcfNFMxcfYORjRyYvqbXkzzDc1gbmpaTt7K7D5FUQEJkcFMHtOXNQHhD9s+Egp857/LoCneGRq5lW7G0a0zX5N/ODJNEcheAhIKstd6vdJqFZMJk6KgUqlQn9v41DMF99uZizO3VanUqMxHjnuboijc/w/M76tQqx9p8LAlJlNa20fbKYrJ8npGm0qtRoXy8H2VCit12vdZk8l0ry9zXerHxnz4nrkeSOsHAjZNoeeEpRSv2ZwyrnDYdzdRevNXfKg+dDZrJzZgRp+m/BwQYenTwSUXKn0UsUmpaeXl7kCg3w9YX95J045vEXnv5Qe1PxIKMCXTp0lDjkZZ49GwNqbIIPxOXOL+TLfsDaDIndXU6T2FJEWFRmePs4OayPBY0iqCDxafYlRtE2vfa8eErSEPPnt/vIdnCuDU0sl0+WINhSrWoWJeG/b57Ed/z7X1uO+ZNa49Wya2Yfy6W5a5Obm4kqqPJT4pLUhoHcty7PB6rK6so1G3/xGR/MSaPBIKSAmlf90WHE62o0mjBhhun+XgudtpZTkV4eqxjAPDK93BZTAREIF0AhIKZKfIUODGvml0fWs+kYkpWGnsaNOlGX6rtmL+zvvw8kEq34/vw9J9F4nXJ1sOSFYaLbnz5OXb35bRtHwufOe+x4fz/YiIiiclNe0IaT64VWrai1XT37ecsjZvqeEBDBw0gRPXw9AnGy2hwMbOkaJtJ/BNuUB6fLMuwzrbjP+BD6pE0XL4N2nvq5hNfoUAACAASURBVHSs3nmA6tbH8Gg9ijvmA5fKmvdW7mJMtTyQeIP3ho9m59lgEu7VbK21J0+Vbvy1dCK2xmQi9SbcHNNOyy+d0I//bThunhnD5hzikyb2kJrABxNmM+qTNymRy56oi37U9ByeNr66JvvPLyZszQ90+3iB5SXn+rXR+x8l2fyXR0MBkBwbgWLnitZaDYZLtK/WmfMWpsIcOOlNAVsVAWv/wN+tOSOblMJaBW+3acyma2nf0If/4sPEllb0rteYYwnm8e3I764l5M6Tlw/MKclATLwJZydby+WEgC9a02PJLUs/Y39cx7udymFKieHTvm8z+LeZlHS3I/Xadqq3eQ9z1xp7V44dOsilhePp8eMuy3q7FipHVPD5tLk/GgrMc4uLQu3gaqmZ1Ct0rNmRs4nmTFCDE7uWyL88ERCBLCggoSALLsp/XVLCjQAatxlA1BPfcs3/bzcfCO6Hgpsr3qfjF9ss31rNYcDWRk18gh5yN8F/7+/ktYGgQ6toPvDzDKakpvm7i5g7sgak3qJz406cDtOnazdh4TZqX5j71FDQ8d2pTHujEUve7syn3sGWz5fo8j+6mTbww8bTlr+71X4Tv8VvoVEn8laXNmw+G5FunPYfz2LG4MaW14O3fMfHay8Rfec656/ewqhY0WLIF/w2sQtpV/kf3/z//IB+32y1vJi79WT8Z/TASjGwfvonBObuwud9w6ha9mMSMwgF5pcmvz+KS6GxBF25yO2IBKzs8jJj6RraVHRLP1jqDRrV9uRWvBGsCrDw0C4aOYMx8hwdhvzBl9M/Y8fkHiw4kHawf/RMgfnvx7z/YPrKQ8Tcvc3ZSzcwoaLVsP/x4/u9cbyf0B4Zdd/cjxny/QbLKw5lBxOwaQIalZE5H40hrPoQuhW9RrsBX6Z94olQQGIEA8d8CMmJXLxwnruxSejylGPm3Dk0K5fB3P7rHV/GFwERQEKB7ATpBE54/0TX8fPSXnesyNRpE0g5upoJv295LBTs/ao/45cFWpqV8OjD5I/eoKZrAr637WlVNW/a55OjWLlqHw07tKWAq47Ds96l789pp44LVx7IvrUTOT29L51nnLC85lS0Bt99NZGCNrEcOXyCjv3fJJc2hcQk89kDuHVgHh3eno35CoNz+Q5sXv49hexU6CPO0dCjG1GW8+rWWFkZMZ+YsHEpxub92yitg6g9U6g7chHmnjTOBfniu++pUkAh0O8otdr2p2wBe8sYF2YNoN3PAQ9cKjfuzID+fejetEo6q0sHl9J3xNdEWMrTMtvbh1YlXB5rpygbqPwPoaBr0+qcuG2wfEZj50bXfv0Y9uYISjk9fpQ26iP5oI8nG/9Ou0ehXt//sezzPulq+nJoq6eGAu957zP6u22PzK0TvfsNoHezipbLJ49u1w8sp/+4b7iVkIpa58rP633oVNLmsTZXjy6nZb+nhIK425So2fJBe41TIXr07c3g4YMp5SSPrqRbOHlBBLKAgISCLLAIWa2EPTOGMXy6v6WsMsMW4/1hTTBdxqtKJ04lPzxTwJmlNOn/DVEPri2ryFWhFV99PoE21QpYrvVfOuzNshWr2bT3NDGJCY/dVFeo0gD2r/uQ772aMOvvtG/vnd+ZxS+j0r6xP7nFBR+hdcvB3DEf+G0KsHjzajyKu95rpnBt7QTafLwV44NL3dZ0+mghU4dUt7TxntyX0UvTwkfFVu+weeaIDMcJ9fmDH72vYYiP5ICvHzHm+wVUOgZ9v5zPOqfdRGjebh3fwoChHxKUoFieUuj3zVome5VId3B9Vij49dtPuR6ZxO3LZzh0Niitc11pdu1fRQkXreWvqYkR/PJuH37bk3Y2pGjtHixbMJn8jx+jLe/9Uyg4vX8FC7eexBAfgc/uAyRaQpSKQV8u5rNeNR7MLfrCTroM+IDr0cmgcaD/B9P4YnD9dF7/GAqSonn/s+/AZCT4XABHLqbdwOhUsBZ7fBaRK0N9eVEEROC/FJBQ8F/qZ9Gx//quDyPnnbRUV/OdTaweVcr8YBwDarXgYOzjjyTe8F/NW1/+wd9XbpHy4GCsY9FOf0oGr6bRkG/SbopTaSldpgTWiXc5dzMtAKSFggl80qoxy6+nXQPv9fEivh1cK52MKeku73Vpw8Yr5m/UVoyZu5X3Ghd5pJ1CiM9kmry5ynImIG2zpu8Pm/iqczHL31Z90IOJG89a/ly90yTW/tj3mSuw/ethjFmYFpByl27Cka2/W/4cfsWHHt3Gcj1RQW1jT/eJi/i2f/l0gcDc9lmh4EERptsMqNGSg5brDDD8z0183KAUpqQoZn44gF+2X7W8nq9ie9Yu+4H8thndrPnPoeDRCYfO7U2D709ZXrKr1IUz6762/Dn+5gmadxxAeGIqKmt7+k74iS/vXVp5EuwfQ8FjjaPp3aABRyy3QlgzdOUpJqVlNdlEQASykICEgiy0GFmlFL+VH9L/f5vTyinSk8Btn2BzcTM1uk6y3Cx3/56CxNAw7HM7o7PRkBJ3kzEdO+ATmnYjwju/ribfqal8OOeg5e/5Byzn4P+qcmXVp7SatMbyWloomMi68S153zskbTiPPnjPnogVJlL0IWy/ZEO3mvlY9MVAPl9qvlShInfLbzg4sxP3f0yC+WmGlMhrVKvXgbS7EtSoVeYnJ8DKtQQn/LZgbwXn5o+lw5S0H8BkX7QmR7bMs/xMgeSUBLb6BtOiUDwHjYVoUTYPNtZWKCYjv7/dj6m7zlk+cz8UJMedoKlHX0KTzOXYMGTqJj5odu9yidlHq+XRhyueFgp85n5F+R5v42qrxcpcR8RJ2jcZyI17jxaMWLCZifWKMPWtTvz613VLDZri3Ti0bhK2964sWFlr0JhvUnxky/BMQfBudoSUpFGl/Gg0VpZv797vt+At77Qwdj8UxAefpnrzXqStoorR3y1jbLtyab2rQKvVPhZ8nhYKDmxYRoVWXthrNFipVRgTAmjvMYQgy92WEgqyyr91qUMEnhSQUCD7RDqBiDO7qd113IPXbe0dUFL0JCWnHSruh4LNE3vz+Y5LODjYY2OtJikmnJiktCPaj4t3oT3+I+Pu3T9gPgWdN5cdcVGRJFqeLrgfCj7CdHcjtRp/RPS9U9laO3u0qlTiE/V4TlnDsOT1dPt06b3LAiqc3XJhc++Zx8JNhrDm2wH8ObIFX+wJs/RbzGsyXZQ1/HLvRsM81cdwYOUYrFMu0Lp2Fy7f+yZufurAzkYhIUFP2d4/sKBVJHWHfIO1jRY7nRaT0UBCouHBY371Rsxl4djKNGlQn9CEe0dulRqtzeO3H/65/Th1Cz1kfVooWD60Ap8cVKGzNfupMOgTMaTcv7tTzaZ9R9n381B+3njyQQ3WWu2DJzbMIzQe8A2zJ1h+OtGDLcNQELSMyq2/wmC+IdRWC8Zk4hLNqSZtazf2R2b2KkTN1v2I0j+sQat9ZG4aOw7s24ObY9olDfP2tFAwZ2QjvvWJQmdrl7ZvJMSTnJpmpnYuyomj23GQf3siIAJZTkBCQZZbkixQkJLMjhljGPVr2rd881a3+xtoD85hf4jyWCj4ZFPa6edHtxJt32H9zyOwDjtCh9aDCUq7h86y1ejxDm6n57LzfNy9MwUfWV4/svILhny2gns/EuBB+37T11N839d8tfZYhjDFWo9lTh9H2g759t63Wx3Ldh+gmtUxWrccSbDR/DMINExcvZ8RlZ254ruIPqO+I/yJZ+xrDZvKzIZ3LaEg/aamUd+PmPVZP6z1sdSqU484yzfejLelu/+mfuGH7/1jKDiQvg8rnQs/LFhD55oFmDKyE3P2XH7qWE0H/cD8Tzo89v4/hQLzo4VPbg37f8T0if1xCQugRLOBT5+Yxo6jhw4+fyjYk/4pDxvXkkyfN4fWlfI9fRx5RwRE4D8TkFDwn9Fn8YFNRk74bOfU7Vjs8pSifYu63D2zm32nQ7GydqFXrw6okiI54n+YoDtRlh/Rq1Jb416yEi3rVHzwo37jw66yfddhEo0mXApXpG2jqtw44YPf3yE4uJWlW/uH9w/EhlzGxy+QaPOPF7ayoVSVBtStWJCLh3ZafuRuRptTkcqUSr1E4K20b71qt8r0a1/F8uN4T+9bT+CNtNMCasdy9PGqabnkkBQdwr79foTGJIHKigIlq9G4blm0agi/cQG/o6eJSkw76tvYOlGpVj0qF3O3/N1kTGblqtXcO2mSYU2tvfqR3/HRt66ybLE/lh8B5FSEQZ0bWd5UlBROHfHl/NU7JBlNqNRWOOUuRJPmDXC997OSA/Zu4czNmKfuLIXKe9CiVto9E/e3o7s38PfttMN/8cb9aFw07Z3I6+c5ePwMUXFpZz80OjvK125EtWK50y4JxN9l4fqdT98x1db06tkdnfnyw70t5s5FNvx1NO1vdsXp060B5nsfTckJBB714/KNMAzmOz/VVuTKV4zGHnVw1smTB09HlndE4L8VkFDw3/rL6CIgAv/X3n3HVVX+ARz/3MtlKktAQXHvgXuv3ImaipK4J2qlWbYs61dZ/spR2bA0t7gHTtx7K7m3YqCigOwt447f6164cEGsX1lI9L3+Id57nuf5Pu/ne8753nMPXhEQAREoMgJSFBSZpZBAREAEREAEROD5CkhR8Hz9ZXQREAEREAERKDICUhQUmaWQQERABERABETg+QpIUfB8/WV0ERABERABESgyAlIUFJmlkEBEQAREQARE4PkKSFHwfP1ldBEQAREQAREoMgJSFBSZpZBAREAEREAEROD5CkhR8Hz9ZXQREAEREAERKDICUhQUmaWQQERABERABETg+QpIUfB8/WX0v1gg40Eg70+by61HSZSu8QKzZr6Ji/F/5c2IYNaH0zh6KxK3+h2ZN31izjctZoWhwX/WuygHf4OXyRcapTy6wmcfzeZqVCpVWw7m6yn9MDf51mJdZjxfTHyLt35YiLVF7n8BHHRsHZ/9sJHYNDX1uo3j0wmemH7bsTYziVdGTOGTxT9RzjoXIjn0HG++P4vwFB3tBk3mfZ9WWS/qNFzbtpjPV+4hKdOMtgMm8sHg9n+xoHQnAiLwbxaQouDfvPrFbO46bQZb95ygZZvWuNpZEHMvkA8/9mf+8lmGmR7ceYDyDZtQraw9MUFHeHX6ddYtf83wPQnquOt8OmM9lao4Qtc38K1ixNFyZO8+qjZth7ujFffP72XaZVcWj2po2CD29jE+X3SYHhUiaDP2O2wss77QOfnBDQ6HpNGxZQNKmMOvgWtYfKUSX4xpY3j9wYVNTN/wiDLX9jFq9SYqlcg+7z+OYfWeG3Tv3hInSwVXNn3NTt2LTPFuQHLEBU6FWNC2WR2slRoubPqONYntmDW6eTFbSZmOCIjA8xKQouB5yRfhcUOvHGDXmXs5Eabb1eD1nhXYfOQhXj2y37WSwdqAS7zcq5nhq3yTI4NYt2k/yZk6XBp0ZnATC/zWHML45bya9Mf4DPfl8sFdVOvaF3cbw1tfrgcspUzn4ThZq0CTwoEt/lwNS8KiZBl8h/fjzpFtHAuOzT5jalFYVsXXpzwB1215qVEZw/Pp0XfZcDqRob3q51PVMXfSACZ+v6EA7RQ+69uXD/z3of9+nzunjmBWpzXpFzdyvPwgk6IgX9PMVFp4fc/BgPfRn8evnjlOpWZtSVr3Jvb9vsopCp4cUMu4z9ay4OPBQAYndxyidc+uzPUZSK8l63OKgifbXeDt98/x9QzfJ1+KPMYrX4Uwf9ZvfLNhEc4zCU0ERKDoCUhRUPTWpEhFFH7qJ9bHtuONnh5s/+E/mPWcQo8qNpyaO5GIjv/Bq64bMUGHeXPWEb74dirlS8DVO7HUq5Z1wtY/1KkRDBo4h8X+M+DGZmYfVfHZxN4k3z/DkFm/4j93MOakMmvKB7j3eJ3BL1QlPiwY2zJVMDPLvU5/be8Stug8+fBFN6aNfwWvz+dQ30XBqlmfUGXcTFo55tLpNGruBG7iu13pzP1s2JOm6RGM6z+NedvnYTIEN4+s+c2iQJMWSbePAtn7VS9DMWR8hK95elGgzUzjhP9MrpcexPhONUxaaX+3KEgPDeDzTUqmv9EjzxzUafFsXTCXuIYj8W1v8llHkcoeCUYEROCfJiBFwT9txQozXnU8L09YzbL5r1FCf27OiGDqqzN4979DedNfwbIJTQxfubvwo7fpNv1rsr+hN2+EukwOfDOJ8pPmUcM866V9C//Lo8ZDCFsynbd+XGT4XD/54Gx+SujCe16NCpxhevQF3pl+hB++fTPrdc19Js88xpiGKfgnteYTn3o57SYM7UtIvI7KLfvyjm9/Krva5etTx/md8wmwGMLHXfK+9ptFgTaTEz9NQDfwW9o6Gy51/GZREHXjNCPemwE6Ld2HvceQXs1xKqH/YmHj43eKAl0G378/hSaTv6aNa/bXDYcsp/ekzWRoLOn76iR8urbCUb6KuDD3ChlLBIq1gBQFxXp5n2VyahYPbE7neaep5Jh7IosNPk3r/jP4JXAzttl328345GPen/ZZgYPdC9zKp1fqsHRMdZPX0/iwdycqf3MU32pZn8Efn+NLYvef6FHb9KRpbKLju/ffpu9/v6GiydvzB1umM3RPSQ7Pyy4Unoggne9eHcGr89Zi2mvkmQ1M3m7Gqun9nmjx9KJAx+0jP/Fj6mC+8zS5JJHdw29dKcjaJJ6Br69k1Q8TTa4w/HZRcPCLkTzq+DmDWpUv0FYTeQLfzwJZOnfysyy0tBUBERCBHAEpCiQZChQIv7SMeYl9mdbOwXA1IOuhZcv0sZRtWoFL7m8ytp694dnPprzLxzNnP9lPWhBvTlrF7J8/zXO3fviJlcw6mEBEUCJr/D4wtDv9/TgetplJ/yZPnnDPrfqck6WG8rpn5TxjTJk4lTLuGir1/4J+1U0v5ududnnjZzzw/hjjxffkq5v5cGsKsz8YikX2m2/TTp9WFNw4sJR5wR58N7apiUduy98vCuDD4e8wwu8rcj9AeFpRoOPG4gkE1pzMsLbVDTdCFvzQ8cXk15g6Z55ksQiIgAj8JQJSFPwljMWrk/SIG4z+aBurFk3JM7FbR5ex5EEzZgyswWfDhjJgznJql7Zi+49TSen0EQNr572kvnT6VGr4fkwbV6vcfrT3mDJ1I1P/+zYRx5ayKL4Ls/uWR/MggLdXpfPtlP55MePO8Nb8YL78YBCWJq8c+/F1IhpPoX99FZ9O/Yop331luPEv7yOTRe+MwfsrPxyA1Gtb+XL/Y96dOBC7gmuIAu8puLpnMf6h1fjY94UCCwL9mL9fFKQwYtIifv7+DXI1CioKdFxdM43Trj6M6lg7z30L+WenjT7Pa58fZP537xSvBJTZiIAIPDcBKQqeG33RHdjvg37sUbSmnv5Mqn+Uaczb3Z2Y8vU+vp71TtY717TbvDr9OLM+H411Yig/zV1InJkdFkod2vJtGVX+CsNmnqRLu9zP+se+8jobv/iAWuM/pUNlO9A+ZuVbY/D4ZAkNHK044T+fgCvx2Nmo0KLi7cmv88XoHkS4tqeyS1ZJUMLRg9d6WzNpXRrfTeqG/jaFyBt7+HDdY+Z/VJNZM7ahsDBDpwBNuoZabfvi3aEmEI1Xh8FU79IVRwvjtQ8VPd6eRAOz3PfiT1wpuLufruPn0a5zK8NYxseIcW9Q1iH3mfxFwc3TW1m//xaWFkq0CgVpqdBvzBgauBtR9T09WRSEXd9Ej3FrGfBScxTGMC1defWNoUTtX8j6wHiUKgUKdGRiRd8R4/EoU9BHLkU3vyQyERCBoisgRUHRXRuJTAREQAREQAQKVUCKgkLllsFEQAREQAREoOgKSFFQdNdGIhMBERABERCBQhWQoqBQuWUwERABERABESi6AlIUFN21kchEQAREQAREoFAFpCgoVG4ZTAREQAREQASKroAUBUV3bSQyERABERABEShUASkKCpVbBhMBERABERCBoisgRUHRXRuJTAREQAREQAQKVUCKgkLllsFEQAREQAREoOgKSFFQdNfm+UaWkcw3/sFMHlT/qf/fvyY9HYWlJRmhV/j51GPeGND8b405KuQyFxJLkHntKNV7DqSGvSUHd+/Dzb00l2IdGdi+Ise278CxRmXOn39A30EvYpHwkMWrLjL+tZ5EXjrEBSrRo2ZJtu27Tu0KZhwOd2Ns96ok3D7FqWh7rBLu09KzO9bo2LtuK+6NKxMcaUGvNrWz5qZVs2LxPvqN9Szguxb+1ulL5yIgAiLwtwtIUfC3E/8zB0iMvsq6Bbvxeedt7CwUxETH4uhcCoVWy2MNqNQJLFt7in4DOqJ7eI2t4W4MqadEVcoVc8N/2q8jJuIRKicX7M2VxD0IxbZsBeKiorG3NyMkQkfNSqVycFJiH5GqssfFzpL46EgcnMuAOp0MhTnxsfE4u5Ti4qFdNO7oCXGHmXepDi9Zn+GyRTN6NHImYMFPdPWdwKoDwYzuWp0DGxdj3nwY5ROusWjTbT79yJOH549wUluLrk4pXKEmnSpoef+TJXzw+SusX3uQYUNeJCn4PKtuOTKpSQSb4mrgXcuJ3etW4u45lHp2as7t3MGaq2b8971eeb6g6Z+5yhK1CIiACOQVkKJAMqIAgUwCdx6htlskQeX6UFsdys6jv+DYchjNbEKZd9GK8fUz+THgPIO6NkUTf4vjkaWp565j+zUzpnnXZG/AXmq2asrVvbvw6N2JxAsHuJ9eGpVGSfkKFQlLVdG5cfZXIT88xr7YitiH34Sq1Ym7EYhLLx8aP9zHLnVDSoWeI8myNl2aVQSdhsA1i7DtMYLbm/2o9NI4GjjDubVzsR44kTr62ajjWON/mh4DPLFPjuS9xVeY8WZnlDd2E5Bel14NyxvmnBJ+jZXXLBjbMomFR60Y36MOqWG3mbn5Ht6OZynZ800q21tzcqcfCZUH0FR1ndASdfDffIJpEzqjktwRAREQgWImIEVBMVvQv2I6GdEhLDqVQtc6WjZftuRdr5qc2rEaTcPB1Ew7wu60FxheN5L5O+J4pWdNbgXu4UxaNQY2deHjTfeYMdCC5QcyGfFiPW6f3sLdSn1pF7SIHbZeeDd0ejLEtHv8vOIkTTp3pUkVZ+7sW0N610HUvryBy87daFRWw+ETYXRoVZMbF88Q59aC1m7mrF+4CA8fX2rbwek1c6kyaCIuGfHs2xdIvQ5dKFtCiTYxgg9W3ubL19qjvhzAIRrxYv1yJEYEsedsDN69WqJ4dILF15wY06kWyQ9vMWdfLJ3Vu6k+YKrhysXx7X4kuLYgPDSezo1cmLfrNu+P6kwpa9PvTfwr5KUPERABEXi+AlIUPF//Ijn67avHqVivLZbomDtzCQPeGsOlzRup/LIX4dv8oNsI2lgFsfKYFYNbu3P99DZiqnnRssRNFl+uwLjGwaw6rGOUpweX9m7Etps3iX7Tcen9DuUcrNBpMknTKLG2MDPMPz0pDqWNA3vXLKVsz9Gk7ltIvZfHcG7xbKp6vYFz/CWuqxrgGH8WW4+2lFFCarqWM1uWYNVyBK3Kp+P3wyqGT/Jl3YYT9Hm5PVaaDNKxgISHfLIrmhlDG/Do+FruOHehqUs8e26a07tNRbSpKWAZwY/+8bw+oAn3rh7meGZTOkQu52GTkTR3tsF/+XqaD+pNyccZaDPTmb3lBp+ObIuVKit+eYiACIhAcRGQoqC4rORfNI/Euxf4avU5xkz1pSJqZk37ArfOI6mVEsjhR1Z4tTRnw/5YJo/vy9y5K6jZtgtlHl2kZI9+VE4K4sslR5k4chintqwg3ckV7OoxoH1FTi36hGo+/8HFVsXtkzs4FFeB8T09DFEnXdzCnkhnoh8lMmJYDyJOrGdLkIYxjS1YeCyKOm164dlAxYz35xFuuF8BmgyayPAaqfy08gTly1ji0KwPrUud5b2Pd6E23NJgxYj33yHlwCK2hVgz9Q1vVs35jtRybWhhdwf/k6FZN1DqKvPFzBGc3biSMPuypEWrGTWoGzpdJrO+XUujymaY1ehK5zou+s8lOLpyPlsfWDFlwkhK28oHCH9R2kk3IiACRURAioIishBFPwwdWi0olaDVKVAqQKvVotQ/YfLQaHWY6V9Ev73uidcNm+p0aMnqw/jQ96VQKrN/00GHRqfAzDCGvg+TDfNB6XRatDowyxfHn/HUaDQozcxyf9tCp0XzF/X9Z+KRNiIgAiJQ2AJSFBS2uIwnAiIgAiIgAkVUQIqCIrowEpYIiIAIiIAIFLaAFAWFLS7jiYAIiIAIiEARFZCioIgujIQlAiIgAiIgAoUtIEVBYYvLeCIgAiIgAiJQRAWkKCiiCyNhiYAIiIAIiEBhC0hRUNjiMp4IiIAIiIAIFFEBKQqK6MJIWCIgAiIgAiJQ2AJSFBS2uIwnAiIgAiIgAkVUQIqCIrowEpYIiIAIiIAIFLaAFAWFLS7jiYAIiIAIiEARFZCioIgujIQlAiIgAiIgAoUtIEVBYYvLeCIgAiIgAiJQRAWkKCiiCyNhiYAIiIAIiEBhC0hRUNjiMp4IiIAIiIAIFFEBKQqK6MJIWCIgAiIgAiJQ2AJSFBS2uIwnAiIgAiIgAkVUQIqCIrowEpYIiIAIiIAIFLaAFAWFLf5vGE+bRHi8AkezJPafvEUvzw5/etYZqQlEJ4NraXuUhl50JIXfBaeK2FpkPZOaEEOs1hp3RxvDv9NiotA6umCjhNS4SGwcSwNaHt6PwMGtDCXMzQzbZaQkEKW1pKytFYrsCBNjI1HblKKUlSo35owk4tS2ZHdf4FwSwn7F1q0qSmNHBWx149wJIq3ceaFuxXyvpnBs1zHKtOlODbs/TpWeEs7O3efx7NsTq6ypyUMEREAE/pSAFAV/iq14N4q9/Qtz9kfz+svNSLh3HDP37lRxtfr/J50eyZUwJR6VVaxacoAho/v//21Ntgw7uYFQp7ZU1N5i0w1rXvNqwN41G6ndsz+h+9bjnAFiHAAAF+pJREFU0LY/qZcOoW3QllIRZwmIqUNHq2AOHA9h0BQfHhw7xKnzCUx8rS9zVhxjjHcTtq/bTNOXR1Mi+ABBdh40Nr/Docgq9GvmytFd2yndqB26kEPEV/OilYs+mEz8Fy/Bvfd4WriAJi2GPSeDKVvGishoDe3aN8RaAeE3z2FbozElf6MqSLq0i6NqD3o2cX/CY++6jVTp7001k1rk/0ZTJzHz0828+flwLH+jKPm/+5MNRUAE/rUCUhT8a5f+6RNPDQvi21OZTO1fh4TMJGzUGZw+eRWn6nVJjLiBbbVmZD44R4ZdXZpXciAm7C7RmRB64w4dunXi2qkDmFVpTr1SCSxYdYuxQ1vzw/xdjJ3ojbXhzX0G1y/cQGttjapMNR4HHcKicnPqlkjhTHAGdglXiS3dhqZ2UWgcq2CZcJkFh1MY0c6V2Xti+WREM7h/kOWhFfCsXAL7sm6kPjzPgmtuvNvVjQU/rePlCQMolfKQOUvOMnnCS1wPe0xd95Js9VtGtd79ObvGnxGvjjQgfPbDdqb41mX5tgeM82lPcsx9pu1KYvbQupw/epTg8HAqd/PBwzySZQFBDO5YlrD4FHQqM24Hp9ChoQNHTt/Hs1cnrl84jNqlBhZRoUSonejcvBraxHtcjtAQe+kQlo19cEu8wi1teTwbl+XI/ou06NqYbau30LBVDR78GkOHLu2yr4pA5L1fidGoCL/3gE4d2xj6uhKeTlqyjgaNa2KlAF1KDG8vusyQLqV5lGRJ+2olOHMthLo1HDlx4i59+nmiyrqoIg8REAER+E0BKQokQZ4QiL17nbn779KifAoVm/egfHIc1+9d4g616VEtk8UHY3h9YC389sczup0l6/aEMLBvE1bOWoDPO95ofr3NnuTK9CmXyo/H0pjQvxHJKZmULGGRNVbqPRasv0qfl5oTnKGgyeNz7FZ70NspliUn0hjd24PNC/fRe2wvzDQp7Ao4Qp0unliEn2b9vaq80bk0PDrOD4GleP2lOmSmxrIz4Bi9BvRBf/V83oKtDB3XB9uUUL71u8abr3Y3DBsRdJrzCa70qKnjK7+LvDPBy/D89C9WMMGnEut/tWV8t4akxj7ig+XXmdLTmnjb2kQHHqZs7z4oT2/BumkXAo7HMLJyCOfTPUgLPoNH/fqc2b6GzmPHo428it/BJPr7NGXb4kOM8u3JN9P9GP/heM5vWoZdh744hkew8mIcU4c148vZW5k0pT8b/ZZSr1kPdEEHqdV7ECUNFykiWXsknIFd6rJp+Sr6DRvE4i8XMmDKBH49cZwyrdriZgEZCZFMXXOMqSN7smHrGXp2asCDwJ3EOLWke2N3zCyy3SXXRUAEROB3BKQokBR5QiA65AobQsvyantbtFolOp2SM7vXkOExiNraw+xK7MDIOldZcdqe7iWDOJxaA696Kqb9cIJPP3yZ8IMrCKvQi1q6INbddWJs16pPjJEYfouf1x5m8Kvjcb66jl+cOtMo4yYB0RXwaeXE2o038PH2YOumw7zQpxuO5goe/RrI6l/dmdytLOobO/BPrUv/OnbsPXSZF3t0MBQE+se3fnuZNLwbyug7zNoVxXvDWhIbfJpbihq0quwEKff4eulZ3p6o/1hDzWeLjvJhZ0sW3rLhle6NSIy6wdcnbSgT/wsOJcx5GBxC6aZtqZt8DY+ONbilaETiTj/sX/Al6uIBOnVtztz/+vPKR6NRXt3Omsd1GFLPjLmrrjPWpwXvrr/L975NWDb3Z9qMGo9TxGWW3bDmja7OfLjqJjNGt2Lu199g7uxGk+5eNC2T9VFNxuXtHFA0plvFdH5YfZlJIzoy+bsTfPV+D8x1WrQKpeGKQkp0OB/NC6CSkx1DRnnjbG3GtiWLaDral7KS3yIgAiLwBwSkKPgDWP+WTR/cPMqxzPYM8gBiT3InxYOQU3uoPMAbq7PbCGvam+a3trFbVRuHK4Hcc2lLW/urrDpsQe3q7thFHsShTlsSUhJ5qHSjios7ITfvMKBPPcNJLPHWKbZHutO7phq/X13xSl5JYh0fwk9tILl6P5rY3EJTpQX3VqzEY9gw7M3gxrXr1CrvwLRF5/nkrV7s+PlH6g58jQeXA2nXrgXo0tiwM4SXe9bmq2V7eGfki6gjbvL1/nje8q7FsSQrOrlYoQ67xHVlfe7vWYTniLHo7mzjuFU7OrirWOR3FN/hPQnasxz7F0egvz1R/9jst5aWwweSGbiVtAbN2bZiPz2rWnPqnoJGnr1oZB3L1J8D6dqkHLVUt3hQtjvNbML44XQCtaxt2B78mG/7K5m9+Fda+bSmmi6RgPByNEs8T4C6Cp4NzLj4y0M86ygJCHOic7WqXLx8mRcrPuCoWRMqqYK4EKihajkVO/ZfYcp/X+fhyWOU9KjCnaAMGlZMwS+oKs1C5mHfsReutjXYH7CWAUMG/ltSVuYpAiLwFwlIUfAXQRafbnQkxcWSplMZPodWZ2Zg5+hMRnIilg72KFISUJewx1qTSmhUKq5OdkRFxVDS3oHU2Chs3cpjnhZDVKo5rg7mPIxMxs2tFHdC46lVyTnrLn9NBtGxSWSiwNmlFOaZKdyLTqGMQ0miYuMpaeuIo50VcVExpGt1BlpzqxI42VuTEh9D3GMNliXscdFvEx1FuiZL38zGEXuzVOJS1Njb26NNSyQpU0EpRwtiolKyl0iBo7MzSnUKj6KTUJhb4ubiaPitgdSkOGKTMrCwLkFpR8MFfLQZqUQnpGJta08JVSYBK1Zh06gzjV1VnLweSdcOTbFUaIh48BCbMuWxTI9HZ2WPlTKTB+ExuJR1IyXyIRnm9lhqk1FbOuJso+RhRCQOZcoSE/aIMuWcSUtV41BSRVjYI0q5lSX0QTRVyzsQHhGHnaMdj+PiKOHihupxHGEJmZRydsRWmU5Yog43RwsS1VY4qFIIjUqjrKsTqYmJ2Nn/iV9lKD6JLDMRARH4EwJSFPwJNGny7xZITYwnXWmFQ8ncX2X8d4vI7EVABIqLgBQFxWUlZR4iIAIiIAIi8IwCUhQ8I6A0FwEREAEREIHiIiBFQXFZSZmHCIiACIiACDyjgBQFzwgozUVABERABESguAhIUVBcVlLmIQIiIAIiIALPKCBFwTMCSnMREAEREAERKC4CUhQUl5WUeYiACIiACIjAMwpIUfCMgNJcBERABERABIqLgBQFxWUlZR4iIAIiIAIi8IwCUhQ8I6A0FwEREAEREIHiIiBFQXFZSZmHCIiACIiACDyjgBQFzwgozUVABERABESguAhIUVBcVlLmIQIiIAIiIALPKCBFwTMCSnMREAEREAERKC4CUhQUl5WUeYiACIiACIjAMwpIUfCMgNJcBERABERABIqLgBQFxWUlZR4iIAIiIAIi8IwCUhQ8I6A0FwEREAEREIHiIiBFQXFZyb90HjoeXj3OjTQnXJWJBIWk8kL/TpT6Q2NoUatBpVIW2EqT+Zjtq1fQd8S4fK/ruHvpJOm2blw6e5PufT2xU8Rw4EQwZex1UKkZ9Rxh39FzlHPQEZJsR8/W1Qk6cxyFqzvnzoXQ46Uu2JrndqvTZLB17TY6vOyNLuwq1xIs0EQG49qsOzUdTIfXcev0AeKqdaGls45Duw7gWq0CodFqurWqk7NhYkggJx9Xonud0sQ/DOKXMB0l40Jo0qUbFkpFnvk8unYcy7ptcUiP4uiVSEpmRJFoW5MOHm55tou6/Qt3LTxoVk7Nxo27STO3RJuURKcBg3Ev8YfgZWMREAER+NMCUhT8abri2zDixgl2RpZj9AuVDJM8tHkv9V5qhypVgb2Ngug0FaVLmpEQE4nCphR21irQaUmIjSLTwh6nkuYE/7Kb+zataF3LAUsziI6IoKSLK1b6IkGrISb6PlvXHWL066MICXpI+eruqPSDqWPY4H+Jl306cWntbNTtx5F8cjf2nbypbxHJlz8fZ+ortTgcVYGOlexYPG853iM88d8azOhBLTm46GvcPMdTu5xt9gJpuHPuLNu3nmbYh29wae9+GrzUBW3IOX4+X5L/9K+Zs5BxYXc5fTEQ8yYD6OwSypxdOt7qWYHdG7fS0LsProBWncjFW6e5nlSboS2dWb96N16DvciIucSia260jj+IXfPe1HS1IT78Fhs27WHshEmEn/QnuYon1W3D+NrvKsPa2XLFsTOdy4E6NoQVa7ZTtdck2jtH4nfFjuEtrYpvgsnMREAEiqyAFAVFdmmeX2A7VyzihWG+GN+gatRqbt68xNlfrlPWqRSh2rK0sLqNtl4Xzh08hs/gbpw9cIyarZqxZJY/r300gF0rVmPToAuNqpbm4fE9VOrUgwWrTzNlWEO27zlLq/a18V9xjtcn9cFv9Q76+PTG3vTdvTaDpT/40cd3FOtW+TNy3ABsSGDup0t47ZPJ6N+Qp8fdYu3hGEZ4tTZg6XQZ/PzTRrxHD8LZ2uQduzaDWdPW88q0odgZttRy+dhWEqv2oW3ZvFcyrh3agrpjXxroNCyev5xaLRqRlGFN95a1chck/CA7UuvQ0zaCuYeTmTigLRkpCUxZepGZ41qgMrdCkxLN8QsPcYw+TUOv8TltI68cZV+cK4PaVkGnVGGmS2P3oRuUUgejrtufliUjWX07jZZ2iegcK1O9tFwmeH57gowsAv8+ASkK/n1r/jszTmHpj2sZOWEMeS+ExzN/ziYGTx6NrTqDD3/cx/gepTl134oObsnsT67NkAbmvDv3OF++/SI7lq2h/tBBlI8L4fMt9/BtqeWXzDrUijpEXNU+tHYIZ8b2cKaOavtEPFp1OhcObqFie2+crcyYs2gzk329QBfPD5/7MeE/k1CnxLHl0DX69GqLpUL/Dj6Nk5vXU/elITiqHrJowT6SAYeyHozs3ZAvP9/IxE8GY4uWuxdPc11Zkx4edmxauJL7ai1QisGveRF5cDN08qKeLp1VG07gahXFTXV5XunXGjNjpKH72JVZH0/lXeZeUjCxT3PSk+OYuv5XZg6ujU6l4uDeozRp3ZyTGxbRbsBrONhbkxx5mwM30un7ggdaTQaZmHN67QrKdenNr0cCKNnaizYmnxXMnrWMkW+PxCVnYElWERABEfh7BaQo+Ht9/5G9B25cjLb7aFqWzCoLNBoNZul3+XFdEBNGdUeTmc7UZYHMGNsObUYGl89u434pb7qWOsJHASX5enQT1i7zp8vI/liE3uL7kxn8x8cDdVoaezcso0znV3CO3sP64Aq807c26ECRU4FoOb97G427982xWzBvNd6vDsYx/gEfL73MZ5O7sfpkBENau2dvk8nRjVtp7+1dsLc6nQ++3c+n7/TkwckDpNTuSH1HJbo842Y1vRCwDrdePpQ+t5LLVbxo6FiCHSvWUGvYIKoae7+wgROlOtHGPoLvAx4xaWgnkmOOsy60OY4nfqJi9yFUdlShRcex9UtoN3ACTqpgAiOcaVGtjKGXe/uXcLTsKHq6xaPVQeCeAOza9aOeeSTRdpWpZg3fz55H34mvUsH6H5lGErQIiMA/UECKgn/gov3dIavTYlm9cBUa90qYp6VTv00nPOyjWLgnmnED2hjuHwhY+BOR9qUpU7EhLUsns3D/ferUbcSpM8cYOrQvYYc2E6xyZ1DvZmz/aTGqCm641u2IR+Yllp+IpE6VChy6EMzo8QNZM3cTb00diP4ugJT7V5i2dB+2Nvo7DLQMHeGL+YNT7LtvgYs2hsaefdAdmc/CS2rMlAoybcoxqUcNZq48gJ2VEnQZDBoxkWplcj+TDz8bwMydD3hl4hAOLptPjMbS0HepRj5M6JJ7w9/jR3f4bvEmarTti1dzW75Zd4F2NSy4FmXL8N4tDFcKdJpMln7/FalubRkzsA3nd/gT41CJyOthDPftjbmhwlEarrJEh/zCnKX76O47lfBNc7ieYYaZAuzdazNpYBd0CoVhu4xHN/lqwXbqvTSA9s5JLPslmYYWIaSXf4Fu9cvmu2Lzd6++9C8CIvBvFpCi4N+8+r85dx0ZGWrMzFWY5b6Nz9MiU63BXJV1bVurUaM0U6HJzGqjLxw0OoXhxK1/S56h0WGR/ZsIhisPZmZo1BrMVGZkqLU5rz0tJP19DTqFGSr9WbWQHjqtmkwNmJurfuPErCNT72RhTsG/Z/HHg9VqMlHrzH7X5I/3LC1EQARE4LcFpCiQDBEBERABERABETAISFEgiSACIiACIiACIiBFgeSACIiACIiACIhAroBcKZBsEAEREAEREAERkCsFkgMiIAIiIAIiIAJypUByQAREQAREQAREIJ+AfHwgKSECIiACIiACIiAfH0gOiIAIiIAIiIAIyMcHkgMiIAIiIAIiIALy8YHkgAiIgAiIgAiIQEECck+B5IUIiIAIiIAIiIDcUyA5IAIiIAIiIAIiIPcUSA6IgAiIgAiIgAjIPQWSAyIgAiIgAiIgAnJPgeSACIiACIiACIjAUwXkRkNJDhEQAREQAREQAYOAFAWSCCIgAiIgAiIgAlIUSA6IgAiIgAiIgAjkCsiVAskGERABERABERABuVIgOSACIiACIiACIiBXCiQHREAEREAEREAE8gnIxweSEiIgAiIgAiIgAvLxgeSACIiACIiACIiAfHwgOSACIiACIiACIiAfH0gOiIAIiIAIiIAIFCQg9xRIXoiACIiACIiACMg9BZIDIiACIiACIiACck+B5IAIiEAxFFB84VcMZ1W4U9JNHV64A8poRUpAPj4oUsshwYiACDyLgBQFz6KX1VaKgmc3/Cf3IEXBP3n1JHYREIE8AlIUPHtCSFHw7Ib/5B4Ut4Ju6RQKBTqdDqVCafjb8FAY/1Kg1WlBB4bt0Bn+1v/Rb2tsWyBCdh86bdZ2hm4VWf3l9JU9kHFcw/P67ZWKnL5Nx1Eqc2PUx2LcNie+7PgNc9E/qZ+Ofmh9/EqF4W9jO/3zhplkz8s0BmOshuey2+ePw+hiiMk4Vn6I7LaGClxvrFSi1Wrz+OaZu97XGJNxLbLbGuM1xGacS/Ya6Ps0Gut/1o9jfBjWzOicP04FOTEZt8mZr0k7Y/xGK2OumPZtXNun5Yq+35z8yudkyCf9n+z55OSKybxMm5iuhSEfs3P4abmSJ36TMfKss0nem+4LhnXOzt2cfM/OI6O5fntDXuebh3HN9Xmq/2NYl+y2JgtkyAdj2zy5osle1+w8NvqZ7gem+6C+D+P+ZezfuK3RxjRXTL0L2ocNeZ390PddYP6a7mfZ2+b0m73fGeI27ovZlkYTg2H28cWYI3kssvvPf8zIWhcFSn17/XFFq+HQvUi0hvXNGi4ndv2/s49DWf1k5aJx91Qq9cezrK2zYs0K1nDUys4t/Y+G7bK2yjlImvrrDPt2Vj4aYjB0ldXC9Bhouh/kxpGVH1ku2WM9kSvZ+7Kxc8PxMmt/1887d75ZzxvyKjv+nOO2iYt+m6xDsyEBDdt2quias4XxWKLfxPhznn04+7ie9dzTcyXn2GJ0N55L8p1H8pxPsvcJQ05oTVcza01MH7nGWeZZOWX4wbCZMeeNa6AznIOyziUmh2jDHEzPbbnbm8wt+9hr6NeYKybnt/zrnRuHPi9zz1+mMRljMJ2HIf9Mci8rN7OOMfrcN1Oa5ax5bv7m5mWe84rh/K7fR7JyxXQNDcft7FzRH8cUt+/c1uk3MB688h8Y8ndsmtxP2zZPYpokqnGHMxwY865pnh0n/wE//wTyn1hyTgjGnV6/aMb9Nl+QBbZ9yskvdw8zOViY9JenQDEpkPIvpGliFfSzcVHynxBzDlAmY+Y5AZjsWMZNcg7a2U/kXz/j+Ma+TQ8YBbkbnzON+8/miukJ5mlraJyHscgyLW5yXjM5yP5urhRQBBmeyl4vU4+sI3cudkExPpHz+XInf4ym62Ls7/diNl0b01iN+55hB86XE/9XruQrhv6vXDHuSsb8znfQNJ3LX5krpvMzFmUFHVdyTu7Zb1SMJ3zjWhaU/6Yxm/aZx9DkzUSeeeU7bj1tvfPsZznvS3KLc9P55c+zvMeVrCIjT85kJ2nOPmmStnmPIVknw7y5kvVmIc+YitwToTHHTPvRP6c/oZi2yfk5T8GRNVL+tn/HcSV/UfBb65A/btPirKB1MM41/7Exf64YCoK8FcXTjysmA/3WccX4Jsv0zVbBuZKVoP/vOchQOOd75D/fGHPlf7KiXWhkdR/jAAAAAElFTkSuQmCC;" vertex="1" parent="1">
                    <mxGeometry x="2390" y="286" width="217" height="218.26" as="geometry"/>
                </mxCell>
                <mxCell id="32" value="" style="image;html=1;image=img/lib/clip_art/networking/Firewall_02_128x128.png;fontSize=30;" vertex="1" parent="1">
                    <mxGeometry x="1660" y="520" width="180" height="200" as="geometry"/>
                </mxCell>
                <mxCell id="33" value="" style="shape=flexArrow;endArrow=classic;startArrow=classic;html=1;fontSize=30;exitX=1;exitY=0.5;exitDx=0;exitDy=0;" edge="1" parent="1" source="32" target="25">
                    <mxGeometry width="100" height="100" relative="1" as="geometry">
                        <mxPoint x="2166" y="740" as="sourcePoint"/>
                        <mxPoint x="2376" y="740" as="targetPoint"/>
                    </mxGeometry>
                </mxCell>
            </root>
        </mxGraphModel>
    </diagram>
</mxfile>